if (_typeface_js && _typeface_js.loadFace) _typeface_js.loadFace({"glyphs":{"0":{"ha":828,"x_min":76,"x_max":751,"o":"m 751 469 q 727 288 751 375 q 658 134 703 201 q 551 26 613 67 q 414 -14 489 -14 q 277 26 339 -14 q 170 134 215 67 q 101 288 125 201 q 76 469 76 375 q 101 650 76 563 q 170 804 125 738 q 277 911 215 871 q 414 951 339 951 q 551 911 489 951 q 658 804 613 871 q 727 650 703 738 q 751 469 751 563 m 414 58 q 526 92 476 58 q 611 182 576 125 q 664 313 646 239 q 682 469 682 388 q 664 626 682 551 q 611 756 646 700 q 526 846 576 813 q 414 879 476 879 q 301 846 351 879 q 217 756 251 813 q 164 626 182 700 q 146 469 146 551 q 164 313 146 388 q 217 182 182 239 q 301 92 251 125 q 414 58 351 58 z "},"1":{"ha":258,"x_min":94,"x_max":164,"o":"m 164 38 q 131 0 164 0 q 94 38 94 0 l 94 899 q 131 938 94 938 q 164 899 164 938 l 164 38 z "},"2":{"ha":572,"x_min":71,"x_max":522,"o":"m 522 35 q 489 0 522 0 l 129 0 q 90 12 101 0 q 79 40 79 24 q 88 72 79 57 l 369 563 q 419 735 419 650 q 383 839 419 799 q 283 879 346 879 q 193 849 231 879 q 139 753 156 818 q 125 728 135 736 q 104 719 115 719 q 81 729 92 719 q 71 757 71 739 q 72 765 71 763 q 94 837 78 803 q 138 896 111 871 q 200 936 164 921 q 283 951 236 951 q 367 937 329 951 q 434 897 406 922 q 478 833 463 871 q 493 750 493 796 q 477 633 493 688 q 429 524 461 579 l 165 72 l 489 72 q 522 35 522 72 z "},"3":{"ha":622,"x_min":67,"x_max":563,"o":"m 557 690 q 531 575 557 631 q 439 475 504 519 q 494 429 471 456 q 533 372 518 403 q 556 307 549 340 q 563 240 563 274 q 544 142 563 188 q 492 61 525 96 q 415 6 460 26 q 317 -14 369 -14 q 209 7 256 -14 q 131 63 163 28 q 83 142 99 97 q 67 238 67 188 q 100 275 67 275 q 136 238 136 275 q 147 167 136 200 q 181 110 158 135 q 238 72 204 86 q 317 58 271 58 q 385 73 353 58 q 441 112 417 88 q 480 169 465 136 q 494 240 494 203 q 483 314 494 278 q 449 378 471 350 q 396 424 428 407 q 325 442 364 442 q 296 450 304 442 q 288 476 288 458 q 322 513 288 513 q 401 528 369 513 q 453 569 433 543 q 481 628 472 594 q 490 699 490 663 q 442 835 490 790 q 326 879 393 879 q 251 866 281 879 q 203 830 221 853 q 175 776 185 807 q 160 710 165 744 q 147 688 157 694 q 126 681 138 681 q 99 692 108 681 q 89 718 89 703 q 92 748 89 733 q 100 778 96 763 q 181 902 122 853 q 326 951 239 951 q 419 933 376 951 q 492 881 461 915 q 540 799 522 847 q 557 690 557 750 z "},"4":{"ha":679,"x_min":83,"x_max":626,"o":"m 626 464 q 594 428 626 428 l 561 428 l 561 39 q 528 0 561 0 q 494 39 494 0 l 494 428 l 125 428 q 83 476 83 428 l 83 897 q 118 938 83 938 q 153 897 153 938 l 153 500 l 494 500 l 494 897 q 528 938 494 938 q 561 897 561 938 l 561 500 l 594 500 q 626 464 626 500 z "},"5":{"ha":671,"x_min":83,"x_max":606,"o":"m 585 903 q 549 865 585 865 l 154 865 l 154 507 q 193 540 171 525 q 240 566 215 556 q 289 582 264 576 q 335 588 314 588 q 461 563 410 588 q 544 497 513 539 q 591 400 576 456 q 606 282 606 344 q 586 169 606 222 q 531 74 567 115 q 446 10 496 33 q 336 -14 396 -14 q 268 -3 301 -14 q 205 27 235 8 q 151 69 175 46 q 111 119 128 93 q 92 156 100 139 q 83 192 85 172 q 118 226 83 226 q 149 200 140 226 q 169 156 157 176 q 196 119 181 136 q 255 75 224 92 q 331 58 286 58 q 413 75 375 58 q 479 122 451 92 q 522 193 507 151 q 538 285 538 235 q 483 460 538 408 q 329 513 428 513 q 231 485 271 513 q 151 414 192 458 q 124 401 139 401 q 97 415 108 401 q 85 447 85 428 l 85 903 q 117 938 85 938 l 549 938 q 585 903 585 938 z "},"6":{"ha":653,"x_min":69,"x_max":588,"o":"m 588 278 q 569 163 588 217 q 516 70 550 110 q 433 8 482 31 q 324 -14 383 -14 q 222 4 268 -14 q 141 59 175 22 q 88 150 107 96 q 69 276 69 204 q 95 428 69 342 q 165 606 121 515 q 270 782 210 697 q 400 926 331 867 q 431 938 415 938 q 456 928 446 938 q 467 903 467 918 q 454 875 467 888 q 363 776 403 824 q 290 680 322 728 q 228 582 257 632 q 174 474 200 532 q 242 521 201 503 q 326 539 283 539 q 442 517 393 539 q 524 460 492 496 q 572 377 556 425 q 588 278 588 329 m 518 267 q 508 343 518 307 q 474 407 497 379 q 414 451 451 435 q 322 467 376 467 q 247 452 281 467 q 189 413 213 438 q 152 355 165 388 q 139 285 139 322 q 190 113 139 168 q 324 58 242 58 q 406 74 369 58 q 467 118 442 90 q 505 184 492 146 q 518 267 518 222 z "},"7":{"ha":697,"x_min":92,"x_max":640,"o":"m 158 18 q 129 0 149 0 q 104 10 115 0 q 93 35 93 19 q 99 54 93 44 l 556 865 l 129 865 q 92 903 92 865 q 129 938 92 938 l 586 938 q 628 923 615 938 q 640 893 640 908 q 635 869 640 879 l 158 18 z "},"8":{"ha":597,"x_min":69,"x_max":528,"o":"m 528 243 q 512 142 528 189 q 465 60 496 94 q 392 6 435 25 q 293 -14 349 -14 q 203 3 244 -14 q 133 50 163 21 q 86 119 103 79 q 69 206 69 160 q 242 526 69 342 q 114 747 114 642 q 127 829 114 792 q 165 894 140 867 q 223 936 189 921 q 297 951 257 951 q 397 924 356 951 q 465 843 438 896 q 483 805 476 822 q 490 772 490 788 q 475 732 490 753 l 332 540 q 480 390 432 461 q 528 243 528 319 m 424 776 q 364 856 397 833 q 286 879 331 879 q 247 869 265 879 q 214 840 228 858 q 192 799 200 822 q 183 749 183 775 q 279 582 183 665 l 424 776 m 458 238 q 422 353 458 296 q 293 486 385 411 q 215 389 244 428 q 168 321 185 350 q 145 268 151 292 q 139 218 139 244 q 184 99 139 139 q 296 60 229 60 q 416 109 374 60 q 458 238 458 158 z "},"9":{"ha":638,"x_min":63,"x_max":554,"o":"m 554 39 q 518 0 554 0 q 485 39 485 0 l 485 529 q 310 432 421 432 q 210 453 256 432 q 133 509 165 474 q 81 592 100 544 q 63 693 63 640 q 81 788 63 742 q 133 871 100 835 q 212 929 167 907 q 311 951 257 951 q 408 933 363 951 q 485 879 453 914 q 535 796 517 844 q 554 689 554 747 l 554 39 m 489 689 q 440 826 489 774 q 311 879 392 879 q 240 865 274 879 q 183 824 207 850 q 146 763 160 797 q 132 689 132 728 q 145 617 132 651 q 183 558 158 583 q 240 517 207 532 q 310 501 272 501 q 381 517 347 501 q 438 558 414 532 q 475 617 461 583 q 489 689 489 651 z "},"\u0017":{"ha":336,"x_min":0,"x_max":0,"o":""}," ":{"ha":336,"x_min":0,"x_max":0,"o":""},"!":{"ha":321,"x_min":94,"x_max":226,"o":"m 194 296 q 160 260 194 260 q 125 296 125 260 l 125 897 q 160 938 125 938 q 194 897 194 938 l 194 296 m 94 67 q 113 118 94 97 q 160 139 132 139 q 207 118 188 139 q 226 67 226 97 q 207 15 226 36 q 160 -6 188 -6 q 113 15 132 -6 q 94 67 94 36 z "},"\"":{"ha":365,"x_min":69,"x_max":296,"o":"m 69 632 m 139 672 q 104 632 139 632 q 69 672 69 632 l 69 896 q 104 938 69 938 q 139 896 139 938 l 139 672 m 296 672 q 261 632 296 632 q 226 672 226 632 l 226 896 q 261 938 226 938 q 296 896 296 938 l 296 672 z "},"#":{"ha":831,"x_min":56,"x_max":775,"o":"m 775 286 q 739 250 775 250 l 619 250 l 619 39 q 585 0 619 0 q 551 39 551 0 l 551 250 l 279 250 l 279 38 q 244 0 279 0 q 213 38 213 0 l 213 250 l 89 250 q 56 286 56 250 q 89 321 56 321 l 213 321 l 213 628 l 89 628 q 56 664 56 628 q 89 699 56 699 l 213 699 l 213 899 q 244 938 213 938 q 279 899 279 938 l 279 699 l 551 699 l 551 897 q 585 938 551 938 q 619 897 619 938 l 619 699 l 739 699 q 775 664 775 699 q 739 628 775 628 l 619 628 l 619 321 l 739 321 q 775 286 775 321 m 551 321 l 551 628 l 279 628 l 279 321 l 551 321 z "},"$":{"ha":631,"x_min":69,"x_max":561,"o":"m 292 -65 q 264 -97 292 -97 q 233 -65 233 -97 l 233 15 q 132 83 178 36 q 101 121 114 100 q 79 161 89 142 q 69 204 69 181 q 80 229 69 219 q 103 239 90 239 q 133 215 125 239 q 157 167 144 188 q 185 131 169 146 q 233 94 208 107 l 233 535 q 143 630 171 586 q 115 732 115 674 q 148 844 115 794 q 233 919 181 894 l 233 1001 q 264 1035 233 1035 q 292 1001 292 1035 l 292 935 q 306 937 299 936 q 319 938 313 938 q 344 936 332 938 q 367 932 356 935 l 367 1001 q 397 1035 367 1035 q 425 1001 425 1035 l 425 910 q 496 839 472 882 q 508 814 503 828 q 514 788 514 800 q 504 764 514 772 q 483 756 494 756 q 467 761 475 756 q 453 779 458 767 q 439 802 446 790 q 425 822 432 814 l 425 493 q 524 391 486 449 q 561 250 561 333 q 526 114 561 175 q 425 22 490 53 l 425 -65 q 397 -97 425 -97 q 367 -65 367 -97 l 367 4 q 318 0 343 0 q 305 0 311 0 q 292 1 299 0 l 292 -65 m 308 76 q 338 78 324 76 q 367 83 353 79 l 367 446 q 328 469 347 457 q 292 493 310 481 l 292 76 l 308 76 m 321 865 q 306 865 313 865 q 292 863 299 864 l 292 581 q 326 558 307 569 q 367 532 346 546 l 367 858 q 321 865 343 865 m 492 253 q 477 326 492 290 q 425 403 463 363 l 425 111 q 474 173 457 136 q 492 253 492 210 m 186 735 q 198 678 186 703 q 233 629 210 653 l 233 838 q 186 735 186 799 z "},"%":{"ha":822,"x_min":69,"x_max":753,"o":"m 417 154 q 430 219 417 189 q 466 273 443 250 q 519 309 489 296 q 585 322 550 322 q 650 309 619 322 q 703 273 681 296 q 740 219 726 250 q 753 154 753 189 q 740 89 753 119 q 703 35 726 58 q 650 -1 681 13 q 585 -14 619 -14 q 519 -1 550 -14 q 466 35 489 13 q 430 89 443 58 q 417 154 417 119 m 486 154 q 515 85 486 114 q 585 56 544 56 q 654 85 625 56 q 683 154 683 114 q 654 224 683 194 q 585 253 625 253 q 515 224 544 253 q 486 154 486 194 m 176 21 q 147 0 164 0 q 121 12 132 0 q 110 35 110 24 q 117 57 110 46 l 617 917 q 647 938 629 938 q 673 927 663 938 q 683 906 683 917 q 676 881 683 893 l 176 21 m 69 783 q 83 849 69 818 q 119 902 96 879 q 172 938 142 925 q 238 951 203 951 q 303 938 272 951 q 356 902 333 925 q 392 849 379 879 q 406 783 406 818 q 392 718 406 749 q 356 665 379 688 q 303 628 333 642 q 238 615 272 615 q 172 628 203 615 q 119 665 142 642 q 83 718 96 688 q 69 783 69 749 m 139 783 q 168 714 139 743 q 238 685 197 685 q 307 714 278 685 q 336 783 336 743 q 307 853 336 824 q 238 882 278 882 q 168 853 197 882 q 139 783 139 824 z "},"&":{"ha":782,"x_min":60,"x_max":715,"o":"m 553 154 q 488 75 518 107 q 429 23 458 43 q 371 -6 400 3 q 308 -14 342 -14 q 210 3 256 -14 q 131 51 164 19 q 78 126 97 82 q 60 228 60 171 q 100 368 60 300 q 208 490 140 436 l 289 554 l 288 557 q 221 685 239 632 q 203 779 203 738 q 245 911 203 871 q 357 951 288 951 q 488 904 444 951 q 532 781 532 857 q 493 657 532 711 q 376 543 454 603 l 553 279 q 608 376 585 332 q 646 464 631 419 q 660 486 651 479 q 681 493 669 493 q 705 483 694 493 q 715 456 715 474 q 706 419 715 440 q 686 374 697 397 q 649 303 671 343 q 594 215 626 264 l 701 58 q 710 35 710 46 q 699 10 710 19 q 675 0 688 0 q 646 18 658 0 l 553 154 m 307 57 q 406 94 358 57 q 513 217 454 131 l 324 501 l 251 446 q 164 351 200 406 q 128 235 128 296 q 175 106 128 156 q 307 57 222 57 m 467 779 q 440 850 467 821 q 357 879 413 879 q 317 870 333 879 q 290 847 300 861 q 276 815 281 833 q 272 779 272 797 q 288 696 272 738 q 342 596 303 654 q 435 686 404 646 q 467 779 467 726 z "},"'":{"ha":208,"x_min":69,"x_max":139,"o":"m 139 672 q 104 632 139 632 q 69 672 69 632 l 69 896 q 104 938 69 938 q 139 896 139 938 l 139 672 z "},"(":{"ha":417,"x_min":149,"x_max":378,"o":"m 368 -67 q 378 -93 378 -78 q 369 -119 378 -108 q 346 -129 360 -129 q 315 -113 329 -129 q 290 -83 300 -97 q 183 153 218 17 q 149 453 149 290 q 183 752 149 615 q 290 989 218 889 q 315 1019 300 1003 q 346 1035 329 1035 q 369 1024 360 1035 q 378 999 378 1014 q 368 972 378 983 q 253 744 289 881 q 218 453 218 608 q 253 161 218 297 q 368 -67 289 25 z "},"*":{"ha":613,"x_min":81,"x_max":532,"o":"m 532 631 q 519 606 532 611 l 360 461 l 519 321 q 529 297 529 311 q 494 256 529 256 q 475 264 483 256 l 339 383 l 339 139 q 306 103 339 103 q 274 139 274 103 l 274 386 l 136 265 q 115 256 126 256 q 81 296 81 256 q 92 321 81 310 l 251 461 l 93 603 q 81 631 81 615 q 115 667 81 667 q 138 658 126 667 l 274 536 l 274 774 q 306 811 274 811 q 339 774 339 811 l 339 538 l 475 658 q 499 667 485 667 q 532 631 532 667 z "},"+":{"ha":713,"x_min":94,"x_max":618,"o":"m 321 503 l 321 693 q 357 728 321 728 q 392 693 392 728 l 392 503 l 583 503 q 618 467 618 503 q 583 432 618 432 l 392 432 l 392 239 q 356 204 392 204 q 321 239 321 204 l 321 432 l 129 432 q 94 468 94 432 q 129 503 94 503 l 321 503 z "},",":{"ha":268,"x_min":69,"x_max":199,"o":"m 199 85 q 189 17 199 50 q 163 -41 179 -15 q 126 -82 147 -67 q 82 -97 104 -97 q 69 -87 69 -97 q 82 -69 69 -82 q 91 -53 88 -64 q 94 -33 94 -42 q 90 6 94 -10 q 82 33 86 21 q 74 58 78 46 q 69 86 69 69 q 88 144 69 125 q 133 163 106 163 q 180 141 161 163 q 199 85 199 119 z "},"-":{"ha":449,"x_min":32,"x_max":417,"o":"m 382 503 q 417 467 417 503 q 382 432 417 432 l 67 432 q 32 468 32 432 q 67 503 32 503 l 382 503 z "},".":{"ha":271,"x_min":69,"x_max":201,"o":"m 69 67 q 88 118 69 97 q 135 139 107 139 q 182 118 163 139 q 201 67 201 97 q 182 15 201 36 q 135 -6 163 -6 q 88 15 107 -6 q 69 67 69 36 z "},"/":{"ha":596,"x_min":11,"x_max":585,"o":"m 78 21 q 49 0 65 0 q 22 12 33 0 q 11 35 11 24 q 18 57 11 46 l 518 917 q 549 938 531 938 q 574 927 564 938 q 585 906 585 917 q 578 881 585 893 l 78 21 z "},":":{"ha":321,"x_min":94,"x_max":226,"o":"m 94 469 q 113 521 94 500 q 160 542 132 542 q 207 521 188 542 q 226 469 226 500 q 207 418 226 439 q 160 397 188 397 q 113 418 132 397 q 94 469 94 439 m 94 108 q 113 160 94 139 q 160 181 132 181 q 207 160 188 181 q 226 108 226 139 q 207 57 226 78 q 160 36 188 36 q 113 57 132 36 q 94 108 94 78 z "},";":{"ha":321,"x_min":94,"x_max":226,"o":"m 225 126 q 215 59 225 92 q 190 1 206 26 q 152 -40 174 -25 q 108 -56 131 -56 q 96 -46 96 -56 q 108 -28 96 -40 q 117 -11 114 -22 q 121 8 121 0 q 117 47 121 32 q 108 75 113 63 q 100 99 104 88 q 96 128 96 111 q 114 185 96 167 q 160 204 132 204 q 206 183 188 204 q 225 126 225 161 m 94 469 q 113 521 94 500 q 160 542 132 542 q 207 521 188 542 q 226 469 226 500 q 207 418 226 439 q 160 397 188 397 q 113 418 132 397 q 94 469 94 439 z "},"<":{"ha":713,"x_min":94,"x_max":618,"o":"m 592 326 q 618 297 618 317 q 608 269 618 279 q 586 258 597 258 q 567 263 576 258 l 125 426 q 102 444 110 433 q 94 468 94 456 q 102 493 94 482 q 125 510 110 504 l 567 674 q 586 678 576 678 q 608 667 597 678 q 618 639 618 657 q 592 610 618 619 l 219 468 l 592 326 z "},"=":{"ha":713,"x_min":94,"x_max":618,"o":"m 583 628 q 618 592 618 628 q 583 557 618 557 l 129 557 q 94 593 94 557 q 129 628 94 628 l 583 628 m 583 378 q 618 342 618 378 q 583 307 618 307 l 129 307 q 94 343 94 307 q 129 378 94 378 l 583 378 z "},">":{"ha":713,"x_min":94,"x_max":618,"o":"m 493 468 l 121 610 q 94 639 94 619 q 105 667 94 657 q 126 678 115 678 q 146 674 135 678 l 588 510 q 610 493 603 504 q 618 468 618 482 q 610 444 618 456 q 588 426 603 433 l 146 263 q 126 258 135 258 q 105 269 115 258 q 94 297 94 279 q 121 326 94 317 l 493 468 z "},"?":{"ha":569,"x_min":60,"x_max":526,"o":"m 526 735 q 508 622 526 669 q 449 533 489 574 q 400 490 429 514 q 354 443 371 465 q 320 377 331 411 q 310 293 310 343 q 274 254 310 254 q 239 292 239 254 q 297 482 239 408 q 351 536 318 508 q 400 583 383 564 q 444 651 432 618 q 457 726 457 683 q 411 838 457 797 q 274 879 365 879 q 183 852 219 879 q 124 797 146 825 q 96 783 111 783 q 71 793 82 783 q 60 818 60 803 q 67 843 60 831 q 84 867 74 856 q 106 887 94 878 q 126 903 118 896 q 192 938 156 925 q 274 951 229 951 q 463 892 400 951 q 526 735 526 833 m 208 67 q 227 118 208 97 q 274 139 246 139 q 321 118 301 139 q 340 67 340 97 q 321 15 340 36 q 274 -6 301 -6 q 227 15 246 -6 q 208 67 208 36 z "},"@":{"ha":1067,"x_min":69,"x_max":997,"o":"m 997 296 q 983 175 997 232 q 941 76 968 118 q 877 8 914 33 q 794 -17 840 -17 q 703 17 729 -17 q 678 104 678 51 l 678 128 q 614 57 658 86 q 510 28 569 28 q 428 44 467 28 q 360 93 389 61 q 314 172 331 125 q 297 281 297 219 q 313 380 297 333 q 359 460 329 426 q 432 515 389 494 q 528 535 475 535 q 619 507 581 535 q 681 431 657 479 l 681 499 q 711 533 681 533 q 744 499 744 533 l 744 115 q 760 73 744 88 q 800 58 776 58 q 855 75 831 58 q 896 122 879 92 q 922 192 913 151 q 931 278 931 232 q 906 455 931 375 q 835 592 882 535 q 719 681 788 649 q 563 713 651 713 q 402 682 479 713 q 266 594 325 651 q 172 453 207 536 q 136 264 136 369 q 164 88 136 168 q 246 -52 192 7 q 379 -144 300 -111 q 561 -178 458 -178 q 593 -188 586 -178 q 600 -214 600 -199 q 589 -242 600 -233 q 560 -250 578 -250 q 365 -217 454 -250 q 209 -119 275 -185 q 106 45 143 -53 q 69 274 69 143 q 109 483 69 389 q 217 644 149 578 q 373 748 285 711 q 560 785 461 785 q 735 751 656 785 q 874 653 815 717 q 965 499 932 589 q 997 296 997 408 m 678 282 q 667 350 678 317 q 638 408 657 383 q 590 449 618 433 q 525 464 561 464 q 410 414 453 464 q 367 282 367 364 q 410 148 367 194 q 525 101 453 101 q 590 115 561 101 q 638 154 618 129 q 667 212 657 179 q 678 282 678 244 z "},"A":{"ha":789,"x_min":32,"x_max":757,"o":"m 100 26 q 71 0 90 0 q 42 10 53 0 q 32 32 32 21 q 36 51 32 40 l 353 907 q 371 930 360 922 q 394 938 382 938 q 419 930 408 938 q 436 907 431 922 l 753 51 q 757 32 757 40 q 747 10 757 21 q 718 0 736 0 q 689 26 699 0 l 574 333 l 215 333 l 100 26 m 242 404 l 547 404 l 394 813 l 242 404 z "},"B":{"ha":801,"x_min":94,"x_max":760,"o":"m 760 250 q 745 159 760 204 q 701 78 731 114 q 628 22 672 43 q 524 0 583 0 l 128 0 q 94 36 94 0 l 94 903 q 128 938 94 938 l 497 938 q 611 917 563 938 q 692 863 660 897 q 740 783 724 829 q 756 685 756 736 q 721 552 756 601 q 633 472 686 503 q 723 395 686 447 q 760 250 760 343 m 686 685 q 675 755 686 722 q 640 812 664 788 q 581 851 617 836 q 496 865 546 865 l 164 865 l 164 507 l 540 507 q 594 521 568 507 q 641 559 621 535 q 674 615 661 583 q 686 685 686 647 m 690 250 q 679 323 690 289 q 647 382 668 357 q 594 421 626 407 q 521 435 563 435 l 164 435 l 164 72 l 521 72 q 597 88 565 72 q 650 129 629 104 q 681 186 671 154 q 690 250 690 218 z "},"C":{"ha":847,"x_min":69,"x_max":783,"o":"m 69 472 q 99 661 69 574 q 181 813 128 749 q 309 915 233 878 q 479 951 385 951 q 588 937 538 951 q 682 896 638 922 q 733 858 710 879 q 776 814 756 838 q 783 794 783 806 q 773 768 783 779 q 747 757 763 757 q 722 769 735 757 q 646 835 690 807 q 569 867 610 856 q 479 879 528 879 q 335 848 399 879 q 228 762 272 817 q 162 633 185 707 q 139 472 139 558 q 162 310 139 386 q 228 178 185 235 q 335 90 272 122 q 479 58 399 58 q 656 110 581 58 q 726 175 694 136 q 747 185 735 185 q 772 174 761 185 q 783 149 783 164 q 775 125 783 135 q 694 50 743 83 q 479 -14 603 -14 q 309 24 385 -14 q 181 128 233 63 q 99 283 128 194 q 69 472 69 371 z "},"D":{"ha":854,"x_min":94,"x_max":785,"o":"m 785 468 q 751 285 785 369 q 660 136 718 200 q 521 36 601 72 q 346 0 440 0 l 129 0 q 94 35 94 0 l 94 903 q 129 938 94 938 l 342 938 q 519 901 438 938 q 659 801 600 865 q 751 652 718 738 q 785 468 785 567 m 719 465 q 691 617 719 544 q 612 744 663 689 q 492 832 561 799 q 342 865 422 865 l 164 865 l 164 72 l 346 72 q 492 104 424 72 q 610 190 560 136 q 690 316 661 244 q 719 465 719 388 z "},"E":{"ha":646,"x_min":94,"x_max":581,"o":"m 581 36 q 547 0 581 0 l 129 0 q 94 35 94 0 l 94 903 q 129 938 94 938 l 547 938 q 581 903 581 938 q 547 865 581 865 l 164 865 l 164 503 l 461 503 q 496 467 496 503 q 461 432 496 432 l 164 432 l 164 72 l 547 72 q 581 36 581 72 z "},"F":{"ha":622,"x_min":94,"x_max":581,"o":"m 581 903 q 547 865 581 865 l 164 865 l 164 503 l 460 503 q 496 467 496 503 q 460 431 496 431 l 164 431 l 164 38 q 129 0 164 0 q 94 38 94 0 l 94 903 q 128 938 94 938 l 547 938 q 581 903 581 938 z "},"G":{"ha":981,"x_min":69,"x_max":914,"o":"m 879 503 q 914 467 914 503 q 883 281 914 368 q 797 128 853 194 q 664 24 742 63 q 493 -14 586 -14 q 321 24 399 -14 q 188 128 243 63 q 101 283 132 194 q 69 472 69 371 q 101 661 69 574 q 190 813 133 749 q 324 915 246 878 q 497 951 403 951 q 611 937 554 951 q 713 896 668 922 q 742 875 725 888 q 776 848 760 863 q 803 819 792 833 q 814 794 814 806 q 803 768 814 779 q 778 757 793 757 q 753 769 765 757 q 642 849 710 819 q 497 879 575 879 q 351 848 417 879 q 238 762 285 817 q 165 633 190 707 q 139 472 139 558 q 164 310 139 386 q 235 178 189 235 q 347 90 282 122 q 493 58 413 58 q 631 87 568 58 q 738 166 693 115 q 810 285 783 217 q 843 432 838 353 l 428 432 q 393 468 393 432 q 428 503 393 503 l 879 503 z "},"H":{"ha":790,"x_min":94,"x_max":696,"o":"m 696 38 q 661 0 696 0 q 626 38 626 0 l 626 432 l 164 432 l 164 38 q 131 0 164 0 q 94 38 94 0 l 94 899 q 131 938 94 938 q 164 899 164 938 l 164 503 l 626 503 l 626 899 q 661 938 626 938 q 696 899 696 938 l 696 38 z "},"I":{"ha":396,"x_min":83,"x_max":313,"o":"m 232 865 l 232 72 l 279 72 q 313 35 313 72 q 279 0 313 0 l 118 0 q 83 35 83 0 q 118 72 83 72 l 163 72 l 163 865 l 118 865 q 83 903 83 865 q 118 938 83 938 l 279 938 q 313 903 313 938 q 279 865 313 865 l 232 865 z "},"J":{"ha":728,"x_min":40,"x_max":644,"o":"m 644 328 q 620 190 644 253 q 553 82 596 128 q 451 11 510 36 q 324 -14 392 -14 q 231 1 276 -14 q 146 43 185 17 q 93 89 115 64 q 51 144 71 114 q 43 163 46 151 q 40 181 40 174 q 51 206 40 197 q 74 215 61 215 q 98 208 89 215 q 117 185 107 201 q 208 86 154 114 q 326 58 263 58 q 431 80 385 58 q 509 138 476 101 q 558 224 542 175 q 575 328 575 272 l 575 900 q 610 938 575 938 q 644 900 644 938 l 644 328 z "},"K":{"ha":710,"x_min":94,"x_max":658,"o":"m 164 38 q 131 0 164 0 q 94 38 94 0 l 94 899 q 131 938 94 938 q 164 899 164 938 l 164 539 l 597 929 q 619 938 607 938 q 644 925 633 938 q 656 899 656 913 q 642 874 656 888 l 193 479 l 643 65 q 658 36 658 53 q 647 11 658 22 q 622 0 635 0 q 599 10 608 0 l 164 417 l 164 38 z "},"L":{"ha":614,"x_min":94,"x_max":581,"o":"m 581 36 q 547 0 581 0 l 128 0 q 94 35 94 0 l 94 899 q 131 938 94 938 q 164 899 164 938 l 164 72 l 547 72 q 581 36 581 72 z "},"M":{"ha":1103,"x_min":94,"x_max":1008,"o":"m 551 100 l 928 908 q 969 938 942 938 q 1008 894 1008 938 l 1008 38 q 974 0 1008 0 q 939 38 939 0 l 939 772 l 593 31 q 551 0 579 0 q 510 31 524 0 l 164 772 l 164 38 q 129 0 164 0 q 94 38 94 0 l 94 894 q 133 938 94 938 q 175 908 160 938 l 551 100 z "},"N":{"ha":797,"x_min":94,"x_max":703,"o":"m 661 0 q 638 7 650 0 q 617 28 625 14 l 164 808 l 164 39 q 129 0 164 0 q 94 39 94 0 l 94 888 q 107 925 94 913 q 136 938 119 938 q 160 931 147 938 q 181 910 172 924 l 633 129 l 633 899 q 668 938 633 938 q 703 899 703 938 l 703 50 q 690 13 703 25 q 661 0 678 0 z "},"O":{"ha":958,"x_min":69,"x_max":889,"o":"m 69 472 q 99 661 69 574 q 181 813 128 749 q 309 915 233 878 q 479 951 385 951 q 649 915 572 951 q 778 813 725 878 q 860 661 831 749 q 889 472 889 574 q 860 283 889 371 q 778 128 831 194 q 649 24 725 63 q 479 -14 572 -14 q 309 24 385 -14 q 181 128 233 63 q 99 283 128 194 q 69 472 69 371 m 819 472 q 797 633 819 558 q 730 762 774 707 q 623 848 686 817 q 479 879 560 879 q 335 848 399 879 q 228 762 272 817 q 162 633 185 707 q 139 472 139 558 q 162 310 139 386 q 228 178 185 235 q 335 90 272 122 q 479 58 399 58 q 623 90 560 58 q 730 178 686 122 q 797 310 774 235 q 819 472 819 386 z "},"P":{"ha":781,"x_min":94,"x_max":746,"o":"m 746 688 q 730 588 746 635 q 683 506 714 540 q 608 451 653 471 q 503 431 563 431 l 164 431 l 164 38 q 129 0 164 0 q 94 38 94 0 l 94 903 q 129 938 94 938 l 507 938 q 610 918 565 938 q 684 865 654 899 q 730 786 714 832 q 746 688 746 740 m 676 685 q 630 815 676 764 q 507 865 583 865 l 164 865 l 164 503 l 503 503 q 630 554 583 503 q 676 685 676 606 z "},"Q":{"ha":972,"x_min":69,"x_max":924,"o":"m 69 472 q 99 661 69 574 q 184 813 129 749 q 315 915 239 878 q 486 951 392 951 q 656 915 579 951 q 788 813 733 878 q 873 661 843 749 q 903 472 903 574 q 880 305 903 383 q 814 163 857 226 l 914 60 q 924 35 924 49 q 914 10 924 21 q 890 -1 904 -1 q 864 13 876 -1 l 771 108 q 645 18 717 50 q 486 -14 574 -14 q 315 24 392 -14 q 184 128 239 63 q 99 283 129 194 q 69 472 69 371 m 764 214 q 815 332 797 267 q 833 472 833 397 q 809 633 833 558 q 740 762 785 707 q 631 848 696 817 q 486 879 567 879 q 341 848 406 879 q 232 762 276 817 q 163 633 188 707 q 139 472 139 558 q 163 310 139 386 q 232 178 188 235 q 341 90 276 122 q 486 58 406 58 q 619 85 560 58 q 722 158 678 111 l 626 258 q 615 283 615 269 q 625 308 615 297 q 650 318 635 318 q 676 306 665 318 l 764 214 z "},"R":{"ha":804,"x_min":94,"x_max":753,"o":"m 744 58 q 753 35 753 46 q 742 10 753 19 q 718 0 732 0 q 689 15 701 0 l 368 431 l 164 431 l 164 38 q 129 0 164 0 q 94 38 94 0 l 94 903 q 129 938 94 938 l 511 938 q 614 918 569 938 q 688 865 658 899 q 734 786 718 832 q 750 688 750 740 q 734 588 750 635 q 688 506 718 540 q 612 451 657 471 q 507 431 567 431 l 456 431 l 744 58 m 681 685 q 634 815 681 764 q 511 865 588 865 l 164 865 l 164 503 l 507 503 q 634 554 588 503 q 681 685 681 606 z "},"S":{"ha":617,"x_min":64,"x_max":556,"o":"m 313 -14 q 126 69 210 -14 q 96 107 108 86 q 74 147 83 128 q 64 190 64 167 q 74 215 64 206 q 97 225 85 225 q 128 201 119 225 q 151 153 139 174 q 179 117 164 132 q 239 76 207 89 q 303 63 271 63 q 382 77 347 63 q 440 115 417 92 q 474 171 463 139 q 486 239 486 203 q 474 314 486 276 q 438 379 461 351 q 396 417 422 396 q 339 460 369 438 q 279 503 308 482 q 229 540 250 524 q 138 640 165 593 q 110 746 110 688 q 125 825 110 788 q 168 891 140 863 q 233 935 196 919 q 314 951 269 951 q 420 923 374 951 q 490 853 467 894 q 503 828 497 842 q 508 801 508 814 q 499 778 508 786 q 478 769 489 769 q 461 775 469 769 q 447 793 453 781 q 433 817 440 806 q 418 838 426 829 q 315 879 376 879 q 216 840 251 879 q 181 749 181 801 q 203 670 181 706 q 269 600 225 635 q 319 563 289 585 q 383 518 350 542 q 444 471 415 494 q 490 426 474 447 q 556 236 556 350 q 539 141 556 186 q 490 61 522 96 q 413 6 458 26 q 313 -14 368 -14 z "},"T":{"ha":753,"x_min":33,"x_max":719,"o":"m 719 903 q 688 865 719 865 l 413 865 l 413 39 q 376 0 413 0 q 343 39 343 0 l 343 865 l 67 865 q 33 903 33 865 q 67 938 33 938 l 688 938 q 719 903 719 938 z "},"U":{"ha":808,"x_min":83,"x_max":725,"o":"m 404 58 q 508 77 461 58 q 587 131 554 96 q 638 215 619 167 q 656 325 656 264 l 656 899 q 692 938 656 938 q 725 899 725 938 l 725 325 q 702 186 725 249 q 637 79 679 124 q 535 10 594 35 q 404 -14 476 -14 q 273 10 332 -14 q 172 79 214 35 q 106 186 129 124 q 83 325 83 249 l 83 899 q 117 938 83 938 q 153 899 153 938 l 153 325 q 171 215 153 264 q 222 131 189 167 q 301 77 254 96 q 404 58 347 58 z "},"V":{"ha":789,"x_min":32,"x_max":757,"o":"m 689 911 q 718 938 699 938 q 747 927 736 938 q 757 906 757 917 q 753 886 757 896 l 436 31 q 418 8 429 15 q 394 0 407 0 q 369 8 381 0 q 353 31 358 15 l 36 886 q 32 906 32 896 q 42 927 32 917 q 71 938 53 938 q 100 911 90 938 l 394 125 l 689 911 z "},"W":{"ha":1447,"x_min":32,"x_max":1415,"o":"m 1347 911 q 1376 938 1357 938 q 1405 927 1394 938 q 1415 906 1415 917 q 1411 886 1415 896 l 1094 31 q 1076 8 1088 15 q 1053 0 1065 0 q 1028 8 1039 0 q 1011 31 1017 15 l 724 807 l 436 31 q 418 8 429 15 q 394 0 407 0 q 369 8 381 0 q 353 31 358 15 l 36 886 q 32 906 32 896 q 42 927 32 917 q 71 938 53 938 q 100 911 90 938 l 394 125 l 689 911 q 702 931 694 925 q 725 938 710 938 q 746 931 739 938 q 758 911 753 924 l 1053 125 l 1347 911 z "},"X":{"ha":776,"x_min":39,"x_max":738,"o":"m 67 881 q 58 904 58 893 q 69 928 58 918 q 93 938 79 938 q 124 921 111 938 l 392 539 l 660 921 q 690 938 671 938 q 715 928 704 938 q 725 904 725 918 q 717 881 725 893 l 435 478 l 729 57 q 738 35 738 44 q 726 10 738 19 q 701 0 715 0 q 672 17 683 0 l 388 422 l 104 17 q 75 0 93 0 q 49 10 60 0 q 39 35 39 19 q 47 57 39 44 l 344 483 l 67 881 z "},"Y":{"ha":742,"x_min":32,"x_max":710,"o":"m 371 0 q 336 38 336 0 l 336 454 l 40 881 q 32 904 32 893 q 42 928 32 919 q 67 938 53 938 q 96 921 83 938 l 371 532 l 646 921 q 675 938 658 938 q 699 928 689 938 q 710 904 710 919 q 701 881 710 893 l 406 454 l 406 38 q 371 0 406 0 z "},"Z":{"ha":726,"x_min":49,"x_max":678,"o":"m 150 72 l 644 72 q 678 36 678 72 q 644 0 678 0 l 106 0 q 72 11 83 0 q 61 40 61 22 q 75 81 61 57 l 574 865 l 83 865 q 49 901 49 865 q 83 938 49 938 l 619 938 q 653 924 643 938 q 664 892 664 910 q 654 857 664 871 l 150 72 z "},"[":{"ha":417,"x_min":156,"x_max":378,"o":"m 225 951 l 225 -46 l 344 -46 q 378 -83 378 -46 q 344 -118 378 -118 l 190 -118 q 156 -83 156 -118 l 156 989 q 190 1024 156 1024 l 344 1024 q 378 989 378 1024 q 344 951 378 951 l 225 951 z "},"\\":{"ha":596,"x_min":11,"x_max":585,"o":"m 18 881 q 11 906 11 893 q 22 927 11 917 q 47 938 32 938 q 78 917 65 938 l 578 57 q 585 35 585 46 q 574 12 585 24 q 547 0 563 0 q 518 21 531 0 l 18 881 z "},"^":{"ha":747,"x_min":94,"x_max":653,"o":"m 163 442 q 128 417 149 417 q 105 426 115 417 q 94 450 94 435 q 99 467 94 458 l 332 908 q 372 938 346 938 q 415 908 400 938 l 649 467 q 653 449 653 456 q 642 425 653 433 q 619 417 632 417 q 585 442 597 417 l 374 851 l 163 442 z "},"_":{"ha":535,"x_min":-36,"x_max":571,"o":"m 536 -94 q 571 -131 571 -94 q 536 -165 571 -165 l -1 -165 q -36 -129 -36 -165 q -1 -94 -36 -94 l 536 -94 z "},"`":{"ha":378,"x_min":94,"x_max":283,"o":"m 275 632 q 283 610 283 621 q 272 584 283 594 q 246 574 260 574 q 219 588 229 574 l 103 738 q 94 758 94 747 q 106 785 94 774 q 133 796 118 796 q 160 782 150 796 l 275 632 z "},"a":{"ha":613,"x_min":63,"x_max":518,"o":"m 449 492 q 482 531 449 531 q 518 492 518 531 l 518 38 q 482 0 518 0 q 449 38 449 0 l 449 69 q 381 8 421 29 q 290 -14 340 -14 q 201 7 242 -14 q 128 65 160 28 q 80 153 97 103 q 63 265 63 204 q 80 376 63 325 q 128 465 97 428 q 201 524 160 503 q 290 544 242 544 q 381 522 340 544 q 449 460 421 500 l 449 492 m 132 265 q 178 113 132 167 q 290 58 224 58 q 403 113 357 58 q 449 265 449 167 l 449 275 q 401 420 446 368 q 290 472 357 472 q 178 418 224 472 q 132 265 132 364 z "},"b":{"ha":613,"x_min":94,"x_max":550,"o":"m 164 460 q 232 522 192 500 q 322 544 272 544 q 411 524 369 544 q 484 465 453 503 q 533 376 515 428 q 550 265 550 325 q 533 153 550 204 q 484 65 515 103 q 411 7 453 28 q 322 -14 369 -14 q 232 8 272 -14 q 164 69 192 29 l 164 38 q 131 0 164 0 q 94 38 94 0 l 94 899 q 131 938 94 938 q 164 899 164 938 l 164 460 m 481 265 q 435 418 481 364 q 322 472 389 472 q 211 420 256 472 q 164 275 167 368 l 164 265 q 210 113 164 167 q 322 58 256 58 q 435 113 389 58 q 481 265 481 167 z "},"c":{"ha":540,"x_min":63,"x_max":485,"o":"m 63 265 q 80 376 63 325 q 128 465 97 428 q 201 524 160 503 q 290 544 242 544 q 362 533 326 544 q 425 497 397 521 q 456 467 439 486 q 472 425 472 447 q 462 399 472 410 q 438 388 451 388 q 411 404 421 388 q 364 456 392 439 q 290 472 336 472 q 178 418 224 472 q 132 265 132 364 q 178 113 132 167 q 290 58 224 58 q 417 131 383 58 q 433 152 424 146 q 451 158 442 158 q 475 149 465 158 q 485 124 485 139 q 467 83 485 104 q 435 46 450 61 q 369 2 406 18 q 290 -14 332 -14 q 201 7 242 -14 q 128 65 160 28 q 80 153 97 103 q 63 265 63 204 z "},"d":{"ha":613,"x_min":63,"x_max":518,"o":"m 449 899 q 482 938 449 938 q 518 899 518 938 l 518 38 q 482 0 518 0 q 449 38 449 0 l 449 69 q 381 8 421 29 q 290 -14 340 -14 q 201 7 242 -14 q 128 65 160 28 q 80 153 97 103 q 63 265 63 204 q 80 376 63 325 q 128 465 97 428 q 201 524 160 503 q 290 544 242 544 q 381 522 340 544 q 449 460 421 500 l 449 899 m 132 265 q 178 113 132 167 q 290 58 224 58 q 403 113 357 58 q 449 265 449 167 l 449 275 q 401 420 446 368 q 290 472 357 472 q 178 418 224 472 q 132 265 132 364 z "},"e":{"ha":565,"x_min":63,"x_max":514,"o":"m 290 544 q 417 501 361 544 q 499 382 472 457 q 508 352 503 371 q 514 315 514 333 q 507 289 514 300 q 481 278 500 278 l 132 278 l 132 265 q 178 113 132 167 q 290 58 224 58 q 417 131 383 58 q 433 152 424 146 q 451 158 442 158 q 475 149 465 158 q 485 124 485 139 q 467 83 485 104 q 435 46 450 61 q 369 2 406 18 q 290 -14 332 -14 q 201 7 242 -14 q 128 65 160 28 q 80 153 97 103 q 63 265 63 204 q 77 362 63 313 q 120 451 92 411 q 191 518 149 492 q 290 544 233 544 m 290 472 q 196 437 232 472 q 144 350 160 401 l 436 350 q 379 440 418 408 q 290 472 340 472 z "},"f":{"ha":524,"x_min":28,"x_max":506,"o":"m 149 531 l 149 731 q 195 893 149 835 q 332 951 242 951 q 454 903 406 951 q 491 843 476 881 q 506 783 506 806 q 497 758 506 767 q 476 749 489 749 q 444 776 451 749 q 433 817 439 799 q 415 850 426 836 q 383 872 403 864 q 332 879 363 879 q 218 731 218 879 l 218 531 l 333 531 q 368 494 368 531 q 333 460 368 460 l 218 460 l 218 36 q 183 0 218 0 q 149 36 149 0 l 149 460 l 63 460 q 28 496 28 460 q 63 531 28 531 l 149 531 z "},"g":{"ha":613,"x_min":63,"x_max":518,"o":"m 449 71 q 381 8 421 31 q 290 -14 340 -14 q 201 7 242 -14 q 128 65 160 28 q 80 153 97 103 q 63 265 63 204 q 80 376 63 325 q 128 465 97 428 q 201 524 160 503 q 290 544 242 544 q 381 523 340 544 q 449 461 421 501 l 449 493 q 482 531 449 531 q 518 493 518 531 l 518 -142 q 501 -253 518 -203 q 452 -342 483 -304 q 379 -400 421 -379 q 290 -421 338 -421 q 212 -405 249 -421 q 146 -361 175 -389 q 113 -324 131 -346 q 96 -283 96 -303 q 106 -258 96 -268 q 129 -249 115 -249 q 148 -255 139 -249 q 164 -276 157 -261 q 290 -349 197 -349 q 403 -294 357 -349 q 449 -142 449 -240 l 449 71 m 132 265 q 178 113 132 167 q 290 58 224 58 q 401 110 357 58 q 449 256 446 163 l 449 265 q 403 418 449 364 q 290 472 357 472 q 178 418 224 472 q 132 265 132 364 z "},"h":{"ha":599,"x_min":94,"x_max":515,"o":"m 515 35 q 479 0 515 0 q 446 35 446 0 l 446 317 q 414 432 446 392 q 310 472 382 472 q 203 427 242 472 q 164 317 164 382 l 164 35 q 128 0 164 0 q 94 35 94 0 l 94 903 q 128 938 94 938 q 164 903 164 938 l 164 463 q 228 526 190 507 q 318 544 267 544 q 467 486 418 544 q 515 317 515 428 l 515 35 z "},"i":{"ha":303,"x_min":94,"x_max":208,"o":"m 186 38 q 151 0 186 0 q 117 38 117 0 l 117 494 q 151 531 117 531 q 186 494 186 531 l 186 38 m 94 717 q 111 761 94 743 q 151 779 128 779 q 192 761 175 779 q 208 717 208 743 q 192 672 208 690 q 151 654 175 654 q 111 672 128 654 q 94 717 94 690 z "},"j":{"ha":357,"x_min":-117,"x_max":263,"o":"m 240 -200 q 194 -362 240 -304 q 57 -421 147 -421 q -65 -372 -17 -421 q -102 -312 -87 -350 q -117 -253 -117 -275 q -108 -227 -117 -236 q -87 -218 -100 -218 q -56 -246 -62 -218 q -44 -287 -50 -268 q -26 -319 -37 -306 q 6 -341 -14 -333 q 57 -349 25 -349 q 171 -200 171 -349 l 171 494 q 206 531 171 531 q 240 494 240 531 l 240 -200 m 149 717 q 165 761 149 743 q 206 779 182 779 q 246 761 229 779 q 263 717 263 743 q 246 672 263 690 q 206 654 229 654 q 165 672 182 654 q 149 717 149 690 z "},"k":{"ha":524,"x_min":94,"x_max":485,"o":"m 469 65 q 485 38 485 54 q 474 12 485 22 q 449 1 464 1 q 426 8 435 1 l 164 207 l 164 35 q 131 0 164 0 q 94 35 94 0 l 94 903 q 131 938 94 938 q 164 903 164 938 l 164 322 l 422 522 q 443 531 432 531 q 469 519 458 531 q 479 492 479 507 q 465 465 479 475 l 193 265 l 469 65 z "},"l":{"ha":258,"x_min":94,"x_max":164,"o":"m 164 38 q 131 0 164 0 q 94 38 94 0 l 94 899 q 131 938 94 938 q 164 899 164 938 l 164 38 z "},"m":{"ha":950,"x_min":94,"x_max":867,"o":"m 515 35 q 479 0 515 0 q 446 35 446 0 l 446 317 q 414 432 446 392 q 310 472 382 472 q 203 427 242 472 q 164 317 164 382 l 164 35 q 128 0 164 0 q 94 35 94 0 l 94 496 q 128 531 94 531 q 164 496 164 531 l 164 463 q 228 526 190 507 q 318 544 267 544 q 431 517 388 544 q 493 443 474 489 q 568 521 518 497 q 669 544 618 544 q 818 486 769 544 q 867 317 867 428 l 867 35 q 831 0 867 0 q 797 35 797 0 l 797 317 q 765 432 797 392 q 661 472 733 472 q 602 460 629 472 q 556 426 575 447 q 526 376 536 404 q 515 317 515 347 l 515 35 z "},"n":{"ha":599,"x_min":94,"x_max":515,"o":"m 515 35 q 479 0 515 0 q 446 35 446 0 l 446 317 q 414 432 446 392 q 310 472 382 472 q 203 427 242 472 q 164 317 164 382 l 164 35 q 128 0 164 0 q 94 35 94 0 l 94 496 q 128 531 94 531 q 164 496 164 531 l 164 463 q 228 526 190 507 q 318 544 267 544 q 467 486 418 544 q 515 317 515 428 l 515 35 z "},"o":{"ha":581,"x_min":63,"x_max":518,"o":"m 63 265 q 80 376 63 325 q 128 465 97 428 q 201 524 160 503 q 290 544 242 544 q 379 524 338 544 q 452 465 421 503 q 501 376 483 428 q 518 265 518 325 q 501 153 518 204 q 452 65 483 103 q 379 7 421 28 q 290 -14 338 -14 q 201 7 242 -14 q 128 65 160 28 q 80 153 97 103 q 63 265 63 204 m 449 265 q 403 418 449 364 q 290 472 357 472 q 178 418 224 472 q 132 265 132 364 q 178 113 132 167 q 290 58 224 58 q 403 113 357 58 q 449 265 449 167 z "},"p":{"ha":613,"x_min":94,"x_max":550,"o":"m 164 -368 q 131 -407 164 -407 q 94 -368 94 -407 l 94 493 q 131 531 94 531 q 164 493 164 531 l 164 461 q 232 523 192 501 q 322 544 272 544 q 411 524 369 544 q 484 465 453 503 q 533 376 515 428 q 550 265 550 325 q 533 153 550 204 q 484 65 515 103 q 411 7 453 28 q 322 -14 369 -14 q 232 8 272 -14 q 164 71 192 31 l 164 -368 m 481 265 q 435 418 481 364 q 322 472 389 472 q 210 418 256 472 q 164 265 164 364 l 164 256 q 211 110 167 163 q 322 58 256 58 q 435 113 389 58 q 481 265 481 167 z "},"q":{"ha":613,"x_min":63,"x_max":806,"o":"m 806 -253 q 791 -312 806 -275 q 754 -372 776 -350 q 699 -408 731 -396 q 632 -421 668 -421 q 495 -362 542 -421 q 449 -200 449 -304 l 449 71 q 381 8 421 31 q 290 -14 340 -14 q 201 7 242 -14 q 128 65 160 28 q 80 153 97 103 q 63 265 63 204 q 80 376 63 325 q 128 465 97 428 q 201 524 160 503 q 290 544 242 544 q 381 523 340 544 q 449 461 421 501 l 449 493 q 482 531 449 531 q 518 493 518 531 l 518 -200 q 632 -349 518 -349 q 683 -341 663 -349 q 715 -319 703 -333 q 733 -287 726 -306 q 744 -246 739 -268 q 776 -218 751 -218 q 797 -227 789 -218 q 806 -253 806 -236 m 132 265 q 178 113 132 167 q 290 58 224 58 q 401 110 357 58 q 449 256 446 163 l 449 265 q 403 418 449 364 q 290 472 357 472 q 178 418 224 472 q 132 265 132 364 z "},"r":{"ha":492,"x_min":94,"x_max":456,"o":"m 393 404 q 356 457 376 442 q 293 472 336 472 q 241 459 263 472 q 205 425 219 446 q 181 378 190 404 q 164 325 171 351 l 164 42 q 129 0 164 0 q 94 40 97 0 l 94 497 q 129 535 94 535 q 164 497 164 535 l 164 451 q 217 520 185 496 q 304 544 250 544 q 419 494 374 544 q 445 457 435 478 q 456 417 456 436 q 447 391 456 400 q 425 382 438 382 q 393 404 403 382 z "},"s":{"ha":500,"x_min":64,"x_max":442,"o":"m 442 153 q 429 89 442 119 q 394 35 417 58 q 338 -1 371 13 q 264 -14 306 -14 q 190 -3 225 -14 q 128 31 156 7 q 78 92 93 60 q 64 154 64 124 q 97 189 64 189 q 136 154 131 189 q 175 84 144 110 q 264 58 206 58 q 347 83 322 58 q 372 150 372 108 q 357 197 372 179 q 314 225 342 214 q 244 248 285 236 q 176 272 204 260 q 94 403 94 308 q 139 505 94 465 q 269 544 183 544 q 355 526 321 544 q 404 490 389 508 q 419 467 415 478 q 424 446 424 457 q 413 421 424 431 q 389 411 403 411 q 353 431 367 411 q 319 463 339 453 q 258 472 299 472 q 164 403 164 472 q 174 358 164 375 q 214 329 183 340 q 284 308 246 318 q 347 286 322 297 q 442 153 442 243 z "},"t":{"ha":431,"x_min":28,"x_max":403,"o":"m 403 494 q 368 460 403 460 l 246 460 l 246 39 q 210 0 246 0 q 176 39 176 0 l 176 460 l 63 460 q 28 494 28 460 q 63 531 28 531 l 176 531 l 176 685 q 210 719 176 719 q 246 685 246 719 l 246 531 l 368 531 q 403 494 403 531 z "},"u":{"ha":599,"x_min":83,"x_max":504,"o":"m 83 496 q 119 531 83 531 q 153 496 153 531 l 153 214 q 185 99 153 139 q 289 58 217 58 q 396 103 357 58 q 435 214 435 149 l 435 496 q 471 531 435 531 q 504 496 504 531 l 504 35 q 471 0 504 0 q 435 35 435 0 l 435 68 q 370 5 408 24 q 281 -14 332 -14 q 132 44 181 -14 q 83 214 83 103 l 83 496 z "},"v":{"ha":553,"x_min":32,"x_max":521,"o":"m 276 0 q 253 7 265 0 q 235 31 242 14 l 36 478 q 32 497 32 488 q 43 522 32 513 q 67 531 54 531 q 97 510 86 531 l 276 97 l 456 510 q 486 531 465 531 q 510 522 499 531 q 521 497 521 513 q 517 478 521 488 l 318 31 q 299 7 311 14 q 276 0 288 0 z "},"w":{"ha":972,"x_min":32,"x_max":940,"o":"m 276 0 q 253 7 265 0 q 235 31 242 14 l 36 478 q 32 497 32 488 q 43 522 32 513 q 67 531 54 531 q 97 510 86 531 l 276 97 l 456 510 q 486 531 465 531 q 517 510 506 531 l 696 97 l 875 510 q 906 531 885 531 q 929 522 918 531 q 940 497 940 513 q 936 478 940 488 l 738 31 q 719 7 731 14 q 696 0 707 0 q 673 7 685 0 q 654 31 661 14 l 486 408 l 318 31 q 299 7 311 14 q 276 0 288 0 z "},"x":{"ha":571,"x_min":39,"x_max":532,"o":"m 290 315 l 471 517 q 497 531 483 531 q 522 519 513 531 q 532 492 532 507 q 521 465 532 476 l 338 264 l 521 61 q 532 35 532 47 q 522 10 532 19 q 497 0 511 0 q 471 13 482 0 l 285 215 l 100 13 q 74 0 89 0 q 49 10 60 0 q 39 35 39 19 q 50 61 39 50 l 238 268 l 58 465 q 47 492 47 476 q 57 519 47 507 q 82 531 67 531 q 108 517 96 531 l 290 315 z "},"y":{"ha":543,"x_min":32,"x_max":511,"o":"m 106 -387 q 78 -407 96 -407 q 55 -397 65 -407 q 44 -372 44 -387 q 49 -353 44 -364 l 239 61 l 36 479 q 32 497 32 488 q 43 522 32 513 q 67 531 54 531 q 97 511 88 531 l 279 139 l 450 514 q 476 531 458 531 q 500 522 489 531 q 511 499 511 513 q 508 488 511 496 l 106 -387 z "},"z":{"ha":590,"x_min":54,"x_max":536,"o":"m 163 72 l 503 72 q 536 36 536 72 q 503 0 536 0 l 111 0 q 78 13 90 0 q 65 43 65 25 q 81 81 65 64 l 425 458 l 89 458 q 54 494 54 458 q 89 531 54 531 l 478 531 q 513 517 501 531 q 525 485 525 503 q 513 450 525 464 l 163 72 z "},"{":{"ha":417,"x_min":128,"x_max":367,"o":"m 329 -107 q 232 -65 264 -107 q 200 50 200 -22 q 211 176 200 110 q 222 306 222 243 q 221 342 222 322 q 213 380 219 363 q 196 408 207 397 q 164 419 185 419 q 138 428 149 419 q 128 453 128 438 q 138 477 128 468 q 164 486 149 486 q 196 497 185 486 q 213 526 207 508 q 221 563 219 543 q 222 600 222 583 q 211 729 222 663 q 200 856 200 796 q 232 970 200 928 q 329 1013 264 1013 q 358 1001 349 1013 q 367 976 367 990 q 358 953 367 964 q 335 943 350 943 q 281 917 294 943 q 268 847 268 892 q 272 794 268 824 q 280 732 275 765 q 288 663 285 699 q 292 592 292 626 q 280 513 292 549 q 240 453 268 476 q 280 393 268 429 q 292 314 292 357 q 288 242 292 278 q 280 174 285 207 q 272 111 275 140 q 268 58 268 82 q 281 -12 268 14 q 335 -37 294 -37 q 358 -48 350 -37 q 367 -71 367 -58 q 358 -96 367 -85 q 329 -107 349 -107 z "},"|":{"ha":507,"x_min":218,"x_max":288,"o":"m 288 -240 q 254 -278 288 -278 q 218 -240 218 -278 l 218 1038 q 254 1076 218 1076 q 288 1038 288 1076 l 288 -240 z "},"~":{"ha":713,"x_min":94,"x_max":618,"o":"m 549 542 q 560 570 549 561 q 585 579 571 579 q 608 571 597 579 q 618 544 618 563 q 576 415 618 458 q 476 371 535 371 q 401 395 432 371 q 344 449 371 419 q 293 503 318 479 q 238 528 268 528 q 181 499 197 528 q 164 424 164 471 q 153 395 164 404 q 128 386 142 386 q 105 394 115 386 q 94 421 94 403 q 136 551 94 507 q 236 594 178 594 q 311 570 281 594 q 368 516 342 546 q 419 462 394 486 q 475 438 443 438 q 532 466 515 438 q 549 542 549 494 z "}," ":{"ha":336,"x_min":0,"x_max":0,"o":""},"¡":{"ha":321,"x_min":94,"x_max":226,"o":"m 126 400 q 161 436 126 436 q 196 400 196 436 l 196 -201 q 161 -242 196 -242 q 126 -201 126 -242 l 126 400 m 226 629 q 208 578 226 599 q 161 557 189 557 q 114 578 133 557 q 94 629 94 599 q 114 681 94 660 q 161 701 133 701 q 208 681 189 701 q 226 629 226 660 z "},"¢":{"ha":535,"x_min":63,"x_max":485,"o":"m 319 33 q 290 0 319 0 q 260 33 260 0 l 260 189 q 181 219 217 196 q 118 278 144 242 q 77 363 92 315 q 63 467 63 411 q 77 569 63 522 q 118 653 92 617 q 181 713 144 690 q 260 743 217 736 l 260 904 q 290 938 260 938 q 319 904 319 938 l 319 743 q 425 699 381 735 q 456 668 439 688 q 472 626 472 649 q 462 600 472 611 q 438 589 451 589 q 411 606 421 589 q 373 650 394 633 q 319 671 351 667 l 319 261 q 417 332 388 271 q 433 353 424 347 q 451 360 442 360 q 475 350 465 360 q 485 325 485 340 q 467 284 485 306 q 435 247 450 263 q 319 189 385 200 l 319 33 m 132 467 q 168 326 132 379 q 260 263 204 274 l 260 671 q 168 607 204 660 q 132 467 132 554 z "},"£":{"ha":801,"x_min":42,"x_max":772,"o":"m 218 479 q 176 572 194 525 q 157 668 157 618 q 158 722 157 699 q 165 765 160 746 q 178 803 169 785 q 203 843 188 822 q 307 925 243 899 q 440 951 371 951 q 577 922 513 951 q 681 831 642 893 q 713 756 704 794 q 722 676 722 718 q 711 648 722 657 q 688 639 700 639 q 664 647 675 639 q 653 674 653 656 q 642 753 653 715 q 600 819 631 790 q 524 865 568 851 q 433 879 481 879 q 323 856 375 879 q 246 779 271 832 q 231 735 235 757 q 226 690 226 713 q 247 581 226 632 q 294 479 268 531 l 572 479 q 607 443 607 479 q 572 408 607 408 l 331 408 q 361 329 349 369 q 374 244 374 289 q 361 168 374 207 q 391 141 376 154 q 424 117 406 128 q 499 79 460 93 q 575 65 539 65 q 655 85 628 65 q 707 150 682 106 q 723 166 714 161 q 740 171 732 171 q 763 162 753 171 q 772 138 772 153 q 768 119 772 129 q 685 23 738 53 q 574 -7 633 -7 q 439 25 494 -7 q 332 103 383 57 q 306 62 321 82 q 271 25 290 42 q 228 -2 251 8 q 179 -12 204 -12 q 76 30 110 -12 q 42 135 42 72 q 52 189 42 164 q 81 233 63 214 q 123 263 99 251 q 175 274 147 274 q 224 266 199 274 q 268 247 249 258 q 287 235 278 242 q 304 222 296 229 q 306 235 306 229 q 306 247 306 240 q 291 328 306 288 q 256 408 276 368 l 146 408 q 111 444 111 408 q 146 479 111 479 l 218 479 m 179 61 q 237 89 214 61 q 281 153 260 117 q 231 188 257 174 q 179 201 206 201 q 132 185 153 201 q 111 139 111 168 q 131 78 111 94 q 179 61 150 61 z "},"¤":{"ha":839,"x_min":94,"x_max":744,"o":"m 225 468 q 240 392 225 428 q 282 331 256 357 q 344 289 308 304 q 419 274 379 274 q 495 289 460 274 q 557 331 531 304 q 599 392 583 357 q 614 468 614 428 q 599 544 614 508 q 557 606 583 579 q 495 647 531 632 q 419 663 460 663 q 344 647 379 663 q 282 606 308 632 q 240 544 256 579 q 225 468 225 508 m 258 676 q 333 717 292 703 q 419 732 374 732 q 505 717 464 732 q 579 676 546 703 l 682 779 q 706 790 693 790 q 732 779 721 790 q 743 753 743 768 q 732 729 743 740 l 629 626 q 669 553 654 593 q 683 468 683 513 q 669 381 683 422 q 628 307 654 340 l 733 203 q 744 178 744 189 q 733 153 744 164 q 707 142 722 142 q 683 153 694 142 l 578 257 q 504 218 544 232 q 419 204 464 204 q 335 218 375 204 q 261 257 294 232 l 156 151 q 131 140 144 140 q 106 151 117 140 q 94 178 94 163 q 106 201 94 190 l 210 307 q 156 468 156 376 q 169 553 156 513 q 208 626 183 593 l 107 729 q 96 753 96 739 q 107 779 96 768 q 133 790 118 790 q 157 779 146 790 l 258 676 z "},"¥":{"ha":742,"x_min":32,"x_max":710,"o":"m 371 0 q 336 38 336 0 l 336 210 l 101 210 q 67 246 67 210 q 101 281 67 281 l 336 281 l 336 390 l 101 390 q 67 426 67 390 q 101 461 67 461 l 331 461 l 40 881 q 32 904 32 893 q 42 928 32 919 q 67 938 53 938 q 96 921 83 938 l 371 532 l 646 921 q 675 938 658 938 q 699 928 689 938 q 710 904 710 919 q 701 881 710 893 l 410 461 l 639 461 q 674 425 674 461 q 639 390 674 390 l 406 390 l 406 281 l 639 281 q 674 244 674 281 q 639 210 674 210 l 406 210 l 406 38 q 371 0 406 0 z "},"¦":{"ha":507,"x_min":218,"x_max":288,"o":"m 288 524 q 254 486 288 486 q 218 524 218 486 l 218 1038 q 254 1076 218 1076 q 288 1038 288 1076 l 288 524 m 288 -240 q 254 -278 288 -278 q 218 -240 218 -278 l 218 274 q 254 313 218 313 q 288 274 288 313 l 288 -240 z "},"§":{"ha":599,"x_min":28,"x_max":529,"o":"m 276 -421 q 90 -337 174 -421 q 60 -300 72 -321 q 38 -260 47 -279 q 28 -217 28 -240 q 38 -192 28 -201 q 61 -182 49 -182 q 92 -206 83 -182 q 115 -254 103 -233 q 143 -290 128 -275 q 203 -331 171 -318 q 267 -344 235 -344 q 346 -330 311 -344 q 403 -292 381 -315 q 438 -236 426 -268 q 450 -168 450 -204 q 438 -93 450 -131 q 401 -28 425 -56 q 360 10 386 -11 q 303 53 333 31 q 243 96 272 75 q 193 133 214 117 q 101 233 129 186 q 74 339 74 281 q 111 459 74 406 q 211 533 149 513 q 203 540 208 535 q 111 640 139 593 q 83 746 83 688 q 99 825 83 788 q 142 891 114 863 q 206 935 169 919 q 288 951 243 951 q 394 923 347 951 q 464 853 440 894 q 476 828 471 842 q 482 801 482 814 q 472 778 482 786 q 451 769 463 769 q 435 775 443 769 q 421 793 426 781 q 407 817 414 806 q 392 838 400 829 q 289 879 350 879 q 190 840 225 879 q 154 749 154 801 q 176 670 154 706 q 243 600 199 635 q 293 563 263 585 q 356 518 324 542 q 418 471 389 494 q 464 426 447 447 q 529 236 529 350 q 506 124 529 175 q 438 36 482 72 q 447 28 443 32 q 454 19 450 24 q 519 -171 519 -57 q 503 -266 519 -221 q 454 -346 486 -311 q 377 -401 422 -381 q 276 -421 332 -421 m 144 342 q 167 263 144 299 q 233 193 189 228 q 303 142 260 172 q 386 81 346 113 q 442 149 424 107 q 460 239 460 192 q 447 314 460 276 q 411 379 435 351 q 356 427 392 400 q 282 482 319 454 q 178 433 211 474 q 144 342 144 392 z "},"¨":{"ha":543,"x_min":94,"x_max":449,"o":"m 331 690 q 348 737 331 718 q 389 756 365 756 q 431 737 413 756 q 449 690 449 718 q 431 644 449 663 q 389 625 413 625 q 348 644 365 625 q 331 690 331 663 m 94 690 q 112 737 94 718 q 153 756 129 756 q 194 737 176 756 q 213 690 213 718 q 194 644 213 663 q 153 625 176 625 q 112 644 129 625 q 94 690 94 663 z "},"©":{"ha":1047,"x_min":69,"x_max":978,"o":"m 69 472 q 99 661 69 574 q 185 813 128 749 q 327 915 242 878 q 524 951 413 951 q 719 915 635 951 q 862 813 804 878 q 949 661 919 749 q 978 472 978 574 q 949 283 978 371 q 862 128 919 194 q 719 24 804 63 q 524 -14 635 -14 q 327 24 413 -14 q 185 128 242 63 q 99 283 128 194 q 69 472 69 371 m 908 472 q 883 633 908 558 q 809 762 858 707 q 688 848 760 817 q 524 879 617 879 q 359 848 431 879 q 238 762 288 817 q 164 633 189 707 q 139 472 139 558 q 164 310 139 386 q 238 178 189 235 q 359 90 288 122 q 524 58 431 58 q 688 90 617 58 q 809 178 760 122 q 883 310 858 235 q 908 472 908 386 m 294 469 q 312 581 294 529 q 360 669 329 632 q 433 728 392 707 q 522 749 474 749 q 594 737 558 749 q 657 701 629 725 q 688 671 671 690 q 704 629 704 651 q 694 603 704 614 q 669 592 683 592 q 643 608 653 592 q 596 660 624 643 q 522 676 568 676 q 410 622 456 676 q 364 469 364 568 q 410 317 364 371 q 522 263 456 263 q 649 335 615 263 q 665 356 656 350 q 683 363 674 363 q 707 353 697 363 q 717 328 717 343 q 699 287 717 308 q 667 250 682 265 q 601 206 638 222 q 522 190 564 190 q 433 211 474 190 q 360 269 392 232 q 312 358 329 307 q 294 469 294 408 z "},"ª":{"ha":379,"x_min":49,"x_max":310,"o":"m 179 853 q 257 819 224 853 q 283 844 258 844 q 310 815 310 844 l 310 571 q 283 542 310 542 q 257 567 258 542 q 179 533 224 533 q 86 578 124 533 q 49 693 49 624 q 86 808 49 763 q 179 853 124 853 m 101 693 q 124 617 101 644 q 179 589 147 589 q 234 617 211 589 q 257 693 257 644 l 257 699 q 233 771 256 744 q 179 797 211 797 q 124 769 147 797 q 101 693 101 742 z "},"«":{"ha":508,"x_min":32,"x_max":476,"o":"m 32 0 m 257 56 q 264 33 264 42 q 253 9 264 18 q 229 0 243 0 q 199 19 210 0 l 39 279 q 32 299 32 290 q 39 318 32 307 l 199 578 q 229 596 211 596 q 253 587 243 596 q 264 563 264 578 q 257 542 264 553 l 108 299 l 257 56 m 469 56 q 476 33 476 42 q 466 9 476 18 q 442 0 456 0 q 411 19 422 0 l 251 279 q 244 299 244 290 q 251 318 244 307 l 411 578 q 442 596 424 596 q 466 587 456 596 q 476 563 476 578 q 469 542 476 553 l 321 299 l 469 56 z "},"¬":{"ha":675,"x_min":94,"x_max":581,"o":"m 94 485 q 128 521 94 521 l 547 521 q 581 486 581 521 l 581 178 q 544 139 581 139 q 511 178 511 139 l 511 449 l 128 449 q 94 485 94 449 z "},"­":{"ha":449,"x_min":32,"x_max":417,"o":"m 32 432 m 382 503 q 417 467 417 503 q 382 432 417 432 l 67 432 q 32 468 32 432 q 67 503 32 503 l 382 503 z "},"®":{"ha":1047,"x_min":69,"x_max":978,"o":"m 69 472 q 99 661 69 574 q 185 813 128 749 q 327 915 242 878 q 524 951 413 951 q 719 915 635 951 q 862 813 804 878 q 949 661 919 749 q 978 472 978 574 q 949 283 978 371 q 862 128 919 194 q 719 24 804 63 q 524 -14 635 -14 q 327 24 413 -14 q 185 128 242 63 q 99 283 128 194 q 69 472 69 371 m 908 472 q 883 633 908 558 q 809 762 858 707 q 688 848 760 817 q 524 879 617 879 q 359 848 431 879 q 238 762 288 817 q 164 633 189 707 q 139 472 139 558 q 164 310 139 386 q 238 178 189 235 q 359 90 288 122 q 524 58 431 58 q 688 90 617 58 q 809 178 760 122 q 883 310 858 235 q 908 472 908 386 m 726 242 q 732 225 732 235 q 706 199 732 199 q 685 210 696 199 l 507 439 l 403 439 l 403 226 q 376 199 403 199 q 350 226 350 199 l 350 710 q 376 736 350 736 l 590 736 q 694 694 658 736 q 731 589 731 651 q 694 483 731 526 q 588 439 658 439 l 574 439 l 726 242 m 678 588 q 654 655 678 628 q 590 682 631 682 l 403 682 l 403 493 l 588 493 q 653 520 629 493 q 678 588 678 547 z "},"¯":{"ha":546,"x_min":94,"x_max":451,"o":"m 417 719 q 451 683 451 719 q 417 649 451 649 l 129 649 q 94 685 94 649 q 129 719 94 719 l 417 719 z "},"°":{"ha":461,"x_min":63,"x_max":399,"o":"m 63 783 q 76 849 63 818 q 112 902 89 879 q 165 938 135 925 q 231 951 196 951 q 296 938 265 951 q 349 902 326 925 q 385 849 372 879 q 399 783 399 818 q 385 718 399 749 q 349 665 372 688 q 296 628 326 642 q 231 615 265 615 q 165 628 196 615 q 112 665 135 642 q 76 718 89 688 q 63 783 63 749 m 132 783 q 161 714 132 743 q 231 685 190 685 q 300 714 271 685 q 329 783 329 743 q 300 853 329 824 q 231 882 271 882 q 161 853 190 882 q 132 783 132 824 z "},"±":{"ha":713,"x_min":94,"x_max":618,"o":"m 94 0 m 321 503 l 321 693 q 357 728 321 728 q 392 693 392 728 l 392 503 l 583 503 q 618 467 618 503 q 583 432 618 432 l 392 432 l 392 239 q 356 204 392 204 q 321 239 321 204 l 321 432 l 129 432 q 94 468 94 432 q 129 503 94 503 l 321 503 m 583 71 q 618 35 618 71 q 583 0 618 0 l 129 0 q 94 36 94 0 q 129 71 94 71 l 583 71 z "},"²":{"ha":357,"x_min":53,"x_max":313,"o":"m 53 433 m 313 461 q 288 433 313 433 l 92 433 q 65 442 72 433 q 57 464 57 451 q 63 486 57 476 l 215 750 q 233 793 226 769 q 240 839 240 817 q 223 889 240 869 q 175 908 206 908 q 106 846 122 908 q 78 822 99 822 q 60 831 67 822 q 53 854 53 839 q 63 896 53 876 q 90 931 74 915 q 129 955 107 946 q 175 964 151 964 q 263 932 229 964 q 297 847 297 900 q 261 719 297 782 l 126 489 l 288 489 q 313 461 313 489 z "},"³":{"ha":383,"x_min":50,"x_max":335,"o":"m 50 425 m 332 814 q 319 752 332 782 q 274 699 306 722 q 320 641 306 675 q 335 571 335 607 q 324 515 335 542 q 295 468 314 488 q 250 437 276 449 q 193 425 224 425 q 131 437 158 425 q 86 469 104 449 q 59 515 68 489 q 50 569 50 542 q 76 599 50 599 q 96 592 88 599 q 104 569 104 585 q 126 507 104 533 q 193 481 149 481 q 256 508 229 481 q 282 571 282 535 q 259 640 282 608 q 199 672 236 672 q 169 700 169 672 q 197 726 169 726 q 261 755 243 726 q 279 819 279 783 q 255 886 279 864 q 199 908 231 908 q 160 901 175 908 q 135 881 144 893 q 122 855 126 869 q 117 826 118 840 q 90 800 113 800 q 69 809 76 800 q 63 829 63 818 q 74 878 63 854 q 103 921 85 901 q 147 952 122 940 q 199 964 171 964 q 295 924 258 964 q 332 814 332 885 z "},"´":{"ha":378,"x_min":94,"x_max":283,"o":"m 218 782 q 244 796 228 796 q 272 785 260 796 q 283 758 283 774 q 275 738 283 747 l 158 588 q 132 574 149 574 q 106 584 118 574 q 94 610 94 594 q 103 632 94 621 l 218 782 z "},"¶":{"ha":803,"x_min":28,"x_max":708,"o":"m 28 688 q 44 786 28 740 q 90 865 60 832 q 164 918 119 899 q 267 938 208 938 l 675 938 q 708 903 708 938 l 708 -368 q 672 -407 708 -407 q 639 -368 639 -407 l 639 865 l 415 865 l 415 -369 q 381 -407 415 -407 q 346 -369 346 -407 l 346 431 l 271 431 q 166 451 211 431 q 90 506 121 471 q 44 588 60 540 q 28 688 28 635 z "},"·":{"ha":271,"x_min":69,"x_max":201,"o":"m 69 396 m 69 468 q 88 519 69 499 q 135 540 107 540 q 182 519 163 540 q 201 468 201 499 q 182 417 201 438 q 135 396 163 396 q 88 417 107 396 q 69 468 69 438 z "},"¸":{"ha":390,"x_min":94,"x_max":331,"o":"m 161 38 q 186 28 176 38 q 196 1 196 19 l 196 -72 q 298 -124 265 -82 q 331 -228 331 -165 q 319 -287 331 -260 q 286 -333 307 -314 q 238 -365 265 -353 q 178 -376 210 -376 q 113 -367 132 -376 q 94 -336 94 -358 q 103 -312 94 -324 q 132 -301 113 -301 q 152 -306 146 -301 q 181 -310 158 -310 q 235 -283 213 -310 q 258 -224 258 -257 q 233 -154 258 -176 q 163 -132 208 -132 q 126 -96 126 -132 l 126 1 q 136 27 126 17 q 161 38 146 38 z "},"¹":{"ha":183,"x_min":64,"x_max":118,"o":"m 64 433 m 118 463 q 93 433 118 433 q 64 463 64 433 l 64 928 q 93 956 64 956 q 118 928 118 956 l 118 463 z "},"º":{"ha":361,"x_min":49,"x_max":310,"o":"m 49 693 q 86 808 49 763 q 179 853 124 853 q 272 808 235 853 q 310 693 310 763 q 272 578 310 624 q 179 533 235 533 q 86 578 124 533 q 49 693 49 624 m 257 693 q 234 769 257 742 q 179 797 211 797 q 124 769 147 797 q 101 693 101 742 q 124 617 101 644 q 179 589 147 589 q 234 617 211 589 q 257 693 257 644 z "},"»":{"ha":508,"x_min":32,"x_max":476,"o":"m 32 0 m 188 299 l 39 542 q 32 563 32 553 q 42 587 32 578 q 67 596 53 596 q 97 578 85 596 l 257 318 q 264 299 264 307 q 257 279 264 290 l 97 19 q 67 0 86 0 q 42 9 53 0 q 32 33 32 18 q 39 56 32 42 l 188 299 m 400 299 l 251 542 q 244 563 244 553 q 255 587 244 578 q 279 596 265 596 q 310 578 297 596 l 469 318 q 476 299 476 307 q 469 279 476 290 l 310 19 q 279 0 299 0 q 255 9 265 0 q 244 33 244 18 q 251 56 244 42 l 400 299 z "},"¼":{"ha":924,"x_min":69,"x_max":854,"o":"m 69 0 m 135 463 q 110 433 135 433 q 81 463 81 433 l 81 928 q 110 956 81 956 q 135 928 135 956 l 135 463 m 124 17 q 100 0 113 0 q 78 9 88 0 q 69 28 69 18 q 75 46 69 36 l 588 921 q 611 938 597 938 q 632 929 624 938 q 640 911 640 921 q 640 903 640 907 q 635 892 639 899 l 124 17 m 854 246 q 828 217 854 217 l 818 217 l 818 15 q 793 -14 818 -14 q 767 15 767 -14 l 767 217 l 575 217 q 544 253 544 217 l 544 479 q 571 508 544 508 q 599 479 599 508 l 599 272 l 767 272 l 767 479 q 793 508 767 508 q 818 479 818 508 l 818 272 l 828 272 q 854 246 854 272 z "},"½":{"ha":856,"x_min":69,"x_max":786,"o":"m 69 0 m 124 463 q 99 433 124 433 q 69 463 69 433 l 69 928 q 99 956 69 956 q 124 928 124 956 l 124 463 m 126 17 q 103 0 115 0 q 81 9 90 0 q 72 28 72 18 q 78 46 72 36 l 590 921 q 614 938 600 938 q 635 929 626 938 q 643 911 643 921 q 642 903 643 907 q 638 892 642 899 l 126 17 m 786 14 q 761 -14 786 -14 l 565 -14 q 538 -5 546 -14 q 531 17 531 4 q 536 39 531 29 l 689 303 q 707 346 700 322 q 714 392 714 369 q 697 442 714 422 q 649 461 679 461 q 579 399 596 461 q 551 375 572 375 q 533 383 540 375 q 526 407 526 392 q 537 449 526 429 q 564 483 547 468 q 603 508 581 499 q 649 517 625 517 q 737 485 703 517 q 771 400 771 453 q 735 272 771 335 l 600 42 l 761 42 q 786 14 786 42 z "},"¾":{"ha":1043,"x_min":69,"x_max":974,"o":"m 69 0 m 351 814 q 338 752 351 782 q 293 699 325 722 q 340 641 325 675 q 354 571 354 607 q 344 515 354 542 q 315 468 333 488 q 269 437 296 449 q 213 425 243 425 q 151 437 178 425 q 106 469 124 449 q 78 515 88 489 q 69 569 69 542 q 96 599 69 599 q 115 592 107 599 q 124 569 124 585 q 146 507 124 533 q 213 481 168 481 q 275 508 249 481 q 301 571 301 535 q 278 640 301 608 q 218 672 256 672 q 189 700 189 672 q 217 726 189 726 q 281 755 263 726 q 299 819 299 783 q 274 886 299 864 q 218 908 250 908 q 179 901 194 908 q 155 881 164 893 q 142 855 146 869 q 136 826 138 840 q 110 800 132 800 q 89 809 96 800 q 82 829 82 818 q 93 878 82 854 q 123 921 104 901 q 166 952 142 940 q 218 964 190 964 q 315 924 278 964 q 351 814 351 885 m 257 17 q 233 0 246 0 q 212 9 221 0 q 203 28 203 18 q 208 46 203 36 l 721 921 q 744 938 731 938 q 765 929 757 938 q 774 911 774 921 q 773 903 774 907 q 768 892 772 899 l 257 17 m 974 246 q 947 217 974 217 l 938 217 l 938 15 q 913 -14 938 -14 q 886 15 886 -14 l 886 217 l 694 217 q 664 253 664 217 l 664 479 q 690 508 664 508 q 718 479 718 508 l 718 272 l 886 272 l 886 479 q 913 508 886 508 q 938 479 938 508 l 938 272 l 947 272 q 974 246 974 272 z "},"¿":{"ha":569,"x_min":60,"x_max":526,"o":"m 60 -39 q 78 74 60 26 q 138 163 97 122 q 186 206 157 182 q 232 253 215 231 q 266 319 256 285 q 276 403 276 353 q 313 442 276 442 q 347 404 347 442 q 289 214 347 286 q 235 160 268 188 q 186 113 203 132 q 142 45 154 78 q 129 -31 129 13 q 175 -142 129 -101 q 313 -183 221 -183 q 403 -156 367 -183 q 463 -101 440 -129 q 490 -87 475 -87 q 515 -97 504 -87 q 526 -122 526 -107 q 519 -147 526 -135 q 501 -171 511 -160 q 479 -192 490 -182 q 460 -207 468 -201 q 394 -242 431 -229 q 313 -256 357 -256 q 123 -197 186 -256 q 60 -39 60 -137 m 378 629 q 359 578 378 599 q 313 557 340 557 q 265 578 285 557 q 246 629 246 599 q 265 681 246 660 q 313 701 285 701 q 359 681 340 701 q 378 629 378 660 z "},"À":{"ha":789,"x_min":32,"x_max":757,"o":"m 32 0 m 100 26 q 71 0 90 0 q 42 10 53 0 q 32 32 32 21 q 36 51 32 40 l 353 907 q 371 930 360 922 q 394 938 382 938 q 419 930 408 938 q 436 907 431 922 l 753 51 q 757 32 757 40 q 747 10 757 21 q 718 0 736 0 q 689 26 699 0 l 574 333 l 215 333 l 100 26 m 242 404 l 547 404 l 394 813 l 242 404 m 439 1039 q 447 1017 447 1028 q 435 991 447 1001 q 410 981 424 981 q 383 994 393 981 l 267 1144 q 258 1165 258 1154 q 270 1192 258 1181 q 297 1203 282 1203 q 324 1189 314 1203 l 439 1039 z "},"Á":{"ha":789,"x_min":32,"x_max":757,"o":"m 32 0 m 100 26 q 71 0 90 0 q 42 10 53 0 q 32 32 32 21 q 36 51 32 40 l 353 907 q 371 930 360 922 q 394 938 382 938 q 419 930 408 938 q 436 907 431 922 l 753 51 q 757 32 757 40 q 747 10 757 21 q 718 0 736 0 q 689 26 699 0 l 574 333 l 215 333 l 100 26 m 242 404 l 547 404 l 394 813 l 242 404 m 465 1189 q 492 1203 475 1203 q 519 1192 507 1203 q 531 1165 531 1181 q 522 1144 531 1154 l 406 994 q 379 981 396 981 q 353 991 365 981 q 342 1017 342 1001 q 350 1039 342 1028 l 465 1189 z "},"Â":{"ha":789,"x_min":32,"x_max":757,"o":"m 32 0 m 100 26 q 71 0 90 0 q 42 10 53 0 q 32 32 32 21 q 36 51 32 40 l 353 907 q 371 930 360 922 q 394 938 382 938 q 419 930 408 938 q 436 907 431 922 l 753 51 q 757 32 757 40 q 747 10 757 21 q 718 0 736 0 q 689 26 699 0 l 574 333 l 215 333 l 100 26 m 242 404 l 547 404 l 394 813 l 242 404 m 536 1039 q 544 1017 544 1028 q 533 991 544 1001 q 507 981 521 981 q 481 994 490 981 l 394 1110 l 308 994 q 282 981 299 981 q 256 991 268 981 q 244 1017 244 1001 q 253 1039 244 1028 l 368 1189 q 394 1203 378 1203 q 421 1189 411 1203 l 536 1039 z "},"Ã":{"ha":789,"x_min":32,"x_max":757,"o":"m 32 0 m 100 26 q 71 0 90 0 q 42 10 53 0 q 32 32 32 21 q 36 51 32 40 l 353 907 q 371 930 360 922 q 394 938 382 938 q 419 930 408 938 q 436 907 431 922 l 753 51 q 757 32 757 40 q 747 10 757 21 q 718 0 736 0 q 689 26 699 0 l 574 333 l 215 333 l 100 26 m 242 404 l 547 404 l 394 813 l 242 404 m 519 1146 q 531 1169 519 1161 q 553 1178 542 1178 q 574 1171 564 1178 q 583 1147 583 1164 q 552 1052 583 1085 q 478 1019 521 1019 q 418 1040 442 1019 q 374 1083 394 1060 q 344 1115 358 1101 q 311 1128 329 1128 q 277 1110 288 1128 q 267 1063 267 1093 q 256 1039 267 1047 q 235 1031 246 1031 q 213 1038 222 1031 q 204 1061 204 1044 q 235 1156 204 1124 q 311 1189 267 1189 q 371 1169 347 1189 q 414 1125 394 1149 q 444 1094 429 1107 q 476 1081 460 1081 q 510 1098 500 1081 q 519 1146 519 1115 z "},"Ä":{"ha":789,"x_min":32,"x_max":757,"o":"m 32 0 m 100 26 q 71 0 90 0 q 42 10 53 0 q 32 32 32 21 q 36 51 32 40 l 353 907 q 371 930 360 922 q 394 938 382 938 q 419 930 408 938 q 436 907 431 922 l 753 51 q 757 32 757 40 q 747 10 757 21 q 718 0 736 0 q 689 26 699 0 l 574 333 l 215 333 l 100 26 m 242 404 l 547 404 l 394 813 l 242 404 m 453 1097 q 470 1144 453 1125 q 511 1163 488 1163 q 553 1144 535 1163 q 571 1097 571 1125 q 553 1051 571 1069 q 511 1032 535 1032 q 470 1051 488 1032 q 453 1097 453 1069 m 217 1097 q 234 1144 217 1125 q 275 1163 251 1163 q 317 1144 299 1163 q 335 1097 335 1125 q 317 1051 335 1069 q 275 1032 299 1032 q 234 1051 251 1032 q 217 1097 217 1069 z "},"Å":{"ha":789,"x_min":32,"x_max":757,"o":"m 32 0 m 100 26 q 71 0 90 0 q 42 10 53 0 q 32 32 32 21 q 36 51 32 40 l 353 907 q 371 930 360 922 q 394 938 382 938 q 419 930 408 938 q 436 907 431 922 l 753 51 q 757 32 757 40 q 747 10 757 21 q 718 0 736 0 q 689 26 699 0 l 574 333 l 215 333 l 100 26 m 242 404 l 547 404 l 394 813 l 242 404 m 276 1085 q 311 1168 276 1133 q 394 1203 346 1203 q 478 1168 443 1203 q 513 1085 513 1133 q 478 1001 513 1036 q 394 967 443 967 q 311 1001 346 967 q 276 1085 276 1036 m 326 1085 q 347 1037 326 1057 q 394 1017 367 1017 q 442 1037 422 1017 q 461 1085 461 1057 q 442 1132 461 1113 q 394 1151 422 1151 q 347 1132 367 1151 q 326 1085 326 1113 z "},"Æ":{"ha":1056,"x_min":32,"x_max":990,"o":"m 100 26 q 90 9 97 17 q 71 0 83 1 q 42 10 51 0 q 32 32 32 21 q 36 51 32 40 l 353 907 q 394 938 363 933 l 957 938 q 990 903 990 938 q 957 865 990 865 l 574 865 l 574 503 l 871 503 q 906 467 906 503 q 871 432 906 432 l 574 432 l 574 72 l 957 72 q 990 36 990 72 q 957 0 990 0 l 539 0 q 504 35 504 0 l 504 333 l 215 333 l 100 26 m 242 404 l 504 404 l 504 865 l 414 865 l 242 404 z "},"Ç":{"ha":847,"x_min":69,"x_max":783,"o":"m 69 472 q 99 661 69 574 q 181 813 128 749 q 309 915 233 878 q 479 951 385 951 q 588 937 538 951 q 682 896 638 922 q 733 858 710 879 q 776 814 756 838 q 783 794 783 806 q 773 768 783 779 q 747 757 763 757 q 722 769 735 757 q 646 835 690 807 q 569 867 610 856 q 479 879 528 879 q 335 848 399 879 q 228 762 272 817 q 162 633 185 707 q 139 472 139 558 q 162 310 139 386 q 228 178 185 235 q 335 90 272 122 q 479 58 399 58 q 656 110 581 58 q 726 175 694 136 q 747 185 735 185 q 772 174 761 185 q 783 149 783 164 q 775 125 783 135 q 694 50 743 83 q 488 -14 606 -11 l 488 -72 q 590 -124 557 -82 q 622 -228 622 -165 q 610 -287 622 -260 q 578 -333 599 -314 q 529 -365 557 -353 q 469 -376 501 -376 q 405 -367 424 -376 q 386 -336 386 -358 q 395 -312 386 -324 q 424 -301 404 -301 q 444 -306 438 -301 q 472 -310 450 -310 q 527 -283 504 -310 q 550 -224 550 -257 q 525 -154 550 -176 q 454 -132 500 -132 q 418 -96 418 -132 l 418 -10 q 273 44 338 3 q 163 151 208 86 q 94 297 118 215 q 69 472 69 379 z "},"È":{"ha":646,"x_min":94,"x_max":581,"o":"m 94 0 m 581 36 q 547 0 581 0 l 129 0 q 94 35 94 0 l 94 903 q 129 938 94 938 l 547 938 q 581 903 581 938 q 547 865 581 865 l 164 865 l 164 503 l 461 503 q 496 467 496 503 q 461 432 496 432 l 164 432 l 164 72 l 547 72 q 581 36 581 72 m 392 1039 q 400 1017 400 1028 q 388 991 400 1001 q 363 981 376 981 q 336 994 346 981 l 219 1144 q 211 1165 211 1154 q 223 1192 211 1181 q 250 1203 235 1203 q 276 1189 267 1203 l 392 1039 z "},"É":{"ha":646,"x_min":94,"x_max":581,"o":"m 94 0 m 581 36 q 547 0 581 0 l 129 0 q 94 35 94 0 l 94 903 q 129 938 94 938 l 547 938 q 581 903 581 938 q 547 865 581 865 l 164 865 l 164 503 l 461 503 q 496 467 496 503 q 461 432 496 432 l 164 432 l 164 72 l 547 72 q 581 36 581 72 m 421 1189 q 447 1203 431 1203 q 474 1192 463 1203 q 486 1165 486 1181 q 478 1144 486 1154 l 361 994 q 335 981 351 981 q 309 991 321 981 q 297 1017 297 1001 q 306 1039 297 1028 l 421 1189 z "},"Ê":{"ha":646,"x_min":94,"x_max":581,"o":"m 94 0 m 581 36 q 547 0 581 0 l 129 0 q 94 35 94 0 l 94 903 q 129 938 94 938 l 547 938 q 581 903 581 938 q 547 865 581 865 l 164 865 l 164 503 l 461 503 q 496 467 496 503 q 461 432 496 432 l 164 432 l 164 72 l 547 72 q 581 36 581 72 m 489 1039 q 497 1017 497 1028 q 485 991 497 1001 q 460 981 474 981 q 433 994 443 981 l 347 1110 l 261 994 q 235 981 251 981 q 209 991 221 981 q 197 1017 197 1001 q 206 1039 197 1028 l 321 1189 q 347 1203 331 1203 q 374 1189 364 1203 l 489 1039 z "},"Ë":{"ha":646,"x_min":94,"x_max":581,"o":"m 94 0 m 581 36 q 547 0 581 0 l 129 0 q 94 35 94 0 l 94 903 q 129 938 94 938 l 547 938 q 581 903 581 938 q 547 865 581 865 l 164 865 l 164 503 l 461 503 q 496 467 496 503 q 461 432 496 432 l 164 432 l 164 72 l 547 72 q 581 36 581 72 m 406 1097 q 423 1144 406 1125 q 464 1163 440 1163 q 506 1144 488 1163 q 524 1097 524 1125 q 506 1051 524 1069 q 464 1032 488 1032 q 423 1051 440 1032 q 406 1097 406 1069 m 169 1097 q 187 1144 169 1125 q 228 1163 204 1163 q 269 1144 251 1163 q 288 1097 288 1125 q 269 1051 288 1069 q 228 1032 251 1032 q 187 1051 204 1032 q 169 1097 169 1069 z "},"Ì":{"ha":396,"x_min":63,"x_max":313,"o":"m 63 0 m 232 865 l 232 72 l 279 72 q 313 35 313 72 q 279 0 313 0 l 118 0 q 83 35 83 0 q 118 72 83 72 l 163 72 l 163 865 l 118 865 q 83 903 83 865 q 118 938 83 938 l 279 938 q 313 903 313 938 q 279 865 313 865 l 232 865 m 243 1039 q 251 1017 251 1028 q 240 991 251 1001 q 214 981 228 981 q 188 994 197 981 l 71 1144 q 63 1165 63 1154 q 74 1192 63 1181 q 101 1203 86 1203 q 128 1189 118 1203 l 243 1039 z "},"Í":{"ha":396,"x_min":83,"x_max":333,"o":"m 83 0 m 232 865 l 232 72 l 279 72 q 313 35 313 72 q 279 0 313 0 l 118 0 q 83 35 83 0 q 118 72 83 72 l 163 72 l 163 865 l 118 865 q 83 903 83 865 q 118 938 83 938 l 279 938 q 313 903 313 938 q 279 865 313 865 l 232 865 m 268 1189 q 294 1203 278 1203 q 322 1192 310 1203 q 333 1165 333 1181 q 325 1144 333 1154 l 208 994 q 182 981 199 981 q 156 991 168 981 q 144 1017 144 1001 q 153 1039 144 1028 l 268 1189 z "},"Î":{"ha":396,"x_min":49,"x_max":349,"o":"m 49 0 m 232 865 l 232 72 l 279 72 q 313 35 313 72 q 279 0 313 0 l 118 0 q 83 35 83 0 q 118 72 83 72 l 163 72 l 163 865 l 118 865 q 83 903 83 865 q 118 938 83 938 l 279 938 q 313 903 313 938 q 279 865 313 865 l 232 865 m 340 1039 q 349 1017 349 1028 q 337 991 349 1001 q 311 981 325 981 q 285 994 294 981 l 199 1110 l 113 994 q 86 981 103 981 q 60 991 72 981 q 49 1017 49 1001 q 57 1039 49 1028 l 172 1189 q 199 1203 182 1203 q 225 1189 215 1203 l 340 1039 z "},"Ï":{"ha":396,"x_min":21,"x_max":375,"o":"m 21 0 m 232 865 l 232 72 l 279 72 q 313 35 313 72 q 279 0 313 0 l 118 0 q 83 35 83 0 q 118 72 83 72 l 163 72 l 163 865 l 118 865 q 83 903 83 865 q 118 938 83 938 l 279 938 q 313 903 313 938 q 279 865 313 865 l 232 865 m 257 1097 q 274 1144 257 1125 q 315 1163 292 1163 q 357 1144 339 1163 q 375 1097 375 1125 q 357 1051 375 1069 q 315 1032 339 1032 q 274 1051 292 1032 q 257 1097 257 1069 m 21 1097 q 38 1144 21 1125 q 79 1163 56 1163 q 121 1144 103 1163 q 139 1097 139 1125 q 121 1051 139 1069 q 79 1032 103 1032 q 38 1051 56 1032 q 21 1097 21 1069 z "},"Ð":{"ha":851,"x_min":0,"x_max":782,"o":"m 782 468 q 749 285 782 369 q 657 136 715 200 q 518 36 599 72 q 343 0 438 0 l 126 0 q 92 35 92 0 l 92 432 l 35 432 q 0 467 0 432 q 35 503 0 503 l 92 503 l 92 903 q 126 938 92 938 l 339 938 q 516 901 435 938 q 656 801 597 865 q 749 652 715 738 q 782 468 782 567 m 717 465 q 688 617 717 544 q 609 744 660 689 q 489 832 558 799 q 339 865 419 865 l 161 865 l 161 503 l 436 503 q 471 467 471 503 q 436 432 471 432 l 161 432 l 161 72 l 343 72 q 489 104 421 72 q 608 190 557 136 q 688 316 658 244 q 717 465 717 388 z "},"Ñ":{"ha":797,"x_min":94,"x_max":703,"o":"m 94 0 m 661 0 q 638 7 650 0 q 617 28 625 14 l 164 808 l 164 39 q 129 0 164 0 q 94 39 94 0 l 94 888 q 107 925 94 913 q 136 938 119 938 q 160 931 147 938 q 181 910 172 924 l 633 129 l 633 899 q 668 938 633 938 q 703 899 703 938 l 703 50 q 690 13 703 25 q 661 0 678 0 m 524 1146 q 535 1169 524 1161 q 557 1178 546 1178 q 578 1171 568 1178 q 588 1147 588 1164 q 556 1052 588 1085 q 482 1019 525 1019 q 422 1040 446 1019 q 378 1083 399 1060 q 348 1115 363 1101 q 315 1128 333 1128 q 281 1110 292 1128 q 271 1063 271 1093 q 260 1039 271 1047 q 239 1031 250 1031 q 217 1038 226 1031 q 208 1061 208 1044 q 240 1156 208 1124 q 315 1189 271 1189 q 375 1169 351 1189 q 418 1125 399 1149 q 449 1094 433 1107 q 481 1081 464 1081 q 514 1098 504 1081 q 524 1146 524 1115 z "},"Ò":{"ha":958,"x_min":69,"x_max":889,"o":"m 69 0 m 69 472 q 99 661 69 574 q 181 813 128 749 q 309 915 233 878 q 479 951 385 951 q 649 915 572 951 q 778 813 725 878 q 860 661 831 749 q 889 472 889 574 q 860 283 889 371 q 778 128 831 194 q 649 24 725 63 q 479 -14 572 -14 q 309 24 385 -14 q 181 128 233 63 q 99 283 128 194 q 69 472 69 371 m 819 472 q 797 633 819 558 q 730 762 774 707 q 623 848 686 817 q 479 879 560 879 q 335 848 399 879 q 228 762 272 817 q 162 633 185 707 q 139 472 139 558 q 162 310 139 386 q 228 178 185 235 q 335 90 272 122 q 479 58 399 58 q 623 90 560 58 q 730 178 686 122 q 797 310 774 235 q 819 472 819 386 m 524 1039 q 532 1017 532 1028 q 520 991 532 1001 q 494 981 508 981 q 468 994 478 981 l 351 1144 q 343 1165 343 1154 q 355 1192 343 1181 q 382 1203 367 1203 q 408 1189 399 1203 l 524 1039 z "},"Ó":{"ha":958,"x_min":69,"x_max":889,"o":"m 69 0 m 69 472 q 99 661 69 574 q 181 813 128 749 q 309 915 233 878 q 479 951 385 951 q 649 915 572 951 q 778 813 725 878 q 860 661 831 749 q 889 472 889 574 q 860 283 889 371 q 778 128 831 194 q 649 24 725 63 q 479 -14 572 -14 q 309 24 385 -14 q 181 128 233 63 q 99 283 128 194 q 69 472 69 371 m 819 472 q 797 633 819 558 q 730 762 774 707 q 623 848 686 817 q 479 879 560 879 q 335 848 399 879 q 228 762 272 817 q 162 633 185 707 q 139 472 139 558 q 162 310 139 386 q 228 178 185 235 q 335 90 272 122 q 479 58 399 58 q 623 90 560 58 q 730 178 686 122 q 797 310 774 235 q 819 472 819 386 m 550 1189 q 576 1203 560 1203 q 603 1192 592 1203 q 615 1165 615 1181 q 607 1144 615 1154 l 490 994 q 464 981 481 981 q 438 991 450 981 q 426 1017 426 1001 q 435 1039 426 1028 l 550 1189 z "},"Ô":{"ha":958,"x_min":69,"x_max":889,"o":"m 69 0 m 69 472 q 99 661 69 574 q 181 813 128 749 q 309 915 233 878 q 479 951 385 951 q 649 915 572 951 q 778 813 725 878 q 860 661 831 749 q 889 472 889 574 q 860 283 889 371 q 778 128 831 194 q 649 24 725 63 q 479 -14 572 -14 q 309 24 385 -14 q 181 128 233 63 q 99 283 128 194 q 69 472 69 371 m 819 472 q 797 633 819 558 q 730 762 774 707 q 623 848 686 817 q 479 879 560 879 q 335 848 399 879 q 228 762 272 817 q 162 633 185 707 q 139 472 139 558 q 162 310 139 386 q 228 178 185 235 q 335 90 272 122 q 479 58 399 58 q 623 90 560 58 q 730 178 686 122 q 797 310 774 235 q 819 472 819 386 m 621 1039 q 629 1017 629 1028 q 617 991 629 1001 q 592 981 606 981 q 565 994 575 981 l 479 1110 l 393 994 q 367 981 383 981 q 341 991 353 981 q 329 1017 329 1001 q 338 1039 329 1028 l 453 1189 q 479 1203 463 1203 q 506 1189 496 1203 l 621 1039 z "},"Õ":{"ha":958,"x_min":69,"x_max":889,"o":"m 69 0 m 69 472 q 99 661 69 574 q 181 813 128 749 q 309 915 233 878 q 479 951 385 951 q 649 915 572 951 q 778 813 725 878 q 860 661 831 749 q 889 472 889 574 q 860 283 889 371 q 778 128 831 194 q 649 24 725 63 q 479 -14 572 -14 q 309 24 385 -14 q 181 128 233 63 q 99 283 128 194 q 69 472 69 371 m 819 472 q 797 633 819 558 q 730 762 774 707 q 623 848 686 817 q 479 879 560 879 q 335 848 399 879 q 228 762 272 817 q 162 633 185 707 q 139 472 139 558 q 162 310 139 386 q 228 178 185 235 q 335 90 272 122 q 479 58 399 58 q 623 90 560 58 q 730 178 686 122 q 797 310 774 235 q 819 472 819 386 m 604 1146 q 615 1169 604 1161 q 638 1178 626 1178 q 658 1171 649 1178 q 668 1147 668 1164 q 637 1052 668 1085 q 563 1019 606 1019 q 503 1040 526 1019 q 458 1083 479 1060 q 428 1115 443 1101 q 396 1128 414 1128 q 362 1110 372 1128 q 351 1063 351 1093 q 341 1039 351 1047 q 319 1031 331 1031 q 298 1038 307 1031 q 289 1061 289 1044 q 320 1156 289 1124 q 396 1189 351 1189 q 456 1169 432 1189 q 499 1125 479 1149 q 529 1094 514 1107 q 561 1081 544 1081 q 594 1098 585 1081 q 604 1146 604 1115 z "},"Ö":{"ha":958,"x_min":69,"x_max":889,"o":"m 69 0 m 69 472 q 99 661 69 574 q 181 813 128 749 q 309 915 233 878 q 479 951 385 951 q 649 915 572 951 q 778 813 725 878 q 860 661 831 749 q 889 472 889 574 q 860 283 889 371 q 778 128 831 194 q 649 24 725 63 q 479 -14 572 -14 q 309 24 385 -14 q 181 128 233 63 q 99 283 128 194 q 69 472 69 371 m 819 472 q 797 633 819 558 q 730 762 774 707 q 623 848 686 817 q 479 879 560 879 q 335 848 399 879 q 228 762 272 817 q 162 633 185 707 q 139 472 139 558 q 162 310 139 386 q 228 178 185 235 q 335 90 272 122 q 479 58 399 58 q 623 90 560 58 q 730 178 686 122 q 797 310 774 235 q 819 472 819 386 m 538 1097 q 555 1144 538 1125 q 596 1163 572 1163 q 638 1144 619 1163 q 656 1097 656 1125 q 638 1051 656 1069 q 596 1032 619 1032 q 555 1051 572 1032 q 538 1097 538 1069 m 301 1097 q 319 1144 301 1125 q 360 1163 336 1163 q 401 1144 383 1163 q 419 1097 419 1125 q 401 1051 419 1069 q 360 1032 383 1032 q 319 1051 336 1032 q 301 1097 301 1069 z "},"×":{"ha":713,"x_min":158,"x_max":554,"o":"m 357 513 l 492 647 q 515 658 503 658 q 541 646 528 658 q 554 621 554 633 q 542 597 554 610 l 407 463 l 543 326 q 554 303 554 315 q 542 277 554 290 q 517 264 529 264 q 493 276 506 264 l 357 413 l 221 275 q 197 263 208 263 q 172 276 185 263 q 158 300 158 289 q 171 325 158 313 l 307 463 l 172 597 q 160 622 160 610 q 172 647 160 635 q 197 660 185 660 q 222 647 210 660 l 357 513 z "},"Ø":{"ha":958,"x_min":69,"x_max":889,"o":"m 69 472 q 99 661 69 574 q 181 813 128 749 q 309 915 233 878 q 479 951 385 951 q 601 933 544 951 q 704 881 657 914 l 771 986 q 801 1007 783 1007 q 827 997 817 1007 q 838 975 838 986 q 831 950 838 963 l 757 835 q 855 676 821 769 q 889 472 889 583 q 860 283 889 371 q 778 128 831 194 q 649 24 725 63 q 479 -14 572 -14 q 359 4 414 -14 q 258 56 304 22 l 192 -49 q 163 -69 179 -69 q 136 -58 147 -69 q 125 -35 125 -46 q 132 -12 125 -24 l 204 100 q 104 263 139 167 q 69 472 69 360 m 139 472 q 165 298 139 378 q 243 161 192 218 l 667 822 q 581 865 628 850 q 479 879 535 879 q 335 848 399 879 q 228 762 272 817 q 162 633 185 707 q 139 472 139 558 m 819 472 q 793 642 819 564 q 718 775 767 719 l 296 114 q 479 58 372 58 q 623 90 560 58 q 730 178 686 122 q 797 310 774 235 q 819 472 819 386 z "},"Ù":{"ha":808,"x_min":83,"x_max":725,"o":"m 83 0 m 404 58 q 508 77 461 58 q 587 131 554 96 q 638 215 619 167 q 656 325 656 264 l 656 899 q 692 938 656 938 q 725 899 725 938 l 725 325 q 702 186 725 249 q 637 79 679 124 q 535 10 594 35 q 404 -14 476 -14 q 273 10 332 -14 q 172 79 214 35 q 106 186 129 124 q 83 325 83 249 l 83 899 q 117 938 83 938 q 153 899 153 938 l 153 325 q 171 215 153 264 q 222 131 189 167 q 301 77 254 96 q 404 58 347 58 m 449 1039 q 457 1017 457 1028 q 445 991 457 1001 q 419 981 433 981 q 393 994 403 981 l 276 1144 q 268 1165 268 1154 q 280 1192 268 1181 q 307 1203 292 1203 q 333 1189 324 1203 l 449 1039 z "},"Ú":{"ha":808,"x_min":83,"x_max":725,"o":"m 83 0 m 404 58 q 508 77 461 58 q 587 131 554 96 q 638 215 619 167 q 656 325 656 264 l 656 899 q 692 938 656 938 q 725 899 725 938 l 725 325 q 702 186 725 249 q 637 79 679 124 q 535 10 594 35 q 404 -14 476 -14 q 273 10 332 -14 q 172 79 214 35 q 106 186 129 124 q 83 325 83 249 l 83 899 q 117 938 83 938 q 153 899 153 938 l 153 325 q 171 215 153 264 q 222 131 189 167 q 301 77 254 96 q 404 58 347 58 m 475 1189 q 501 1203 485 1203 q 528 1192 517 1203 q 540 1165 540 1181 q 532 1144 540 1154 l 415 994 q 389 981 406 981 q 363 991 375 981 q 351 1017 351 1001 q 360 1039 351 1028 l 475 1189 z "},"Û":{"ha":808,"x_min":83,"x_max":725,"o":"m 83 0 m 404 58 q 508 77 461 58 q 587 131 554 96 q 638 215 619 167 q 656 325 656 264 l 656 899 q 692 938 656 938 q 725 899 725 938 l 725 325 q 702 186 725 249 q 637 79 679 124 q 535 10 594 35 q 404 -14 476 -14 q 273 10 332 -14 q 172 79 214 35 q 106 186 129 124 q 83 325 83 249 l 83 899 q 117 938 83 938 q 153 899 153 938 l 153 325 q 171 215 153 264 q 222 131 189 167 q 301 77 254 96 q 404 58 347 58 m 546 1039 q 554 1017 554 1028 q 542 991 554 1001 q 517 981 531 981 q 490 994 500 981 l 404 1110 l 318 994 q 292 981 308 981 q 266 991 278 981 q 254 1017 254 1001 q 263 1039 254 1028 l 378 1189 q 404 1203 388 1203 q 431 1189 421 1203 l 546 1039 z "},"Ü":{"ha":808,"x_min":83,"x_max":725,"o":"m 83 0 m 404 58 q 508 77 461 58 q 587 131 554 96 q 638 215 619 167 q 656 325 656 264 l 656 899 q 692 938 656 938 q 725 899 725 938 l 725 325 q 702 186 725 249 q 637 79 679 124 q 535 10 594 35 q 404 -14 476 -14 q 273 10 332 -14 q 172 79 214 35 q 106 186 129 124 q 83 325 83 249 l 83 899 q 117 938 83 938 q 153 899 153 938 l 153 325 q 171 215 153 264 q 222 131 189 167 q 301 77 254 96 q 404 58 347 58 m 463 1097 q 480 1144 463 1125 q 521 1163 497 1163 q 563 1144 544 1163 q 581 1097 581 1125 q 563 1051 581 1069 q 521 1032 544 1032 q 480 1051 497 1032 q 463 1097 463 1069 m 226 1097 q 244 1144 226 1125 q 285 1163 261 1163 q 326 1144 308 1163 q 344 1097 344 1125 q 326 1051 344 1069 q 285 1032 308 1032 q 244 1051 261 1032 q 226 1097 226 1069 z "},"Ý":{"ha":742,"x_min":32,"x_max":710,"o":"m 32 0 m 371 0 q 336 38 336 0 l 336 454 l 40 881 q 32 904 32 893 q 42 928 32 919 q 67 938 53 938 q 96 921 83 938 l 371 532 l 646 921 q 675 938 658 938 q 699 928 689 938 q 710 904 710 919 q 701 881 710 893 l 406 454 l 406 38 q 371 0 406 0 m 442 1189 q 468 1203 451 1203 q 495 1192 483 1203 q 507 1165 507 1181 q 499 1144 507 1154 l 382 994 q 356 981 372 981 q 330 991 342 981 q 318 1017 318 1001 q 326 1039 318 1028 l 442 1189 z "},"Þ":{"ha":781,"x_min":94,"x_max":746,"o":"m 746 479 q 730 379 746 426 q 683 297 714 332 q 608 242 653 263 q 503 222 563 222 l 164 222 l 164 38 q 129 0 164 0 q 94 38 94 0 l 94 899 q 131 938 94 938 q 164 899 164 938 l 164 729 l 507 729 q 610 710 565 729 q 684 657 654 690 q 730 578 714 624 q 746 479 746 532 m 676 476 q 630 606 676 556 q 507 657 583 657 l 164 657 l 164 294 l 503 294 q 630 346 583 294 q 676 476 676 397 z "},"ß":{"ha":644,"x_min":83,"x_max":582,"o":"m 553 688 q 526 574 553 624 q 443 481 499 524 q 546 385 510 442 q 582 253 582 329 q 565 151 582 199 q 512 69 547 104 q 424 13 476 33 q 301 -7 371 -7 q 272 2 285 -7 q 260 26 260 11 q 300 65 260 65 q 396 80 356 65 q 463 120 436 94 q 501 180 489 146 q 514 253 514 214 q 503 325 514 290 q 469 387 492 360 q 415 430 447 414 q 340 446 382 446 l 325 446 q 294 481 294 446 q 326 517 294 517 l 340 517 q 449 565 415 517 q 483 685 483 613 q 326 879 483 879 q 192 829 232 879 q 153 671 153 779 l 153 38 q 119 0 153 0 q 83 38 83 0 l 83 681 q 146 876 83 801 q 326 951 208 951 q 429 931 386 951 q 500 876 472 911 q 540 792 528 840 q 553 688 553 743 z "},"à":{"ha":613,"x_min":63,"x_max":518,"o":"m 63 0 m 449 492 q 482 531 449 531 q 518 492 518 531 l 518 38 q 482 0 518 0 q 449 38 449 0 l 449 69 q 381 8 421 29 q 290 -14 340 -14 q 201 7 242 -14 q 128 65 160 28 q 80 153 97 103 q 63 265 63 204 q 80 376 63 325 q 128 465 97 428 q 201 524 160 503 q 290 544 242 544 q 381 522 340 544 q 449 460 421 500 l 449 492 m 132 265 q 178 113 132 167 q 290 58 224 58 q 403 113 357 58 q 449 265 449 167 l 449 275 q 401 420 446 368 q 290 472 357 472 q 178 418 224 472 q 132 265 132 364 m 342 632 q 350 610 350 621 q 338 584 350 594 q 313 574 326 574 q 286 588 296 574 l 169 738 q 161 758 161 747 q 173 785 161 774 q 200 796 185 796 q 226 782 217 796 l 342 632 z "},"á":{"ha":613,"x_min":63,"x_max":518,"o":"m 63 0 m 449 492 q 482 531 449 531 q 518 492 518 531 l 518 38 q 482 0 518 0 q 449 38 449 0 l 449 69 q 381 8 421 29 q 290 -14 340 -14 q 201 7 242 -14 q 128 65 160 28 q 80 153 97 103 q 63 265 63 204 q 80 376 63 325 q 128 465 97 428 q 201 524 160 503 q 290 544 242 544 q 381 522 340 544 q 449 460 421 500 l 449 492 m 132 265 q 178 113 132 167 q 290 58 224 58 q 403 113 357 58 q 449 265 449 167 l 449 275 q 401 420 446 368 q 290 472 357 472 q 178 418 224 472 q 132 265 132 364 m 364 782 q 390 796 374 796 q 417 785 406 796 q 429 758 429 774 q 421 738 429 747 l 304 588 q 278 574 294 574 q 252 584 264 574 q 240 610 240 594 q 249 632 240 621 l 364 782 z "},"â":{"ha":613,"x_min":63,"x_max":518,"o":"m 63 0 m 449 492 q 482 531 449 531 q 518 492 518 531 l 518 38 q 482 0 518 0 q 449 38 449 0 l 449 69 q 381 8 421 29 q 290 -14 340 -14 q 201 7 242 -14 q 128 65 160 28 q 80 153 97 103 q 63 265 63 204 q 80 376 63 325 q 128 465 97 428 q 201 524 160 503 q 290 544 242 544 q 381 522 340 544 q 449 460 421 500 l 449 492 m 132 265 q 178 113 132 167 q 290 58 224 58 q 403 113 357 58 q 449 265 449 167 l 449 275 q 401 420 446 368 q 290 472 357 472 q 178 418 224 472 q 132 265 132 364 m 440 632 q 449 610 449 621 q 437 584 449 594 q 411 574 425 574 q 385 588 394 574 l 299 703 l 213 588 q 186 574 203 574 q 160 584 172 574 q 149 610 149 594 q 157 632 149 621 l 272 782 q 299 796 282 796 q 325 782 315 796 l 440 632 z "},"ã":{"ha":613,"x_min":63,"x_max":518,"o":"m 63 0 m 449 492 q 482 531 449 531 q 518 492 518 531 l 518 38 q 482 0 518 0 q 449 38 449 0 l 449 69 q 381 8 421 29 q 290 -14 340 -14 q 201 7 242 -14 q 128 65 160 28 q 80 153 97 103 q 63 265 63 204 q 80 376 63 325 q 128 465 97 428 q 201 524 160 503 q 290 544 242 544 q 381 522 340 544 q 449 460 421 500 l 449 492 m 132 265 q 178 113 132 167 q 290 58 224 58 q 403 113 357 58 q 449 265 449 167 l 449 275 q 401 420 446 368 q 290 472 357 472 q 178 418 224 472 q 132 265 132 364 m 426 739 q 438 763 426 754 q 460 771 449 771 q 481 764 471 771 q 490 740 490 757 q 459 645 490 678 q 385 613 428 613 q 325 633 349 613 q 281 676 301 653 q 251 708 265 694 q 218 721 236 721 q 184 703 194 721 q 174 656 174 686 q 163 632 174 640 q 142 624 153 624 q 120 631 129 624 q 111 654 111 638 q 142 749 111 717 q 218 782 174 782 q 278 762 254 782 q 321 718 301 742 q 351 687 336 700 q 383 674 367 674 q 417 691 407 674 q 426 739 426 708 z "},"ä":{"ha":613,"x_min":63,"x_max":518,"o":"m 63 0 m 449 492 q 482 531 449 531 q 518 492 518 531 l 518 38 q 482 0 518 0 q 449 38 449 0 l 449 69 q 381 8 421 29 q 290 -14 340 -14 q 201 7 242 -14 q 128 65 160 28 q 80 153 97 103 q 63 265 63 204 q 80 376 63 325 q 128 465 97 428 q 201 524 160 503 q 290 544 242 544 q 381 522 340 544 q 449 460 421 500 l 449 492 m 132 265 q 178 113 132 167 q 290 58 224 58 q 403 113 357 58 q 449 265 449 167 l 449 275 q 401 420 446 368 q 290 472 357 472 q 178 418 224 472 q 132 265 132 364 m 357 690 q 374 737 357 718 q 415 756 392 756 q 457 737 439 756 q 475 690 475 718 q 457 644 475 663 q 415 625 439 625 q 374 644 392 625 q 357 690 357 663 m 121 690 q 138 737 121 718 q 179 756 156 756 q 221 737 203 756 q 239 690 239 718 q 221 644 239 663 q 179 625 203 625 q 138 644 156 625 q 121 690 121 663 z "},"å":{"ha":613,"x_min":63,"x_max":518,"o":"m 63 0 m 449 492 q 482 531 449 531 q 518 492 518 531 l 518 38 q 482 0 518 0 q 449 38 449 0 l 449 69 q 381 8 421 29 q 290 -14 340 -14 q 201 7 242 -14 q 128 65 160 28 q 80 153 97 103 q 63 265 63 204 q 80 376 63 325 q 128 465 97 428 q 201 524 160 503 q 290 544 242 544 q 381 522 340 544 q 449 460 421 500 l 449 492 m 132 265 q 178 113 132 167 q 290 58 224 58 q 403 113 357 58 q 449 265 449 167 l 449 275 q 401 420 446 368 q 290 472 357 472 q 178 418 224 472 q 132 265 132 364 m 181 678 q 215 761 181 726 q 299 796 250 796 q 382 761 347 796 q 417 678 417 726 q 382 594 417 629 q 299 560 347 560 q 215 594 250 560 q 181 678 181 629 m 231 678 q 251 630 231 650 q 299 610 271 610 q 346 630 326 610 q 365 678 365 650 q 346 725 365 706 q 299 744 326 744 q 251 725 271 744 q 231 678 231 706 z "},"æ":{"ha":964,"x_min":63,"x_max":901,"o":"m 678 544 q 804 501 749 544 q 886 382 860 457 q 896 352 890 371 q 901 315 901 333 q 894 289 901 300 q 868 278 888 278 l 519 278 l 519 265 q 565 113 519 167 q 678 58 611 58 q 804 131 771 58 q 820 152 811 146 q 839 158 829 158 q 863 149 853 158 q 872 124 872 139 q 855 83 872 104 q 822 46 838 61 q 756 2 793 18 q 678 -14 719 -14 q 590 6 631 -14 q 518 63 549 26 l 518 38 q 482 0 518 0 q 449 38 449 0 l 449 69 q 381 8 421 29 q 290 -14 340 -14 q 201 7 242 -14 q 128 65 160 28 q 80 153 97 103 q 63 265 63 204 q 80 376 63 325 q 128 465 97 428 q 201 524 160 503 q 290 544 242 544 q 381 522 340 544 q 449 460 421 500 l 449 492 q 482 531 449 531 q 518 492 518 531 l 518 467 q 585 523 546 501 q 678 544 625 544 m 678 472 q 583 437 619 472 q 532 350 547 401 l 824 350 q 767 440 806 408 q 678 472 728 472 m 132 265 q 178 113 132 167 q 290 58 224 58 q 403 113 357 58 q 449 265 449 167 l 449 275 q 401 420 446 368 q 290 472 357 472 q 178 418 224 472 q 132 265 132 364 z "},"ç":{"ha":540,"x_min":63,"x_max":485,"o":"m 63 265 q 80 376 63 325 q 128 465 97 428 q 201 524 160 503 q 290 544 242 544 q 362 533 326 544 q 425 497 397 521 q 456 467 439 486 q 472 425 472 447 q 462 399 472 410 q 438 388 451 388 q 411 404 421 388 q 364 456 392 439 q 290 472 336 472 q 178 418 224 472 q 132 265 132 364 q 178 113 132 167 q 290 58 224 58 q 417 131 383 58 q 433 152 424 146 q 451 158 442 158 q 475 149 465 158 q 485 124 485 139 q 467 83 485 104 q 435 46 450 61 q 297 -14 376 -10 l 297 -72 q 399 -124 367 -82 q 432 -228 432 -165 q 420 -287 432 -260 q 388 -333 408 -314 q 339 -365 367 -353 q 279 -376 311 -376 q 215 -367 233 -376 q 196 -336 196 -358 q 205 -312 196 -324 q 233 -301 214 -301 q 253 -306 247 -301 q 282 -310 260 -310 q 337 -283 314 -310 q 360 -224 360 -257 q 335 -154 360 -176 q 264 -132 310 -132 q 228 -96 228 -132 l 228 -4 q 108 92 154 19 q 63 265 63 165 z "},"è":{"ha":565,"x_min":63,"x_max":514,"o":"m 63 0 m 290 544 q 417 501 361 544 q 499 382 472 457 q 508 352 503 371 q 514 315 514 333 q 507 289 514 300 q 481 278 500 278 l 132 278 l 132 265 q 178 113 132 167 q 290 58 224 58 q 417 131 383 58 q 433 152 424 146 q 451 158 442 158 q 475 149 465 158 q 485 124 485 139 q 467 83 485 104 q 435 46 450 61 q 369 2 406 18 q 290 -14 332 -14 q 201 7 242 -14 q 128 65 160 28 q 80 153 97 103 q 63 265 63 204 q 77 362 63 313 q 120 451 92 411 q 191 518 149 492 q 290 544 233 544 m 290 472 q 196 437 232 472 q 144 350 160 401 l 436 350 q 379 440 418 408 q 290 472 340 472 m 338 632 q 346 610 346 621 q 334 584 346 594 q 308 574 322 574 q 282 588 292 574 l 165 738 q 157 758 157 747 q 169 785 157 774 q 196 796 181 796 q 222 782 213 796 l 338 632 z "},"é":{"ha":565,"x_min":63,"x_max":514,"o":"m 63 0 m 290 544 q 417 501 361 544 q 499 382 472 457 q 508 352 503 371 q 514 315 514 333 q 507 289 514 300 q 481 278 500 278 l 132 278 l 132 265 q 178 113 132 167 q 290 58 224 58 q 417 131 383 58 q 433 152 424 146 q 451 158 442 158 q 475 149 465 158 q 485 124 485 139 q 467 83 485 104 q 435 46 450 61 q 369 2 406 18 q 290 -14 332 -14 q 201 7 242 -14 q 128 65 160 28 q 80 153 97 103 q 63 265 63 204 q 77 362 63 313 q 120 451 92 411 q 191 518 149 492 q 290 544 233 544 m 290 472 q 196 437 232 472 q 144 350 160 401 l 436 350 q 379 440 418 408 q 290 472 340 472 m 364 782 q 390 796 374 796 q 417 785 406 796 q 429 758 429 774 q 421 738 429 747 l 304 588 q 278 574 294 574 q 252 584 264 574 q 240 610 240 594 q 249 632 240 621 l 364 782 z "},"ê":{"ha":565,"x_min":63,"x_max":514,"o":"m 63 0 m 290 544 q 417 501 361 544 q 499 382 472 457 q 508 352 503 371 q 514 315 514 333 q 507 289 514 300 q 481 278 500 278 l 132 278 l 132 265 q 178 113 132 167 q 290 58 224 58 q 417 131 383 58 q 433 152 424 146 q 451 158 442 158 q 475 149 465 158 q 485 124 485 139 q 467 83 485 104 q 435 46 450 61 q 369 2 406 18 q 290 -14 332 -14 q 201 7 242 -14 q 128 65 160 28 q 80 153 97 103 q 63 265 63 204 q 77 362 63 313 q 120 451 92 411 q 191 518 149 492 q 290 544 233 544 m 290 472 q 196 437 232 472 q 144 350 160 401 l 436 350 q 379 440 418 408 q 290 472 340 472 m 433 632 q 442 610 442 621 q 430 584 442 594 q 404 574 418 574 q 378 588 388 574 l 292 703 l 206 588 q 179 574 196 574 q 153 584 165 574 q 142 610 142 594 q 150 632 142 621 l 265 782 q 292 796 275 796 q 318 782 308 796 l 433 632 z "},"ë":{"ha":565,"x_min":63,"x_max":514,"o":"m 63 0 m 290 544 q 417 501 361 544 q 499 382 472 457 q 508 352 503 371 q 514 315 514 333 q 507 289 514 300 q 481 278 500 278 l 132 278 l 132 265 q 178 113 132 167 q 290 58 224 58 q 417 131 383 58 q 433 152 424 146 q 451 158 442 158 q 475 149 465 158 q 485 124 485 139 q 467 83 485 104 q 435 46 450 61 q 369 2 406 18 q 290 -14 332 -14 q 201 7 242 -14 q 128 65 160 28 q 80 153 97 103 q 63 265 63 204 q 77 362 63 313 q 120 451 92 411 q 191 518 149 492 q 290 544 233 544 m 290 472 q 196 437 232 472 q 144 350 160 401 l 436 350 q 379 440 418 408 q 290 472 340 472 m 351 690 q 369 737 351 718 q 410 756 386 756 q 451 737 433 756 q 469 690 469 718 q 451 644 469 663 q 410 625 433 625 q 369 644 386 625 q 351 690 351 663 m 115 690 q 133 737 115 718 q 174 756 150 756 q 215 737 197 756 q 233 690 233 718 q 215 644 233 663 q 174 625 197 625 q 133 644 150 625 q 115 690 115 663 z "},"ì":{"ha":325,"x_min":38,"x_max":226,"o":"m 38 0 m 208 38 q 174 0 208 0 q 139 38 139 0 l 139 494 q 174 531 139 531 q 208 494 208 531 l 208 38 m 218 632 q 226 610 226 621 q 215 584 226 594 q 189 574 203 574 q 163 588 172 574 l 46 738 q 38 758 38 747 q 49 785 38 774 q 76 796 61 796 q 103 782 93 796 l 218 632 z "},"í":{"ha":336,"x_min":99,"x_max":288,"o":"m 99 0 m 186 38 q 151 0 186 0 q 117 38 117 0 l 117 494 q 151 531 117 531 q 186 494 186 531 l 186 38 m 222 782 q 249 796 232 796 q 276 785 264 796 q 288 758 288 774 q 279 738 288 747 l 163 588 q 136 574 153 574 q 110 584 122 574 q 99 610 99 594 q 107 632 99 621 l 222 782 z "},"î":{"ha":329,"x_min":14,"x_max":314,"o":"m 14 0 m 199 38 q 164 0 199 0 q 129 38 129 0 l 129 494 q 164 531 129 531 q 199 494 199 531 l 199 38 m 306 632 q 314 610 314 621 q 302 584 314 594 q 276 574 290 574 q 250 588 260 574 l 164 703 l 78 588 q 51 574 68 574 q 26 584 38 574 q 14 610 14 594 q 22 632 14 621 l 138 782 q 164 796 147 796 q 190 782 181 796 l 306 632 z "},"ï":{"ha":357,"x_min":1,"x_max":356,"o":"m 1 0 m 213 38 q 178 0 213 0 q 143 38 143 0 l 143 494 q 178 531 143 531 q 213 494 213 531 l 213 38 m 238 690 q 255 737 238 718 q 296 756 272 756 q 338 737 319 756 q 356 690 356 718 q 338 644 356 663 q 296 625 319 625 q 255 644 272 625 q 238 690 238 663 m 1 690 q 19 737 1 718 q 60 756 36 756 q 101 737 83 756 q 119 690 119 718 q 101 644 119 663 q 60 625 83 625 q 19 644 36 625 q 1 690 1 663 z "},"ð":{"ha":594,"x_min":69,"x_max":525,"o":"m 414 772 q 492 535 460 667 q 525 265 525 404 q 508 153 525 204 q 459 65 490 103 q 386 7 428 28 q 297 -14 344 -14 q 208 7 249 -14 q 135 65 167 28 q 87 153 104 103 q 69 265 69 204 q 87 376 69 325 q 135 465 104 428 q 208 524 167 503 q 297 544 249 544 q 369 531 335 544 q 431 493 403 517 q 401 612 418 554 q 361 722 383 669 l 250 615 q 226 606 239 606 q 206 615 215 606 q 197 635 197 624 q 208 658 197 649 l 333 778 q 263 875 300 839 q 254 888 256 881 q 253 901 253 894 q 262 927 253 917 q 285 938 271 938 q 313 928 299 938 q 339 902 326 918 q 363 867 351 886 q 386 828 375 847 l 468 907 q 490 915 476 915 q 511 907 501 915 q 521 886 521 899 q 510 864 521 875 l 414 772 m 456 265 q 410 418 456 364 q 297 472 364 472 q 185 418 231 472 q 139 265 139 364 q 185 113 139 167 q 297 58 231 58 q 410 113 364 58 q 456 265 456 167 z "},"ñ":{"ha":599,"x_min":94,"x_max":515,"o":"m 94 0 m 515 35 q 479 0 515 0 q 446 35 446 0 l 446 317 q 414 432 446 392 q 310 472 382 472 q 203 427 242 472 q 164 317 164 382 l 164 35 q 128 0 164 0 q 94 35 94 0 l 94 496 q 128 531 94 531 q 164 496 164 531 l 164 463 q 228 526 190 507 q 318 544 267 544 q 467 486 418 544 q 515 317 515 428 l 515 35 m 425 739 q 436 763 425 754 q 458 771 447 771 q 479 764 469 771 q 489 740 489 757 q 458 645 489 678 q 383 613 426 613 q 324 633 347 613 q 279 676 300 653 q 249 708 264 694 q 217 721 235 721 q 183 703 193 721 q 172 656 172 686 q 162 632 172 640 q 140 624 151 624 q 119 631 128 624 q 110 654 110 638 q 141 749 110 717 q 217 782 172 782 q 276 762 253 782 q 319 718 300 742 q 350 687 335 700 q 382 674 365 674 q 415 691 406 674 q 425 739 425 708 z "},"ò":{"ha":581,"x_min":63,"x_max":518,"o":"m 63 0 m 63 265 q 80 376 63 325 q 128 465 97 428 q 201 524 160 503 q 290 544 242 544 q 379 524 338 544 q 452 465 421 503 q 501 376 483 428 q 518 265 518 325 q 501 153 518 204 q 452 65 483 103 q 379 7 421 28 q 290 -14 338 -14 q 201 7 242 -14 q 128 65 160 28 q 80 153 97 103 q 63 265 63 204 m 449 265 q 403 418 449 364 q 290 472 357 472 q 178 418 224 472 q 132 265 132 364 q 178 113 132 167 q 290 58 224 58 q 403 113 357 58 q 449 265 449 167 m 335 632 q 343 610 343 621 q 331 584 343 594 q 306 574 319 574 q 279 588 289 574 l 163 738 q 154 758 154 747 q 166 785 154 774 q 193 796 178 796 q 219 782 210 796 l 335 632 z "},"ó":{"ha":581,"x_min":63,"x_max":518,"o":"m 63 0 m 63 265 q 80 376 63 325 q 128 465 97 428 q 201 524 160 503 q 290 544 242 544 q 379 524 338 544 q 452 465 421 503 q 501 376 483 428 q 518 265 518 325 q 501 153 518 204 q 452 65 483 103 q 379 7 421 28 q 290 -14 338 -14 q 201 7 242 -14 q 128 65 160 28 q 80 153 97 103 q 63 265 63 204 m 449 265 q 403 418 449 364 q 290 472 357 472 q 178 418 224 472 q 132 265 132 364 q 178 113 132 167 q 290 58 224 58 q 403 113 357 58 q 449 265 449 167 m 361 782 q 388 796 371 796 q 415 785 403 796 q 426 758 426 774 q 418 738 426 747 l 301 588 q 275 574 292 574 q 249 584 261 574 q 238 610 238 594 q 246 632 238 621 l 361 782 z "},"ô":{"ha":581,"x_min":63,"x_max":518,"o":"m 63 0 m 63 265 q 80 376 63 325 q 128 465 97 428 q 201 524 160 503 q 290 544 242 544 q 379 524 338 544 q 452 465 421 503 q 501 376 483 428 q 518 265 518 325 q 501 153 518 204 q 452 65 483 103 q 379 7 421 28 q 290 -14 338 -14 q 201 7 242 -14 q 128 65 160 28 q 80 153 97 103 q 63 265 63 204 m 449 265 q 403 418 449 364 q 290 472 357 472 q 178 418 224 472 q 132 265 132 364 q 178 113 132 167 q 290 58 224 58 q 403 113 357 58 q 449 265 449 167 m 432 632 q 440 610 440 621 q 428 584 440 594 q 403 574 417 574 q 376 588 386 574 l 290 703 l 204 588 q 178 574 194 574 q 152 584 164 574 q 140 610 140 594 q 149 632 140 621 l 264 782 q 290 796 274 796 q 317 782 307 796 l 432 632 z "},"õ":{"ha":581,"x_min":63,"x_max":518,"o":"m 63 0 m 63 265 q 80 376 63 325 q 128 465 97 428 q 201 524 160 503 q 290 544 242 544 q 379 524 338 544 q 452 465 421 503 q 501 376 483 428 q 518 265 518 325 q 501 153 518 204 q 452 65 483 103 q 379 7 421 28 q 290 -14 338 -14 q 201 7 242 -14 q 128 65 160 28 q 80 153 97 103 q 63 265 63 204 m 449 265 q 403 418 449 364 q 290 472 357 472 q 178 418 224 472 q 132 265 132 364 q 178 113 132 167 q 290 58 224 58 q 403 113 357 58 q 449 265 449 167 m 415 739 q 426 763 415 754 q 449 771 438 771 q 469 764 460 771 q 479 740 479 757 q 448 645 479 678 q 374 613 417 613 q 314 633 338 613 q 269 676 290 653 q 240 708 254 694 q 207 721 225 721 q 173 703 183 721 q 163 656 163 686 q 152 632 163 640 q 131 624 142 624 q 109 631 118 624 q 100 654 100 638 q 131 749 100 717 q 207 782 163 782 q 267 762 243 782 q 310 718 290 742 q 340 687 325 700 q 372 674 356 674 q 406 691 396 674 q 415 739 415 708 z "},"ö":{"ha":581,"x_min":63,"x_max":518,"o":"m 63 0 m 63 265 q 80 376 63 325 q 128 465 97 428 q 201 524 160 503 q 290 544 242 544 q 379 524 338 544 q 452 465 421 503 q 501 376 483 428 q 518 265 518 325 q 501 153 518 204 q 452 65 483 103 q 379 7 421 28 q 290 -14 338 -14 q 201 7 242 -14 q 128 65 160 28 q 80 153 97 103 q 63 265 63 204 m 449 265 q 403 418 449 364 q 290 472 357 472 q 178 418 224 472 q 132 265 132 364 q 178 113 132 167 q 290 58 224 58 q 403 113 357 58 q 449 265 449 167 m 349 690 q 366 737 349 718 q 407 756 383 756 q 449 737 431 756 q 467 690 467 718 q 449 644 467 663 q 407 625 431 625 q 366 644 383 625 q 349 690 349 663 m 113 690 q 130 737 113 718 q 171 756 147 756 q 213 737 194 756 q 231 690 231 718 q 213 644 231 663 q 171 625 194 625 q 130 644 147 625 q 113 690 113 663 z "},"÷":{"ha":713,"x_min":94,"x_max":618,"o":"m 94 186 m 583 503 q 618 467 618 503 q 583 432 618 432 l 129 432 q 94 468 94 432 q 129 503 94 503 l 583 503 m 290 678 q 309 729 290 708 q 356 750 328 750 q 403 729 383 750 q 422 678 422 708 q 403 626 422 647 q 356 606 383 606 q 309 626 328 606 q 290 678 290 647 m 290 258 q 309 310 290 289 q 356 331 328 331 q 403 310 383 331 q 422 258 422 289 q 403 207 422 228 q 356 186 383 186 q 309 207 328 186 q 290 258 290 228 z "},"ø":{"ha":581,"x_min":63,"x_max":518,"o":"m 63 265 q 80 376 63 325 q 128 465 97 428 q 201 524 160 503 q 290 544 242 544 q 401 511 349 544 l 443 579 q 474 600 456 600 q 499 590 489 600 q 510 568 510 579 q 503 543 510 556 l 453 463 q 501 376 483 426 q 518 265 518 325 q 501 153 518 204 q 452 65 483 103 q 379 7 421 28 q 290 -14 338 -14 q 231 -5 258 -14 q 179 19 203 4 l 138 -49 q 108 -69 125 -69 q 82 -58 93 -69 q 71 -35 71 -46 q 78 -12 71 -24 l 126 67 q 79 154 96 104 q 63 265 63 204 m 132 265 q 141 190 132 224 q 165 129 150 156 l 364 451 q 328 467 347 461 q 290 472 310 472 q 178 418 224 472 q 132 265 132 364 m 449 265 q 414 400 449 347 l 215 79 q 290 58 249 58 q 403 113 357 58 q 449 265 449 167 z "},"ù":{"ha":599,"x_min":83,"x_max":504,"o":"m 83 0 m 83 496 q 119 531 83 531 q 153 496 153 531 l 153 214 q 185 99 153 139 q 289 58 217 58 q 396 103 357 58 q 435 214 435 149 l 435 496 q 471 531 435 531 q 504 496 504 531 l 504 35 q 471 0 504 0 q 435 35 435 0 l 435 68 q 370 5 408 24 q 281 -14 332 -14 q 132 44 181 -14 q 83 214 83 103 l 83 496 m 343 632 q 351 610 351 621 q 340 584 351 594 q 314 574 328 574 q 288 588 297 574 l 171 738 q 163 758 163 747 q 174 785 163 774 q 201 796 186 796 q 228 782 218 796 l 343 632 z "},"ú":{"ha":599,"x_min":83,"x_max":504,"o":"m 83 0 m 83 496 q 119 531 83 531 q 153 496 153 531 l 153 214 q 185 99 153 139 q 289 58 217 58 q 396 103 357 58 q 435 214 435 149 l 435 496 q 471 531 435 531 q 504 496 504 531 l 504 35 q 471 0 504 0 q 435 35 435 0 l 435 68 q 370 5 408 24 q 281 -14 332 -14 q 132 44 181 -14 q 83 214 83 103 l 83 496 m 369 782 q 396 796 379 796 q 423 785 411 796 q 435 758 435 774 q 426 738 435 747 l 310 588 q 283 574 300 574 q 258 584 269 574 q 246 610 246 594 q 254 632 246 621 l 369 782 z "},"û":{"ha":599,"x_min":83,"x_max":504,"o":"m 83 0 m 83 496 q 119 531 83 531 q 153 496 153 531 l 153 214 q 185 99 153 139 q 289 58 217 58 q 396 103 357 58 q 435 214 435 149 l 435 496 q 471 531 435 531 q 504 496 504 531 l 504 35 q 471 0 504 0 q 435 35 435 0 l 435 68 q 370 5 408 24 q 281 -14 332 -14 q 132 44 181 -14 q 83 214 83 103 l 83 496 m 440 632 q 449 610 449 621 q 437 584 449 594 q 411 574 425 574 q 385 588 394 574 l 299 703 l 213 588 q 186 574 203 574 q 160 584 172 574 q 149 610 149 594 q 157 632 149 621 l 272 782 q 299 796 282 796 q 325 782 315 796 l 440 632 z "},"ü":{"ha":610,"x_min":83,"x_max":504,"o":"m 83 0 m 83 496 q 119 531 83 531 q 153 496 153 531 l 153 214 q 185 99 153 139 q 289 58 217 58 q 396 103 357 58 q 435 214 435 149 l 435 496 q 471 531 435 531 q 504 496 504 531 l 504 35 q 471 0 504 0 q 435 35 435 0 l 435 68 q 370 5 408 24 q 281 -14 332 -14 q 132 44 181 -14 q 83 214 83 103 l 83 496 m 356 690 q 373 737 356 718 q 414 756 390 756 q 456 737 438 756 q 474 690 474 718 q 456 644 474 663 q 414 625 438 625 q 373 644 390 625 q 356 690 356 663 m 119 690 q 137 737 119 718 q 178 756 154 756 q 219 737 201 756 q 238 690 238 718 q 219 644 238 663 q 178 625 201 625 q 137 644 154 625 q 119 690 119 663 z "},"ý":{"ha":543,"x_min":32,"x_max":511,"o":"m 32 0 m 106 -387 q 78 -407 96 -407 q 55 -397 65 -407 q 44 -372 44 -387 q 49 -353 44 -364 l 239 61 l 36 479 q 32 497 32 488 q 43 522 32 513 q 67 531 54 531 q 97 511 88 531 l 279 139 l 450 514 q 476 531 458 531 q 500 522 489 531 q 511 499 511 513 q 508 488 511 496 l 106 -387 m 349 782 q 375 796 358 796 q 402 785 390 796 q 414 758 414 774 q 406 738 414 747 l 289 588 q 263 574 279 574 q 237 584 249 574 q 225 610 225 594 q 233 632 225 621 l 349 782 z "},"þ":{"ha":613,"x_min":94,"x_max":550,"o":"m 164 460 q 232 522 192 500 q 322 544 272 544 q 411 524 369 544 q 484 465 453 503 q 533 376 515 428 q 550 265 550 325 q 533 153 550 204 q 484 65 515 103 q 411 7 453 28 q 322 -14 369 -14 q 232 8 272 -14 q 164 69 192 29 l 164 -369 q 131 -407 164 -407 q 94 -369 94 -407 l 94 899 q 131 938 94 938 q 164 899 164 938 l 164 460 m 481 265 q 435 418 481 364 q 322 472 389 472 q 211 420 256 472 q 164 275 167 368 l 164 265 q 210 113 164 167 q 322 58 256 58 q 435 113 389 58 q 481 265 481 167 z "},"ÿ":{"ha":543,"x_min":32,"x_max":511,"o":"m 32 0 m 106 -387 q 78 -407 96 -407 q 55 -397 65 -407 q 44 -372 44 -387 q 49 -353 44 -364 l 239 61 l 36 479 q 32 497 32 488 q 43 522 32 513 q 67 531 54 531 q 97 511 88 531 l 279 139 l 450 514 q 476 531 458 531 q 500 522 489 531 q 511 499 511 513 q 508 488 511 496 l 106 -387 m 340 690 q 358 737 340 718 q 399 756 375 756 q 440 737 422 756 q 458 690 458 718 q 440 644 458 663 q 399 625 422 625 q 358 644 375 625 q 340 690 340 663 m 104 690 q 122 737 104 718 q 163 756 139 756 q 204 737 186 756 q 222 690 222 718 q 204 644 222 663 q 163 625 186 625 q 122 644 139 625 q 104 690 104 663 z "},"Ā":{"ha":789,"x_min":32,"x_max":757,"o":"m 32 0 m 100 26 q 71 0 90 0 q 42 10 53 0 q 32 32 32 21 q 36 51 32 40 l 353 907 q 371 930 360 922 q 394 938 382 938 q 419 930 408 938 q 436 907 431 922 l 753 51 q 757 32 757 40 q 747 10 757 21 q 718 0 736 0 q 689 26 699 0 l 574 333 l 215 333 l 100 26 m 242 404 l 547 404 l 394 813 l 242 404 m 538 1126 q 572 1090 572 1126 q 538 1056 572 1056 l 250 1056 q 215 1092 215 1056 q 250 1126 215 1126 l 538 1126 z "},"ā":{"ha":613,"x_min":63,"x_max":518,"o":"m 63 0 m 449 492 q 482 531 449 531 q 518 492 518 531 l 518 38 q 482 0 518 0 q 449 38 449 0 l 449 69 q 381 8 421 29 q 290 -14 340 -14 q 201 7 242 -14 q 128 65 160 28 q 80 153 97 103 q 63 265 63 204 q 80 376 63 325 q 128 465 97 428 q 201 524 160 503 q 290 544 242 544 q 381 522 340 544 q 449 460 421 500 l 449 492 m 132 265 q 178 113 132 167 q 290 58 224 58 q 403 113 357 58 q 449 265 449 167 l 449 275 q 401 420 446 368 q 290 472 357 472 q 178 418 224 472 q 132 265 132 364 m 439 719 q 474 683 474 719 q 439 649 474 649 l 151 649 q 117 685 117 649 q 151 719 117 719 l 439 719 z "},"Ă":{"ha":789,"x_min":32,"x_max":757,"o":"m 32 0 m 100 26 q 71 0 90 0 q 42 10 53 0 q 32 32 32 21 q 36 51 32 40 l 353 907 q 371 930 360 922 q 394 938 382 938 q 419 930 408 938 q 436 907 431 922 l 753 51 q 757 32 757 40 q 747 10 757 21 q 718 0 736 0 q 689 26 699 0 l 574 333 l 215 333 l 100 26 m 242 404 l 547 404 l 394 813 l 242 404 m 221 1168 q 229 1194 221 1185 q 250 1203 238 1203 q 282 1175 275 1203 q 294 1132 288 1153 q 312 1096 300 1111 q 343 1071 324 1081 q 394 1061 363 1061 q 445 1071 425 1061 q 477 1096 465 1081 q 495 1132 489 1111 q 507 1175 501 1153 q 539 1203 514 1203 q 560 1194 551 1203 q 568 1168 568 1185 q 553 1108 568 1146 q 517 1049 539 1071 q 462 1013 493 1025 q 394 1000 431 1000 q 327 1013 358 1000 q 272 1049 296 1025 q 235 1108 250 1071 q 221 1168 221 1146 z "},"ă":{"ha":613,"x_min":63,"x_max":518,"o":"m 63 0 m 449 492 q 482 531 449 531 q 518 492 518 531 l 518 38 q 482 0 518 0 q 449 38 449 0 l 449 69 q 381 8 421 29 q 290 -14 340 -14 q 201 7 242 -14 q 128 65 160 28 q 80 153 97 103 q 63 265 63 204 q 80 376 63 325 q 128 465 97 428 q 201 524 160 503 q 290 544 242 544 q 381 522 340 544 q 449 460 421 500 l 449 492 m 132 265 q 178 113 132 167 q 290 58 224 58 q 403 113 357 58 q 449 265 449 167 l 449 275 q 401 420 446 368 q 290 472 357 472 q 178 418 224 472 q 132 265 132 364 m 118 761 q 126 787 118 778 q 147 796 135 796 q 179 768 172 796 q 191 725 185 746 q 209 689 197 704 q 240 664 221 674 q 292 654 260 654 q 342 664 322 654 q 374 689 363 674 q 392 725 386 704 q 404 768 399 746 q 436 796 411 796 q 457 787 449 796 q 465 761 465 778 q 451 701 465 739 q 414 642 436 664 q 359 606 390 618 q 292 593 328 593 q 224 606 256 593 q 169 642 193 618 q 133 701 147 664 q 118 761 118 739 z "},"Ą":{"ha":789,"x_min":32,"x_max":785,"o":"m 461 -217 q 480 -128 461 -169 q 529 -53 499 -87 q 599 8 560 -19 q 678 54 638 35 l 574 333 l 215 333 l 100 26 q 71 0 90 0 q 42 10 53 0 q 32 32 32 21 q 36 51 32 40 l 353 907 q 370 930 358 922 q 394 938 382 938 q 436 907 424 938 l 753 51 q 757 32 757 40 q 726 0 757 10 q 653 -33 689 -12 q 590 -81 618 -53 q 546 -144 563 -108 q 529 -225 529 -181 q 567 -308 529 -281 q 656 -336 604 -336 q 718 -326 689 -336 q 735 -321 725 -324 q 751 -318 744 -318 q 777 -327 769 -318 q 785 -350 785 -336 q 770 -376 785 -365 q 735 -394 756 -387 q 690 -403 714 -400 q 650 -406 667 -406 q 583 -395 617 -406 q 522 -362 549 -385 q 478 -303 494 -339 q 461 -217 461 -267 m 242 404 l 547 404 l 394 813 l 242 404 z "},"ą":{"ha":613,"x_min":63,"x_max":554,"o":"m 518 10 q 513 -8 518 1 q 497 -22 508 -18 q 426 -53 461 -36 q 363 -93 390 -69 q 317 -149 335 -117 q 299 -225 299 -181 q 336 -308 299 -281 q 425 -336 374 -336 q 488 -326 458 -336 q 504 -321 494 -324 q 521 -318 514 -318 q 547 -327 539 -318 q 554 -350 554 -336 q 540 -376 554 -365 q 504 -394 525 -387 q 460 -403 483 -400 q 419 -406 436 -406 q 352 -395 386 -406 q 291 -362 318 -385 q 247 -303 264 -339 q 231 -217 231 -267 q 251 -134 231 -171 q 303 -69 271 -97 q 373 -22 335 -42 q 449 13 411 -1 l 449 83 q 381 22 421 43 q 290 0 340 0 q 201 19 242 0 q 128 72 160 38 q 80 156 97 107 q 63 265 63 204 q 80 376 63 325 q 128 465 97 428 q 201 524 160 503 q 290 544 242 544 q 381 522 340 544 q 449 460 421 500 l 449 492 q 482 531 449 531 q 518 492 518 531 l 518 10 m 132 265 q 178 119 132 167 q 290 72 224 72 q 403 119 357 72 q 449 265 449 167 l 449 275 q 401 420 446 368 q 290 472 357 472 q 178 418 224 472 q 132 265 132 364 z "},"Ć":{"ha":847,"x_min":69,"x_max":783,"o":"m 69 0 m 69 472 q 99 661 69 574 q 181 813 128 749 q 309 915 233 878 q 479 951 385 951 q 588 937 538 951 q 682 896 638 922 q 733 858 710 879 q 776 814 756 838 q 783 794 783 806 q 773 768 783 779 q 747 757 763 757 q 722 769 735 757 q 646 835 690 807 q 569 867 610 856 q 479 879 528 879 q 335 848 399 879 q 228 762 272 817 q 162 633 185 707 q 139 472 139 558 q 162 310 139 386 q 228 178 185 235 q 335 90 272 122 q 479 58 399 58 q 656 110 581 58 q 726 175 694 136 q 747 185 735 185 q 772 174 761 185 q 783 149 783 164 q 775 125 783 135 q 694 50 743 83 q 479 -14 603 -14 q 309 24 385 -14 q 181 128 233 63 q 99 283 128 194 q 69 472 69 371 m 536 1189 q 563 1203 546 1203 q 590 1192 578 1203 q 601 1165 601 1181 q 593 1144 601 1154 l 476 994 q 450 981 467 981 q 424 991 436 981 q 413 1017 413 1001 q 421 1039 413 1028 l 536 1189 z "},"ć":{"ha":540,"x_min":63,"x_max":485,"o":"m 63 0 m 63 265 q 80 376 63 325 q 128 465 97 428 q 201 524 160 503 q 290 544 242 544 q 362 533 326 544 q 425 497 397 521 q 456 467 439 486 q 472 425 472 447 q 462 399 472 410 q 438 388 451 388 q 411 404 421 388 q 364 456 392 439 q 290 472 336 472 q 178 418 224 472 q 132 265 132 364 q 178 113 132 167 q 290 58 224 58 q 417 131 383 58 q 433 152 424 146 q 451 158 442 158 q 475 149 465 158 q 485 124 485 139 q 467 83 485 104 q 435 46 450 61 q 369 2 406 18 q 290 -14 332 -14 q 201 7 242 -14 q 128 65 160 28 q 80 153 97 103 q 63 265 63 204 m 354 782 q 381 796 364 796 q 408 785 396 796 q 419 758 419 774 q 411 738 419 747 l 294 588 q 268 574 285 574 q 242 584 254 574 q 231 610 231 594 q 239 632 231 621 l 354 782 z "},"Ċ":{"ha":847,"x_min":69,"x_max":783,"o":"m 69 0 m 69 472 q 99 661 69 574 q 181 813 128 749 q 309 915 233 878 q 479 951 385 951 q 588 937 538 951 q 682 896 638 922 q 733 858 710 879 q 776 814 756 838 q 783 794 783 806 q 773 768 783 779 q 747 757 763 757 q 722 769 735 757 q 646 835 690 807 q 569 867 610 856 q 479 879 528 879 q 335 848 399 879 q 228 762 272 817 q 162 633 185 707 q 139 472 139 558 q 162 310 139 386 q 228 178 185 235 q 335 90 272 122 q 479 58 399 58 q 656 110 581 58 q 726 175 694 136 q 747 185 735 185 q 772 174 761 185 q 783 149 783 164 q 775 125 783 135 q 694 50 743 83 q 479 -14 603 -14 q 309 24 385 -14 q 181 128 233 63 q 99 283 128 194 q 69 472 69 371 m 406 1097 q 423 1144 406 1125 q 464 1163 440 1163 q 506 1144 488 1163 q 524 1097 524 1125 q 506 1051 524 1069 q 464 1032 488 1032 q 423 1051 440 1032 q 406 1097 406 1069 z "},"ċ":{"ha":540,"x_min":63,"x_max":485,"o":"m 63 0 m 63 265 q 80 376 63 325 q 128 465 97 428 q 201 524 160 503 q 290 544 242 544 q 362 533 326 544 q 425 497 397 521 q 456 467 439 486 q 472 425 472 447 q 462 399 472 410 q 438 388 451 388 q 411 404 421 388 q 364 456 392 439 q 290 472 336 472 q 178 418 224 472 q 132 265 132 364 q 178 113 132 167 q 290 58 224 58 q 417 131 383 58 q 433 152 424 146 q 451 158 442 158 q 475 149 465 158 q 485 124 485 139 q 467 83 485 104 q 435 46 450 61 q 369 2 406 18 q 290 -14 332 -14 q 201 7 242 -14 q 128 65 160 28 q 80 153 97 103 q 63 265 63 204 m 225 690 q 242 737 225 718 q 283 756 260 756 q 325 737 307 756 q 343 690 343 718 q 325 644 343 663 q 283 625 307 625 q 242 644 260 625 q 225 690 225 663 z "},"Č":{"ha":847,"x_min":69,"x_max":783,"o":"m 69 0 m 69 472 q 99 661 69 574 q 181 813 128 749 q 309 915 233 878 q 479 951 385 951 q 588 937 538 951 q 682 896 638 922 q 733 858 710 879 q 776 814 756 838 q 783 794 783 806 q 773 768 783 779 q 747 757 763 757 q 722 769 735 757 q 646 835 690 807 q 569 867 610 856 q 479 879 528 879 q 335 848 399 879 q 228 762 272 817 q 162 633 185 707 q 139 472 139 558 q 162 310 139 386 q 228 178 185 235 q 335 90 272 122 q 479 58 399 58 q 656 110 581 58 q 726 175 694 136 q 747 185 735 185 q 772 174 761 185 q 783 149 783 164 q 775 125 783 135 q 694 50 743 83 q 479 -14 603 -14 q 309 24 385 -14 q 181 128 233 63 q 99 283 128 194 q 69 472 69 371 m 324 1144 q 315 1167 315 1154 q 327 1192 315 1182 q 353 1203 339 1203 q 379 1189 369 1203 l 465 1074 l 551 1189 q 578 1203 561 1203 q 603 1192 592 1203 q 615 1167 615 1182 q 607 1144 615 1154 l 492 994 q 465 981 482 981 q 439 994 449 981 l 324 1144 z "},"č":{"ha":540,"x_min":63,"x_max":485,"o":"m 63 0 m 63 265 q 80 376 63 325 q 128 465 97 428 q 201 524 160 503 q 290 544 242 544 q 362 533 326 544 q 425 497 397 521 q 456 467 439 486 q 472 425 472 447 q 462 399 472 410 q 438 388 451 388 q 411 404 421 388 q 364 456 392 439 q 290 472 336 472 q 178 418 224 472 q 132 265 132 364 q 178 113 132 167 q 290 58 224 58 q 417 131 383 58 q 433 152 424 146 q 451 158 442 158 q 475 149 465 158 q 485 124 485 139 q 467 83 485 104 q 435 46 450 61 q 369 2 406 18 q 290 -14 332 -14 q 201 7 242 -14 q 128 65 160 28 q 80 153 97 103 q 63 265 63 204 m 142 738 q 133 760 133 747 q 145 785 133 775 q 171 796 157 796 q 197 782 188 796 l 283 667 l 369 782 q 396 796 379 796 q 422 785 410 796 q 433 760 433 775 q 425 738 433 747 l 310 588 q 283 574 300 574 q 257 588 267 574 l 142 738 z "},"Ď":{"ha":854,"x_min":94,"x_max":785,"o":"m 94 0 m 785 468 q 751 285 785 369 q 660 136 718 200 q 521 36 601 72 q 346 0 440 0 l 129 0 q 94 35 94 0 l 94 903 q 129 938 94 938 l 342 938 q 519 901 438 938 q 659 801 600 865 q 751 652 718 738 q 785 468 785 567 m 719 465 q 691 617 719 544 q 612 744 663 689 q 492 832 561 799 q 342 865 422 865 l 164 865 l 164 72 l 346 72 q 492 104 424 72 q 610 190 560 136 q 690 316 661 244 q 719 465 719 388 m 229 1144 q 221 1167 221 1154 q 233 1192 221 1182 q 258 1203 244 1203 q 285 1189 275 1203 l 371 1074 l 457 1189 q 483 1203 467 1203 q 509 1192 497 1203 q 521 1167 521 1182 q 513 1144 521 1154 l 397 994 q 371 981 388 981 q 344 994 354 981 l 229 1144 z "},"ď":{"ha":731,"x_min":63,"x_max":749,"o":"m 63 0 m 449 899 q 482 938 449 938 q 518 899 518 938 l 518 38 q 482 0 518 0 q 449 38 449 0 l 449 69 q 381 8 421 29 q 290 -14 340 -14 q 201 7 242 -14 q 128 65 160 28 q 80 153 97 103 q 63 265 63 204 q 80 376 63 325 q 128 465 97 428 q 201 524 160 503 q 290 544 242 544 q 381 522 340 544 q 449 460 421 500 l 449 899 m 132 265 q 178 113 132 167 q 290 58 224 58 q 403 113 357 58 q 449 265 449 167 l 449 275 q 401 420 446 368 q 290 472 357 472 q 178 418 224 472 q 132 265 132 364 m 683 957 q 710 971 693 971 q 737 960 725 971 q 749 933 749 949 q 740 913 749 922 l 624 763 q 597 749 614 749 q 572 759 583 749 q 560 785 560 769 q 568 807 560 796 l 683 957 z "},"Đ":{"ha":851,"x_min":0,"x_max":782,"o":"m 0 0 m 782 468 q 749 285 782 369 q 657 136 715 200 q 518 36 599 72 q 343 0 438 0 l 126 0 q 92 35 92 0 l 92 432 l 35 432 q 0 467 0 432 q 35 503 0 503 l 92 503 l 92 903 q 126 938 92 938 l 339 938 q 516 901 435 938 q 656 801 597 865 q 749 652 715 738 q 782 468 782 567 m 717 465 q 688 617 717 544 q 609 744 660 689 q 489 832 558 799 q 339 865 419 865 l 161 865 l 161 503 l 436 503 q 471 467 471 503 q 436 432 471 432 l 161 432 l 161 72 l 343 72 q 489 104 421 72 q 608 190 557 136 q 688 316 658 244 q 717 465 717 388 z "},"đ":{"ha":613,"x_min":63,"x_max":613,"o":"m 449 719 l 449 899 q 482 938 449 938 q 518 899 518 938 l 518 719 l 578 719 q 613 683 613 719 q 578 649 613 649 l 518 649 l 518 38 q 482 0 518 0 q 449 38 449 0 l 449 69 q 381 8 421 29 q 290 -14 340 -14 q 201 7 242 -14 q 128 65 160 28 q 80 153 97 103 q 63 265 63 204 q 80 376 63 325 q 128 465 97 428 q 201 524 160 503 q 290 544 242 544 q 381 522 340 544 q 449 460 421 500 l 449 649 l 290 649 q 256 685 256 649 q 290 719 256 719 l 449 719 m 132 265 q 178 113 132 167 q 290 58 224 58 q 403 113 357 58 q 449 265 449 167 l 449 275 q 401 420 446 368 q 290 472 357 472 q 178 418 224 472 q 132 265 132 364 z "},"Ē":{"ha":646,"x_min":94,"x_max":581,"o":"m 94 0 m 581 36 q 547 0 581 0 l 129 0 q 94 35 94 0 l 94 903 q 129 938 94 938 l 547 938 q 581 903 581 938 q 547 865 581 865 l 164 865 l 164 503 l 461 503 q 496 467 496 503 q 461 432 496 432 l 164 432 l 164 72 l 547 72 q 581 36 581 72 m 492 1126 q 526 1090 526 1126 q 492 1056 526 1056 l 204 1056 q 169 1092 169 1056 q 204 1126 169 1126 l 492 1126 z "},"ē":{"ha":565,"x_min":63,"x_max":514,"o":"m 63 0 m 290 544 q 417 501 361 544 q 499 382 472 457 q 508 352 503 371 q 514 315 514 333 q 507 289 514 300 q 481 278 500 278 l 132 278 l 132 265 q 178 113 132 167 q 290 58 224 58 q 417 131 383 58 q 433 152 424 146 q 451 158 442 158 q 475 149 465 158 q 485 124 485 139 q 467 83 485 104 q 435 46 450 61 q 369 2 406 18 q 290 -14 332 -14 q 201 7 242 -14 q 128 65 160 28 q 80 153 97 103 q 63 265 63 204 q 77 362 63 313 q 120 451 92 411 q 191 518 149 492 q 290 544 233 544 m 290 472 q 196 437 232 472 q 144 350 160 401 l 436 350 q 379 440 418 408 q 290 472 340 472 m 432 719 q 467 683 467 719 q 432 649 467 649 l 144 649 q 110 685 110 649 q 144 719 110 719 l 432 719 z "},"Ĕ":{"ha":646,"x_min":94,"x_max":581,"o":"m 94 0 m 581 36 q 547 0 581 0 l 129 0 q 94 35 94 0 l 94 903 q 129 938 94 938 l 547 938 q 581 903 581 938 q 547 865 581 865 l 164 865 l 164 503 l 461 503 q 496 467 496 503 q 461 432 496 432 l 164 432 l 164 72 l 547 72 q 581 36 581 72 m 174 1168 q 182 1194 174 1185 q 203 1203 190 1203 q 235 1175 228 1203 q 247 1132 240 1153 q 265 1096 253 1111 q 296 1071 276 1081 q 347 1061 315 1061 q 398 1071 378 1061 q 430 1096 418 1081 q 448 1132 442 1111 q 460 1175 454 1153 q 492 1203 467 1203 q 513 1194 504 1203 q 521 1168 521 1185 q 506 1108 521 1146 q 469 1049 492 1071 q 415 1013 446 1025 q 347 1000 383 1000 q 280 1013 311 1000 q 225 1049 249 1025 q 188 1108 203 1071 q 174 1168 174 1146 z "},"ĕ":{"ha":565,"x_min":63,"x_max":514,"o":"m 63 0 m 290 544 q 417 501 361 544 q 499 382 472 457 q 508 352 503 371 q 514 315 514 333 q 507 289 514 300 q 481 278 500 278 l 132 278 l 132 265 q 178 113 132 167 q 290 58 224 58 q 417 131 383 58 q 433 152 424 146 q 451 158 442 158 q 475 149 465 158 q 485 124 485 139 q 467 83 485 104 q 435 46 450 61 q 369 2 406 18 q 290 -14 332 -14 q 201 7 242 -14 q 128 65 160 28 q 80 153 97 103 q 63 265 63 204 q 77 362 63 313 q 120 451 92 411 q 191 518 149 492 q 290 544 233 544 m 290 472 q 196 437 232 472 q 144 350 160 401 l 436 350 q 379 440 418 408 q 290 472 340 472 m 114 761 q 122 787 114 778 q 143 796 131 796 q 175 768 168 796 q 187 725 181 746 q 205 689 193 704 q 236 664 217 674 q 288 654 256 654 q 338 664 318 654 q 370 689 358 674 q 388 725 382 704 q 400 768 394 746 q 432 796 407 796 q 453 787 444 796 q 461 761 461 778 q 447 701 461 739 q 410 642 432 664 q 355 606 386 618 q 288 593 324 593 q 220 606 251 593 q 165 642 189 618 q 128 701 143 664 q 114 761 114 739 z "},"Ė":{"ha":646,"x_min":94,"x_max":581,"o":"m 94 0 m 581 36 q 547 0 581 0 l 129 0 q 94 35 94 0 l 94 903 q 129 938 94 938 l 547 938 q 581 903 581 938 q 547 865 581 865 l 164 865 l 164 503 l 461 503 q 496 467 496 503 q 461 432 496 432 l 164 432 l 164 72 l 547 72 q 581 36 581 72 m 289 1097 q 306 1144 289 1125 q 347 1163 324 1163 q 389 1144 371 1163 q 407 1097 407 1125 q 389 1051 407 1069 q 347 1032 371 1032 q 306 1051 324 1032 q 289 1097 289 1069 z "},"ė":{"ha":565,"x_min":63,"x_max":514,"o":"m 63 0 m 290 544 q 417 501 361 544 q 499 382 472 457 q 508 352 503 371 q 514 315 514 333 q 507 289 514 300 q 481 278 500 278 l 132 278 l 132 265 q 178 113 132 167 q 290 58 224 58 q 417 131 383 58 q 433 152 424 146 q 451 158 442 158 q 475 149 465 158 q 485 124 485 139 q 467 83 485 104 q 435 46 450 61 q 369 2 406 18 q 290 -14 332 -14 q 201 7 242 -14 q 128 65 160 28 q 80 153 97 103 q 63 265 63 204 q 77 362 63 313 q 120 451 92 411 q 191 518 149 492 q 290 544 233 544 m 290 472 q 196 437 232 472 q 144 350 160 401 l 436 350 q 379 440 418 408 q 290 472 340 472 m 229 690 q 247 737 229 718 q 288 756 264 756 q 329 737 311 756 q 347 690 347 718 q 329 644 347 663 q 288 625 311 625 q 247 644 264 625 q 229 690 229 663 z "},"Ę":{"ha":646,"x_min":94,"x_max":615,"o":"m 581 36 q 557 0 581 8 q 485 -33 521 -12 q 422 -81 450 -53 q 377 -145 394 -110 q 360 -225 360 -181 q 397 -308 360 -281 q 486 -336 435 -336 q 549 -326 519 -336 q 565 -321 556 -324 q 582 -318 575 -318 q 608 -327 600 -318 q 615 -350 615 -336 q 601 -376 615 -365 q 565 -394 586 -387 q 521 -403 544 -400 q 481 -406 497 -406 q 413 -395 447 -406 q 352 -362 379 -385 q 308 -303 325 -339 q 292 -217 292 -267 q 330 -92 292 -146 q 421 0 368 -39 l 129 0 q 94 35 94 0 l 94 903 q 129 938 94 938 l 547 938 q 581 903 581 938 q 547 865 581 865 l 164 865 l 164 503 l 461 503 q 496 467 496 503 q 461 432 496 432 l 164 432 l 164 72 l 547 72 q 581 36 581 72 z "},"ę":{"ha":565,"x_min":63,"x_max":514,"o":"m 290 544 q 417 501 361 544 q 499 382 472 457 q 508 352 503 371 q 514 315 514 333 q 507 289 514 300 q 481 278 500 278 l 132 278 l 132 265 q 178 113 132 167 q 290 58 224 58 q 417 131 383 58 q 433 152 424 146 q 451 158 442 158 q 475 149 465 158 q 485 124 485 139 q 467 83 485 104 q 435 46 450 61 q 398 18 418 29 q 357 -1 378 7 q 290 -36 322 -15 q 231 -85 257 -57 q 190 -148 206 -112 q 175 -225 175 -183 q 213 -308 175 -281 q 301 -336 250 -336 q 364 -326 335 -336 q 381 -321 371 -324 q 397 -318 390 -318 q 423 -327 415 -318 q 431 -350 431 -336 q 416 -376 431 -365 q 381 -394 401 -387 q 336 -403 360 -400 q 296 -406 313 -406 q 228 -395 263 -406 q 167 -362 194 -385 q 124 -303 140 -339 q 107 -217 107 -267 q 142 -95 107 -147 q 229 -4 178 -43 q 163 31 193 7 q 110 91 132 56 q 75 171 88 126 q 63 265 63 215 q 77 362 63 313 q 120 451 92 411 q 191 518 149 492 q 290 544 233 544 m 290 472 q 196 437 232 472 q 144 350 160 401 l 436 350 q 379 440 418 408 q 290 472 340 472 z "},"Ě":{"ha":646,"x_min":94,"x_max":581,"o":"m 94 0 m 581 36 q 547 0 581 0 l 129 0 q 94 35 94 0 l 94 903 q 129 938 94 938 l 547 938 q 581 903 581 938 q 547 865 581 865 l 164 865 l 164 503 l 461 503 q 496 467 496 503 q 461 432 496 432 l 164 432 l 164 72 l 547 72 q 581 36 581 72 m 206 1144 q 197 1167 197 1154 q 209 1192 197 1182 q 235 1203 221 1203 q 261 1189 251 1203 l 347 1074 l 433 1189 q 460 1203 443 1203 q 485 1192 474 1203 q 497 1167 497 1182 q 489 1144 497 1154 l 374 994 q 347 981 364 981 q 321 994 331 981 l 206 1144 z "},"ě":{"ha":565,"x_min":63,"x_max":514,"o":"m 63 0 m 290 544 q 417 501 361 544 q 499 382 472 457 q 508 352 503 371 q 514 315 514 333 q 507 289 514 300 q 481 278 500 278 l 132 278 l 132 265 q 178 113 132 167 q 290 58 224 58 q 417 131 383 58 q 433 152 424 146 q 451 158 442 158 q 475 149 465 158 q 485 124 485 139 q 467 83 485 104 q 435 46 450 61 q 369 2 406 18 q 290 -14 332 -14 q 201 7 242 -14 q 128 65 160 28 q 80 153 97 103 q 63 265 63 204 q 77 362 63 313 q 120 451 92 411 q 191 518 149 492 q 290 544 233 544 m 290 472 q 196 437 232 472 q 144 350 160 401 l 436 350 q 379 440 418 408 q 290 472 340 472 m 140 738 q 132 760 132 747 q 144 785 132 775 q 169 796 156 796 q 196 782 186 796 l 282 667 l 368 782 q 394 796 378 796 q 420 785 408 796 q 432 760 432 775 q 424 738 432 747 l 308 588 q 282 574 299 574 q 256 588 265 574 l 140 738 z "},"Ğ":{"ha":981,"x_min":69,"x_max":914,"o":"m 69 0 m 879 503 q 914 467 914 503 q 883 281 914 368 q 797 128 853 194 q 664 24 742 63 q 493 -14 586 -14 q 321 24 399 -14 q 188 128 243 63 q 101 283 132 194 q 69 472 69 371 q 101 661 69 574 q 190 813 133 749 q 324 915 246 878 q 497 951 403 951 q 611 937 554 951 q 713 896 668 922 q 742 875 725 888 q 776 848 760 863 q 803 819 792 833 q 814 794 814 806 q 803 768 814 779 q 778 757 793 757 q 753 769 765 757 q 642 849 710 819 q 497 879 575 879 q 351 848 417 879 q 238 762 285 817 q 165 633 190 707 q 139 472 139 558 q 164 310 139 386 q 235 178 189 235 q 347 90 282 122 q 493 58 413 58 q 631 87 568 58 q 738 166 693 115 q 810 285 783 217 q 843 432 838 353 l 428 432 q 393 468 393 432 q 428 503 393 503 l 879 503 m 317 1168 q 325 1194 317 1185 q 346 1203 333 1203 q 378 1175 371 1203 q 390 1132 383 1153 q 408 1096 396 1111 q 439 1071 419 1081 q 490 1061 458 1061 q 541 1071 521 1061 q 573 1096 561 1081 q 591 1132 585 1111 q 603 1175 597 1153 q 635 1203 610 1203 q 656 1194 647 1203 q 664 1168 664 1185 q 649 1108 664 1146 q 613 1049 635 1071 q 558 1013 589 1025 q 490 1000 526 1000 q 423 1013 454 1000 q 368 1049 392 1025 q 331 1108 346 1071 q 317 1168 317 1146 z "},"ğ":{"ha":613,"x_min":63,"x_max":518,"o":"m 63 0 m 449 71 q 381 8 421 31 q 290 -14 340 -14 q 201 7 242 -14 q 128 65 160 28 q 80 153 97 103 q 63 265 63 204 q 80 376 63 325 q 128 465 97 428 q 201 524 160 503 q 290 544 242 544 q 381 523 340 544 q 449 461 421 501 l 449 493 q 482 531 449 531 q 518 493 518 531 l 518 -142 q 501 -253 518 -203 q 452 -342 483 -304 q 379 -400 421 -379 q 290 -421 338 -421 q 212 -405 249 -421 q 146 -361 175 -389 q 113 -324 131 -346 q 96 -283 96 -303 q 106 -258 96 -268 q 129 -249 115 -249 q 148 -255 139 -249 q 164 -276 157 -261 q 290 -349 197 -349 q 403 -294 357 -349 q 449 -142 449 -240 l 449 71 m 132 265 q 178 113 132 167 q 290 58 224 58 q 401 110 357 58 q 449 256 446 163 l 449 265 q 403 418 449 364 q 290 472 357 472 q 178 418 224 472 q 132 265 132 364 m 118 761 q 126 787 118 778 q 147 796 135 796 q 179 768 172 796 q 191 725 185 746 q 209 689 197 704 q 240 664 221 674 q 292 654 260 654 q 342 664 322 654 q 374 689 363 674 q 392 725 386 704 q 404 768 399 746 q 436 796 411 796 q 457 787 449 796 q 465 761 465 778 q 451 701 465 739 q 414 642 436 664 q 359 606 390 618 q 292 593 328 593 q 224 606 256 593 q 169 642 193 618 q 133 701 147 664 q 118 761 118 739 z "},"Ġ":{"ha":981,"x_min":69,"x_max":914,"o":"m 69 0 m 879 503 q 914 467 914 503 q 883 281 914 368 q 797 128 853 194 q 664 24 742 63 q 493 -14 586 -14 q 321 24 399 -14 q 188 128 243 63 q 101 283 132 194 q 69 472 69 371 q 101 661 69 574 q 190 813 133 749 q 324 915 246 878 q 497 951 403 951 q 611 937 554 951 q 713 896 668 922 q 742 875 725 888 q 776 848 760 863 q 803 819 792 833 q 814 794 814 806 q 803 768 814 779 q 778 757 793 757 q 753 769 765 757 q 642 849 710 819 q 497 879 575 879 q 351 848 417 879 q 238 762 285 817 q 165 633 190 707 q 139 472 139 558 q 164 310 139 386 q 235 178 189 235 q 347 90 282 122 q 493 58 413 58 q 631 87 568 58 q 738 166 693 115 q 810 285 783 217 q 843 432 838 353 l 428 432 q 393 468 393 432 q 428 503 393 503 l 879 503 m 431 1097 q 448 1144 431 1125 q 489 1163 465 1163 q 531 1144 513 1163 q 549 1097 549 1125 q 531 1051 549 1069 q 489 1032 513 1032 q 448 1051 465 1032 q 431 1097 431 1069 z "},"ġ":{"ha":613,"x_min":63,"x_max":518,"o":"m 63 0 m 449 71 q 381 8 421 31 q 290 -14 340 -14 q 201 7 242 -14 q 128 65 160 28 q 80 153 97 103 q 63 265 63 204 q 80 376 63 325 q 128 465 97 428 q 201 524 160 503 q 290 544 242 544 q 381 523 340 544 q 449 461 421 501 l 449 493 q 482 531 449 531 q 518 493 518 531 l 518 -142 q 501 -253 518 -203 q 452 -342 483 -304 q 379 -400 421 -379 q 290 -421 338 -421 q 212 -405 249 -421 q 146 -361 175 -389 q 113 -324 131 -346 q 96 -283 96 -303 q 106 -258 96 -268 q 129 -249 115 -249 q 148 -255 139 -249 q 164 -276 157 -261 q 290 -349 197 -349 q 403 -294 357 -349 q 449 -142 449 -240 l 449 71 m 132 265 q 178 113 132 167 q 290 58 224 58 q 401 110 357 58 q 449 256 446 163 l 449 265 q 403 418 449 364 q 290 472 357 472 q 178 418 224 472 q 132 265 132 364 m 233 690 q 251 737 233 718 q 292 756 268 756 q 333 737 315 756 q 351 690 351 718 q 333 644 351 663 q 292 625 315 625 q 251 644 268 625 q 233 690 233 663 z "},"Ģ":{"ha":981,"x_min":69,"x_max":914,"o":"m 69 0 m 879 503 q 914 467 914 503 q 883 281 914 368 q 797 128 853 194 q 664 24 742 63 q 493 -14 586 -14 q 321 24 399 -14 q 188 128 243 63 q 101 283 132 194 q 69 472 69 371 q 101 661 69 574 q 190 813 133 749 q 324 915 246 878 q 497 951 403 951 q 611 937 554 951 q 713 896 668 922 q 742 875 725 888 q 776 848 760 863 q 803 819 792 833 q 814 794 814 806 q 803 768 814 779 q 778 757 793 757 q 753 769 765 757 q 642 849 710 819 q 497 879 575 879 q 351 848 417 879 q 238 762 285 817 q 165 633 190 707 q 139 472 139 558 q 164 310 139 386 q 235 178 189 235 q 347 90 282 122 q 493 58 413 58 q 631 87 568 58 q 738 166 693 115 q 810 285 783 217 q 843 432 838 353 l 428 432 q 393 468 393 432 q 428 503 393 503 l 879 503 m 571 -197 q 561 -265 571 -232 q 535 -323 551 -297 q 498 -364 519 -349 q 454 -379 476 -379 q 442 -369 442 -379 q 454 -351 442 -364 q 463 -335 460 -346 q 467 -315 467 -324 q 463 -276 467 -292 q 454 -249 458 -261 q 446 -224 450 -236 q 442 -196 442 -212 q 460 -138 442 -157 q 506 -119 478 -119 q 552 -141 533 -119 q 571 -197 571 -162 z "},"ģ":{"ha":613,"x_min":63,"x_max":518,"o":"m 63 0 m 449 71 q 381 8 421 31 q 290 -14 340 -14 q 201 7 242 -14 q 128 65 160 28 q 80 153 97 103 q 63 265 63 204 q 80 376 63 325 q 128 465 97 428 q 201 524 160 503 q 290 544 242 544 q 381 523 340 544 q 449 461 421 501 l 449 493 q 482 531 449 531 q 518 493 518 531 l 518 -142 q 501 -253 518 -203 q 452 -342 483 -304 q 379 -400 421 -379 q 290 -421 338 -421 q 212 -405 249 -421 q 146 -361 175 -389 q 113 -324 131 -346 q 96 -283 96 -303 q 106 -258 96 -268 q 129 -249 115 -249 q 148 -255 139 -249 q 164 -276 157 -261 q 290 -349 197 -349 q 403 -294 357 -349 q 449 -142 449 -240 l 449 71 m 132 265 q 178 113 132 167 q 290 58 224 58 q 401 110 357 58 q 449 256 446 163 l 449 265 q 403 418 449 364 q 290 472 357 472 q 178 418 224 472 q 132 265 132 364 m 242 703 q 251 770 242 738 q 277 828 261 803 q 314 869 293 854 q 358 885 335 885 q 371 875 371 885 q 358 857 371 869 q 349 840 353 851 q 346 821 346 829 q 350 782 346 797 q 358 754 354 767 q 367 730 363 742 q 371 701 371 718 q 353 644 371 663 q 307 625 335 625 q 260 647 279 625 q 242 703 242 668 z "},"Ħ":{"ha":790,"x_min":22,"x_max":768,"o":"m 94 778 l 94 899 q 131 938 94 938 q 164 899 164 938 l 164 778 l 626 778 l 626 899 q 661 938 626 938 q 696 899 696 938 l 696 778 l 733 778 q 768 742 768 778 q 733 707 768 707 l 696 707 l 696 38 q 661 0 696 0 q 626 38 626 0 l 626 432 l 164 432 l 164 38 q 131 0 164 0 q 94 38 94 0 l 94 707 l 57 707 q 22 743 22 707 q 57 778 22 778 l 94 778 m 626 503 l 626 707 l 164 707 l 164 503 l 626 503 z "},"ħ":{"ha":599,"x_min":0,"x_max":515,"o":"m 94 719 l 94 903 q 128 938 94 938 q 164 903 164 938 l 164 719 l 322 719 q 357 683 357 719 q 322 649 357 649 l 164 649 l 164 463 q 228 526 190 507 q 318 544 267 544 q 467 486 418 544 q 515 317 515 428 l 515 35 q 479 0 515 0 q 446 35 446 0 l 446 317 q 414 432 446 392 q 310 472 382 472 q 203 427 242 472 q 164 317 164 382 l 164 35 q 128 0 164 0 q 94 35 94 0 l 94 649 l 35 649 q 0 685 0 649 q 35 719 0 719 l 94 719 z "},"Ī":{"ha":396,"x_min":19,"x_max":376,"o":"m 19 0 m 232 865 l 232 72 l 279 72 q 313 35 313 72 q 279 0 313 0 l 118 0 q 83 35 83 0 q 118 72 83 72 l 163 72 l 163 865 l 118 865 q 83 903 83 865 q 118 938 83 938 l 279 938 q 313 903 313 938 q 279 865 313 865 l 232 865 m 342 1126 q 376 1090 376 1126 q 342 1056 376 1056 l 54 1056 q 19 1092 19 1056 q 54 1126 19 1126 l 342 1126 z "},"ī":{"ha":367,"x_min":4,"x_max":361,"o":"m 4 0 m 217 38 q 182 0 217 0 q 147 38 147 0 l 147 494 q 182 531 147 531 q 217 494 217 531 l 217 38 m 326 719 q 361 683 361 719 q 326 649 361 649 l 39 649 q 4 685 4 649 q 39 719 4 719 l 326 719 z "},"Ĭ":{"ha":396,"x_min":25,"x_max":372,"o":"m 25 0 m 232 865 l 232 72 l 279 72 q 313 35 313 72 q 279 0 313 0 l 118 0 q 83 35 83 0 q 118 72 83 72 l 163 72 l 163 865 l 118 865 q 83 903 83 865 q 118 938 83 938 l 279 938 q 313 903 313 938 q 279 865 313 865 l 232 865 m 25 1168 q 33 1194 25 1185 q 54 1203 42 1203 q 86 1175 79 1203 q 98 1132 92 1153 q 116 1096 104 1111 q 147 1071 128 1081 q 199 1061 167 1061 q 249 1071 229 1061 q 281 1096 269 1081 q 299 1132 293 1111 q 311 1175 306 1153 q 343 1203 318 1203 q 364 1194 356 1203 q 372 1168 372 1185 q 358 1108 372 1146 q 321 1049 343 1071 q 266 1013 297 1025 q 199 1000 235 1000 q 131 1013 163 1000 q 76 1049 100 1025 q 40 1108 54 1071 q 25 1168 25 1146 z "},"ĭ":{"ha":349,"x_min":0,"x_max":347,"o":"m 0 0 m 208 38 q 174 0 208 0 q 139 38 139 0 l 139 494 q 174 531 139 531 q 208 494 208 531 l 208 38 m 0 761 q 8 787 0 778 q 29 796 17 796 q 61 768 54 796 q 73 725 67 746 q 91 689 79 704 q 122 664 103 674 q 174 654 142 654 q 224 664 204 654 q 256 689 244 674 q 274 725 268 704 q 286 768 281 746 q 318 796 293 796 q 339 787 331 796 q 347 761 347 778 q 333 701 347 739 q 296 642 318 664 q 241 606 272 618 q 174 593 210 593 q 106 606 138 593 q 51 642 75 618 q 15 701 29 664 q 0 761 0 739 z "},"Į":{"ha":396,"x_min":25,"x_max":349,"o":"m 232 865 l 232 72 l 279 72 q 313 35 313 72 q 306 12 311 19 q 292 1 301 4 q 219 -31 254 -11 q 156 -80 183 -51 q 110 -144 128 -108 q 93 -225 93 -181 q 131 -308 93 -281 q 219 -336 168 -336 q 282 -326 253 -336 q 299 -321 289 -324 q 315 -318 308 -318 q 341 -327 333 -318 q 349 -350 349 -336 q 334 -376 349 -365 q 299 -394 319 -387 q 254 -403 278 -400 q 214 -406 231 -406 q 147 -395 181 -406 q 85 -362 113 -385 q 42 -303 58 -339 q 25 -217 25 -267 q 63 -92 25 -146 q 154 0 101 -39 l 118 0 q 83 35 83 0 q 118 72 83 72 l 163 72 l 163 865 l 118 865 q 83 903 83 865 q 118 938 83 938 l 279 938 q 313 903 313 938 q 279 865 313 865 l 232 865 z "},"į":{"ha":376,"x_min":-31,"x_max":293,"o":"m 139 26 q 162 41 149 33 q 190 56 175 49 l 190 494 q 225 531 190 531 q 260 494 260 531 l 260 38 q 253 13 260 21 q 235 0 247 6 q 167 -34 201 -14 q 103 -82 132 -54 q 56 -145 74 -110 q 38 -225 38 -181 q 75 -308 38 -281 q 164 -336 113 -336 q 226 -326 197 -336 q 243 -321 233 -324 q 260 -318 253 -318 q 285 -327 278 -318 q 293 -350 293 -336 q 278 -376 293 -365 q 243 -394 264 -387 q 199 -403 222 -400 q 158 -406 175 -406 q 91 -395 125 -406 q 30 -362 57 -385 q -14 -303 3 -339 q -31 -217 -31 -267 q -17 -140 -31 -175 q 21 -74 -3 -104 q 75 -18 44 -43 q 139 26 106 7 m 168 717 q 185 761 168 743 q 225 779 201 779 q 265 761 249 779 q 282 717 282 743 q 265 672 282 690 q 225 654 249 654 q 185 672 201 654 q 168 717 168 690 z "},"İ":{"ha":396,"x_min":83,"x_max":313,"o":"m 83 0 m 232 865 l 232 72 l 279 72 q 313 35 313 72 q 279 0 313 0 l 118 0 q 83 35 83 0 q 118 72 83 72 l 163 72 l 163 865 l 118 865 q 83 903 83 865 q 118 938 83 938 l 279 938 q 313 903 313 938 q 279 865 313 865 l 232 865 m 139 1097 q 156 1144 139 1125 q 197 1163 174 1163 q 239 1144 221 1163 q 257 1097 257 1125 q 239 1051 257 1069 q 197 1032 221 1032 q 156 1051 174 1032 q 139 1097 139 1069 z "},"ı":{"ha":303,"x_min":117,"x_max":186,"o":"m 186 38 q 151 0 186 0 q 117 38 117 0 l 117 494 q 151 531 117 531 q 186 494 186 531 l 186 38 z "},"Ĳ":{"ha":953,"x_min":94,"x_max":869,"o":"m 94 0 m 869 328 q 845 190 869 253 q 778 82 821 128 q 676 11 735 36 q 549 -14 617 -14 q 456 1 501 -14 q 371 43 410 17 q 318 89 340 64 q 276 144 296 114 q 268 163 271 151 q 265 181 265 174 q 276 206 265 197 q 299 215 286 215 q 323 208 314 215 q 342 185 332 201 q 433 86 379 114 q 551 58 488 58 q 656 80 610 58 q 734 138 701 101 q 783 224 767 175 q 800 328 800 272 l 800 900 q 835 938 800 938 q 869 900 869 938 l 869 328 m 164 38 q 131 0 164 0 q 94 38 94 0 l 94 899 q 131 938 94 938 q 164 899 164 938 l 164 38 z "},"ĳ":{"ha":590,"x_min":94,"x_max":496,"o":"m 94 0 m 186 38 q 151 0 186 0 q 117 38 117 0 l 117 494 q 151 531 117 531 q 186 494 186 531 l 186 38 m 94 717 q 111 761 94 743 q 151 779 128 779 q 192 761 175 779 q 208 717 208 743 q 192 672 208 690 q 151 654 175 654 q 111 672 128 654 q 94 717 94 690 m 474 -200 q 427 -362 474 -304 q 290 -421 381 -421 q 168 -372 217 -421 q 131 -312 146 -350 q 117 -253 117 -275 q 125 -227 117 -236 q 146 -218 133 -218 q 178 -246 171 -218 q 190 -287 183 -268 q 208 -319 196 -306 q 239 -341 219 -333 q 290 -349 258 -349 q 404 -200 404 -349 l 404 494 q 439 531 404 531 q 474 494 474 531 l 474 -200 m 382 717 q 399 761 382 743 q 439 779 415 779 q 479 761 463 779 q 496 717 496 743 q 479 672 496 690 q 439 654 463 654 q 399 672 415 654 q 382 717 382 690 z "},"Ķ":{"ha":710,"x_min":94,"x_max":658,"o":"m 94 0 m 164 38 q 131 0 164 0 q 94 38 94 0 l 94 899 q 131 938 94 938 q 164 899 164 938 l 164 539 l 597 929 q 619 938 607 938 q 644 925 633 938 q 656 899 656 913 q 642 874 656 888 l 193 479 l 643 65 q 658 36 658 53 q 647 11 658 22 q 622 0 635 0 q 599 10 608 0 l 164 417 l 164 38 m 432 -197 q 422 -265 432 -232 q 397 -323 413 -297 q 359 -364 381 -349 q 315 -379 338 -379 q 303 -369 303 -379 q 315 -351 303 -364 q 324 -335 321 -346 q 328 -315 328 -324 q 324 -276 328 -292 q 315 -249 319 -261 q 307 -224 311 -236 q 303 -196 303 -212 q 321 -138 303 -157 q 367 -119 339 -119 q 413 -141 394 -119 q 432 -197 432 -162 z "},"ķ":{"ha":524,"x_min":94,"x_max":485,"o":"m 94 0 m 469 65 q 485 38 485 54 q 474 12 485 22 q 449 1 464 1 q 426 8 435 1 l 164 207 l 164 35 q 131 0 164 0 q 94 35 94 0 l 94 903 q 131 938 94 938 q 164 903 164 938 l 164 322 l 422 522 q 443 531 432 531 q 469 519 458 531 q 479 492 479 507 q 465 465 479 475 l 193 265 l 469 65 m 349 -197 q 339 -265 349 -232 q 313 -323 329 -297 q 276 -364 297 -349 q 232 -379 254 -379 q 219 -369 219 -379 q 232 -351 219 -364 q 241 -335 238 -346 q 244 -315 244 -324 q 240 -276 244 -292 q 232 -249 236 -261 q 224 -224 228 -236 q 219 -196 219 -212 q 238 -138 219 -157 q 283 -119 256 -119 q 330 -141 311 -119 q 349 -197 349 -162 z "},"Ĺ":{"ha":614,"x_min":94,"x_max":581,"o":"m 94 0 m 581 36 q 547 0 581 0 l 128 0 q 94 35 94 0 l 94 899 q 131 938 94 938 q 164 899 164 938 l 164 72 l 547 72 q 581 36 581 72 m 308 1189 q 335 1203 318 1203 q 362 1192 350 1203 q 374 1165 374 1181 q 365 1144 374 1154 l 249 994 q 222 981 239 981 q 197 991 208 981 q 185 1017 185 1001 q 193 1039 185 1028 l 308 1189 z "},"ĺ":{"ha":282,"x_min":76,"x_max":265,"o":"m 76 0 m 164 38 q 131 0 164 0 q 94 38 94 0 l 94 899 q 131 938 94 938 q 164 899 164 938 l 164 38 m 200 1189 q 226 1203 210 1203 q 253 1192 242 1203 q 265 1165 265 1181 q 257 1144 265 1154 l 140 994 q 114 981 131 981 q 88 991 100 981 q 76 1017 76 1001 q 85 1039 76 1028 l 200 1189 z "},"Ļ":{"ha":614,"x_min":94,"x_max":581,"o":"m 94 0 m 581 36 q 547 0 581 0 l 128 0 q 94 35 94 0 l 94 899 q 131 938 94 938 q 164 899 164 938 l 164 72 l 547 72 q 581 36 581 72 m 400 -197 q 390 -265 400 -232 q 365 -323 381 -297 q 327 -364 349 -349 q 283 -379 306 -379 q 271 -369 271 -379 q 283 -351 271 -364 q 292 -335 289 -346 q 296 -315 296 -324 q 292 -276 296 -292 q 283 -249 288 -261 q 275 -224 279 -236 q 271 -196 271 -212 q 289 -138 271 -157 q 335 -119 307 -119 q 381 -141 363 -119 q 400 -197 400 -162 z "},"ļ":{"ha":258,"x_min":67,"x_max":196,"o":"m 67 0 m 164 38 q 131 0 164 0 q 94 38 94 0 l 94 899 q 131 938 94 938 q 164 899 164 938 l 164 38 m 196 -197 q 186 -265 196 -232 q 160 -323 176 -297 q 123 -364 144 -349 q 79 -379 101 -379 q 67 -369 67 -379 q 79 -351 67 -364 q 88 -335 85 -346 q 92 -315 92 -324 q 88 -276 92 -292 q 79 -249 83 -261 q 71 -224 75 -236 q 67 -196 67 -212 q 85 -138 67 -157 q 131 -119 103 -119 q 177 -141 158 -119 q 196 -197 196 -162 z "},"Ľ":{"ha":614,"x_min":94,"x_max":581,"o":"m 94 0 m 581 36 q 547 0 581 0 l 128 0 q 94 35 94 0 l 94 899 q 131 938 94 938 q 164 899 164 938 l 164 72 l 547 72 q 581 36 581 72 m 406 957 q 432 971 415 971 q 459 960 447 971 q 471 933 471 949 q 463 913 471 922 l 346 763 q 319 749 336 749 q 294 759 306 749 q 282 785 282 769 q 290 807 282 796 l 406 957 z "},"ľ":{"ha":379,"x_min":94,"x_max":396,"o":"m 94 0 m 164 38 q 131 0 164 0 q 94 38 94 0 l 94 899 q 131 938 94 938 q 164 899 164 938 l 164 38 m 331 957 q 357 971 340 971 q 384 960 372 971 q 396 933 396 949 q 388 913 396 922 l 271 763 q 244 749 261 749 q 219 759 231 749 q 207 785 207 769 q 215 807 207 796 l 331 957 z "},"Ŀ":{"ha":614,"x_min":94,"x_max":581,"o":"m 94 0 m 581 36 q 547 0 581 0 l 128 0 q 94 35 94 0 l 94 899 q 131 938 94 938 q 164 899 164 938 l 164 72 l 547 72 q 581 36 581 72 m 296 467 q 313 513 296 494 q 354 532 331 532 q 396 513 378 532 q 414 467 414 494 q 396 420 414 439 q 354 401 378 401 q 313 420 331 401 q 296 467 296 439 z "},"ŀ":{"ha":294,"x_min":94,"x_max":331,"o":"m 94 0 m 164 38 q 131 0 164 0 q 94 38 94 0 l 94 899 q 131 938 94 938 q 164 899 164 938 l 164 38 m 213 467 q 230 513 213 494 q 271 532 247 532 q 313 513 294 532 q 331 467 331 494 q 313 420 331 439 q 271 401 294 401 q 230 420 247 401 q 213 467 213 439 z "},"Ł":{"ha":639,"x_min":25,"x_max":606,"o":"m 119 557 l 119 899 q 156 938 119 938 q 189 899 189 938 l 189 590 l 389 690 q 406 694 397 694 q 431 683 421 694 q 440 657 440 671 q 421 626 440 636 l 189 511 l 189 72 l 572 72 q 606 36 606 72 q 572 0 606 0 l 153 0 q 119 35 119 0 l 119 478 l 75 456 q 58 451 67 451 q 34 463 43 451 q 25 489 25 475 q 44 519 25 510 l 119 557 z "},"ł":{"ha":474,"x_min":29,"x_max":444,"o":"m 271 38 q 238 0 271 0 q 201 38 201 0 l 201 515 l 79 456 q 63 451 71 451 q 38 463 47 451 q 29 489 29 475 q 49 519 29 510 l 201 594 l 201 899 q 238 938 201 938 q 271 899 271 938 l 271 629 l 393 690 q 410 694 401 694 q 435 683 425 694 q 444 657 444 671 q 425 626 444 636 l 271 550 l 271 38 z "},"Ń":{"ha":797,"x_min":94,"x_max":703,"o":"m 94 0 m 661 0 q 638 7 650 0 q 617 28 625 14 l 164 808 l 164 39 q 129 0 164 0 q 94 39 94 0 l 94 888 q 107 925 94 913 q 136 938 119 938 q 160 931 147 938 q 181 910 172 924 l 633 129 l 633 899 q 668 938 633 938 q 703 899 703 938 l 703 50 q 690 13 703 25 q 661 0 678 0 m 469 1189 q 496 1203 479 1203 q 523 1192 511 1203 q 535 1165 535 1181 q 526 1144 535 1154 l 410 994 q 383 981 400 981 q 358 991 369 981 q 346 1017 346 1001 q 354 1039 346 1028 l 469 1189 z "},"ń":{"ha":599,"x_min":94,"x_max":515,"o":"m 94 0 m 515 35 q 479 0 515 0 q 446 35 446 0 l 446 317 q 414 432 446 392 q 310 472 382 472 q 203 427 242 472 q 164 317 164 382 l 164 35 q 128 0 164 0 q 94 35 94 0 l 94 496 q 128 531 94 531 q 164 496 164 531 l 164 463 q 228 526 190 507 q 318 544 267 544 q 467 486 418 544 q 515 317 515 428 l 515 35 m 369 782 q 396 796 379 796 q 423 785 411 796 q 435 758 435 774 q 426 738 435 747 l 310 588 q 283 574 300 574 q 258 584 269 574 q 246 610 246 594 q 254 632 246 621 l 369 782 z "},"Ņ":{"ha":797,"x_min":94,"x_max":703,"o":"m 94 0 m 661 0 q 638 7 650 0 q 617 28 625 14 l 164 808 l 164 39 q 129 0 164 0 q 94 39 94 0 l 94 888 q 107 925 94 913 q 136 938 119 938 q 160 931 147 938 q 181 910 172 924 l 633 129 l 633 899 q 668 938 633 938 q 703 899 703 938 l 703 50 q 690 13 703 25 q 661 0 678 0 m 488 -197 q 478 -265 488 -232 q 452 -323 468 -297 q 415 -364 436 -349 q 371 -379 393 -379 q 358 -369 358 -379 q 371 -351 358 -364 q 380 -335 376 -346 q 383 -315 383 -324 q 379 -276 383 -292 q 371 -249 375 -261 q 363 -224 367 -236 q 358 -196 358 -212 q 376 -138 358 -157 q 422 -119 394 -119 q 469 -141 450 -119 q 488 -197 488 -162 z "},"ņ":{"ha":599,"x_min":94,"x_max":515,"o":"m 94 0 m 515 35 q 479 0 515 0 q 446 35 446 0 l 446 317 q 414 432 446 392 q 310 472 382 472 q 203 427 242 472 q 164 317 164 382 l 164 35 q 128 0 164 0 q 94 35 94 0 l 94 496 q 128 531 94 531 q 164 496 164 531 l 164 463 q 228 526 190 507 q 318 544 267 544 q 467 486 418 544 q 515 317 515 428 l 515 35 m 375 -197 q 365 -265 375 -232 q 340 -323 356 -297 q 302 -364 324 -349 q 258 -379 281 -379 q 246 -369 246 -379 q 258 -351 246 -364 q 267 -335 264 -346 q 271 -315 271 -324 q 267 -276 271 -292 q 258 -249 263 -261 q 250 -224 254 -236 q 246 -196 246 -212 q 264 -138 246 -157 q 310 -119 282 -119 q 356 -141 338 -119 q 375 -197 375 -162 z "},"Ň":{"ha":797,"x_min":94,"x_max":703,"o":"m 94 0 m 661 0 q 638 7 650 0 q 617 28 625 14 l 164 808 l 164 39 q 129 0 164 0 q 94 39 94 0 l 94 888 q 107 925 94 913 q 136 938 119 938 q 160 931 147 938 q 181 910 172 924 l 633 129 l 633 899 q 668 938 633 938 q 703 899 703 938 l 703 50 q 690 13 703 25 q 661 0 678 0 m 257 1144 q 249 1167 249 1154 q 260 1192 249 1182 q 286 1203 272 1203 q 313 1189 303 1203 l 399 1074 l 485 1189 q 511 1203 494 1203 q 537 1192 525 1203 q 549 1167 549 1182 q 540 1144 549 1154 l 425 994 q 399 981 415 981 q 372 994 382 981 l 257 1144 z "},"ň":{"ha":599,"x_min":94,"x_max":515,"o":"m 94 0 m 515 35 q 479 0 515 0 q 446 35 446 0 l 446 317 q 414 432 446 392 q 310 472 382 472 q 203 427 242 472 q 164 317 164 382 l 164 35 q 128 0 164 0 q 94 35 94 0 l 94 496 q 128 531 94 531 q 164 496 164 531 l 164 463 q 228 526 190 507 q 318 544 267 544 q 467 486 418 544 q 515 317 515 428 l 515 35 m 157 738 q 149 760 149 747 q 160 785 149 775 q 186 796 172 796 q 213 782 203 796 l 299 667 l 385 782 q 411 796 394 796 q 437 785 425 796 q 449 760 449 775 q 440 738 449 747 l 325 588 q 299 574 315 574 q 272 588 282 574 l 157 738 z "},"Ŋ":{"ha":797,"x_min":94,"x_max":703,"o":"m 703 -200 q 656 -362 703 -304 q 519 -421 610 -421 q 397 -372 446 -421 q 360 -312 375 -350 q 346 -253 346 -275 q 354 -227 346 -236 q 375 -218 363 -218 q 407 -246 400 -218 q 419 -287 413 -268 q 437 -319 425 -306 q 468 -341 449 -333 q 519 -349 488 -349 q 633 -200 633 -349 l 633 -1 l 164 808 l 164 39 q 129 0 164 0 q 94 39 94 0 l 94 888 q 107 925 94 913 q 136 938 119 938 q 160 931 147 938 q 181 910 172 924 l 633 129 l 633 899 q 668 938 633 938 q 703 899 703 938 l 703 -200 l 703 -200 z "},"ŋ":{"ha":599,"x_min":94,"x_max":515,"o":"m 515 -200 q 469 -362 515 -304 q 332 -421 422 -421 q 210 -372 258 -421 q 173 -312 188 -350 q 158 -253 158 -275 q 167 -227 158 -236 q 188 -218 175 -218 q 219 -246 213 -218 q 231 -287 225 -268 q 249 -319 238 -306 q 281 -341 261 -333 q 332 -349 300 -349 q 446 -200 446 -349 l 446 317 q 414 432 446 392 q 310 472 382 472 q 203 427 242 472 q 164 317 164 382 l 164 35 q 128 0 164 0 q 94 35 94 0 l 94 496 q 128 531 94 531 q 164 496 164 531 l 164 463 q 228 526 190 507 q 318 544 267 544 q 467 486 418 544 q 515 317 515 428 l 515 -200 l 515 -200 z "},"Ō":{"ha":958,"x_min":69,"x_max":889,"o":"m 69 0 m 69 472 q 99 661 69 574 q 181 813 128 749 q 309 915 233 878 q 479 951 385 951 q 649 915 572 951 q 778 813 725 878 q 860 661 831 749 q 889 472 889 574 q 860 283 889 371 q 778 128 831 194 q 649 24 725 63 q 479 -14 572 -14 q 309 24 385 -14 q 181 128 233 63 q 99 283 128 194 q 69 472 69 371 m 819 472 q 797 633 819 558 q 730 762 774 707 q 623 848 686 817 q 479 879 560 879 q 335 848 399 879 q 228 762 272 817 q 162 633 185 707 q 139 472 139 558 q 162 310 139 386 q 228 178 185 235 q 335 90 272 122 q 479 58 399 58 q 623 90 560 58 q 730 178 686 122 q 797 310 774 235 q 819 472 819 386 m 622 1126 q 657 1090 657 1126 q 622 1056 657 1056 l 335 1056 q 300 1092 300 1056 q 335 1126 300 1126 l 622 1126 z "},"ō":{"ha":581,"x_min":63,"x_max":518,"o":"m 63 0 m 63 265 q 80 376 63 325 q 128 465 97 428 q 201 524 160 503 q 290 544 242 544 q 379 524 338 544 q 452 465 421 503 q 501 376 483 428 q 518 265 518 325 q 501 153 518 204 q 452 65 483 103 q 379 7 421 28 q 290 -14 338 -14 q 201 7 242 -14 q 128 65 160 28 q 80 153 97 103 q 63 265 63 204 m 449 265 q 403 418 449 364 q 290 472 357 472 q 178 418 224 472 q 132 265 132 364 q 178 113 132 167 q 290 58 224 58 q 403 113 357 58 q 449 265 449 167 m 433 719 q 468 683 468 719 q 433 649 468 649 l 146 649 q 111 685 111 649 q 146 719 111 719 l 433 719 z "},"Ŏ":{"ha":958,"x_min":69,"x_max":889,"o":"m 69 0 m 69 472 q 99 661 69 574 q 181 813 128 749 q 309 915 233 878 q 479 951 385 951 q 649 915 572 951 q 778 813 725 878 q 860 661 831 749 q 889 472 889 574 q 860 283 889 371 q 778 128 831 194 q 649 24 725 63 q 479 -14 572 -14 q 309 24 385 -14 q 181 128 233 63 q 99 283 128 194 q 69 472 69 371 m 819 472 q 797 633 819 558 q 730 762 774 707 q 623 848 686 817 q 479 879 560 879 q 335 848 399 879 q 228 762 272 817 q 162 633 185 707 q 139 472 139 558 q 162 310 139 386 q 228 178 185 235 q 335 90 272 122 q 479 58 399 58 q 623 90 560 58 q 730 178 686 122 q 797 310 774 235 q 819 472 819 386 m 306 1168 q 314 1194 306 1185 q 335 1203 322 1203 q 367 1175 360 1203 q 378 1132 372 1153 q 397 1096 385 1111 q 428 1071 408 1081 q 479 1061 447 1061 q 530 1071 510 1061 q 562 1096 550 1081 q 580 1132 574 1111 q 592 1175 586 1153 q 624 1203 599 1203 q 644 1194 636 1203 q 653 1168 653 1185 q 638 1108 653 1146 q 601 1049 624 1071 q 547 1013 578 1025 q 479 1000 515 1000 q 412 1013 443 1000 q 357 1049 381 1025 q 320 1108 335 1071 q 306 1168 306 1146 z "},"ŏ":{"ha":581,"x_min":63,"x_max":518,"o":"m 63 0 m 63 265 q 80 376 63 325 q 128 465 97 428 q 201 524 160 503 q 290 544 242 544 q 379 524 338 544 q 452 465 421 503 q 501 376 483 428 q 518 265 518 325 q 501 153 518 204 q 452 65 483 103 q 379 7 421 28 q 290 -14 338 -14 q 201 7 242 -14 q 128 65 160 28 q 80 153 97 103 q 63 265 63 204 m 449 265 q 403 418 449 364 q 290 472 357 472 q 178 418 224 472 q 132 265 132 364 q 178 113 132 167 q 290 58 224 58 q 403 113 357 58 q 449 265 449 167 m 117 761 q 125 787 117 778 q 146 796 133 796 q 178 768 171 796 q 190 725 183 746 q 208 689 196 704 q 239 664 219 674 q 290 654 258 654 q 341 664 321 654 q 373 689 361 674 q 391 725 385 704 q 403 768 397 746 q 435 796 410 796 q 456 787 447 796 q 464 761 464 778 q 449 701 464 739 q 413 642 435 664 q 358 606 389 618 q 290 593 326 593 q 223 606 254 593 q 168 642 192 618 q 131 701 146 664 q 117 761 117 739 z "},"Ő":{"ha":958,"x_min":69,"x_max":889,"o":"m 69 0 m 69 472 q 99 661 69 574 q 181 813 128 749 q 309 915 233 878 q 479 951 385 951 q 649 915 572 951 q 778 813 725 878 q 860 661 831 749 q 889 472 889 574 q 860 283 889 371 q 778 128 831 194 q 649 24 725 63 q 479 -14 572 -14 q 309 24 385 -14 q 181 128 233 63 q 99 283 128 194 q 69 472 69 371 m 819 472 q 797 633 819 558 q 730 762 774 707 q 623 848 686 817 q 479 879 560 879 q 335 848 399 879 q 228 762 272 817 q 162 633 185 707 q 139 472 139 558 q 162 310 139 386 q 228 178 185 235 q 335 90 272 122 q 479 58 399 58 q 623 90 560 58 q 730 178 686 122 q 797 310 774 235 q 819 472 819 386 m 442 1189 q 468 1203 451 1203 q 495 1192 483 1203 q 507 1165 507 1181 q 499 1144 507 1154 l 382 994 q 356 981 372 981 q 330 991 342 981 q 318 1017 318 1001 q 326 1039 318 1028 l 442 1189 m 658 1189 q 685 1203 668 1203 q 712 1192 700 1203 q 724 1165 724 1181 q 715 1144 724 1154 l 599 994 q 572 981 589 981 q 547 991 558 981 q 535 1017 535 1001 q 543 1039 535 1028 l 658 1189 z "},"ő":{"ha":581,"x_min":63,"x_max":535,"o":"m 63 0 m 63 265 q 80 376 63 325 q 128 465 97 428 q 201 524 160 503 q 290 544 242 544 q 379 524 338 544 q 452 465 421 503 q 501 376 483 428 q 518 265 518 325 q 501 153 518 204 q 452 65 483 103 q 379 7 421 28 q 290 -14 338 -14 q 201 7 242 -14 q 128 65 160 28 q 80 153 97 103 q 63 265 63 204 m 449 265 q 403 418 449 364 q 290 472 357 472 q 178 418 224 472 q 132 265 132 364 q 178 113 132 167 q 290 58 224 58 q 403 113 357 58 q 449 265 449 167 m 253 782 q 279 796 263 796 q 306 785 294 796 q 318 758 318 774 q 310 738 318 747 l 193 588 q 167 574 183 574 q 141 584 153 574 q 129 610 129 594 q 138 632 129 621 l 253 782 m 469 782 q 496 796 479 796 q 523 785 511 796 q 535 758 535 774 q 526 738 535 747 l 410 588 q 383 574 400 574 q 358 584 369 574 q 346 610 346 594 q 354 632 346 621 l 469 782 z "},"Œ":{"ha":1371,"x_min":69,"x_max":1306,"o":"m 1306 36 q 1272 0 1306 0 l 854 0 q 819 35 819 0 l 819 189 q 680 41 767 96 q 479 -14 593 -14 q 309 24 385 -14 q 181 128 233 63 q 99 283 128 194 q 69 472 69 371 q 99 661 69 574 q 181 813 128 749 q 309 915 233 878 q 479 951 385 951 q 680 897 593 951 q 819 751 767 843 l 819 903 q 854 938 819 938 l 1272 938 q 1306 903 1306 938 q 1272 865 1306 865 l 889 865 l 889 503 l 1186 503 q 1221 467 1221 503 q 1186 432 1221 432 l 889 432 l 889 72 l 1272 72 q 1306 36 1306 72 m 819 472 q 797 633 819 558 q 730 762 774 707 q 623 848 686 817 q 479 879 560 879 q 335 848 399 879 q 228 762 272 817 q 162 633 185 707 q 139 472 139 558 q 162 310 139 386 q 228 178 185 235 q 335 90 272 122 q 479 58 399 58 q 623 90 560 58 q 730 178 686 122 q 797 310 774 235 q 819 472 819 386 z "},"œ":{"ha":963,"x_min":63,"x_max":900,"o":"m 676 544 q 803 501 747 544 q 885 382 858 457 q 894 352 889 371 q 900 315 900 333 q 893 289 900 300 q 867 278 886 278 l 518 278 l 518 265 q 564 113 518 167 q 676 58 610 58 q 803 131 769 58 q 819 152 810 146 q 838 158 828 158 q 861 149 851 158 q 871 124 871 139 q 853 83 871 104 q 821 46 836 61 q 755 2 792 18 q 676 -14 718 -14 q 564 20 614 -14 q 483 113 514 54 q 403 20 453 54 q 290 -14 353 -14 q 201 7 242 -14 q 128 65 160 28 q 80 153 97 103 q 63 265 63 204 q 80 376 63 325 q 128 465 97 428 q 201 524 160 503 q 290 544 242 544 q 403 510 353 544 q 483 415 454 475 q 559 507 511 469 q 676 544 607 544 m 676 472 q 582 437 618 472 q 531 350 546 401 l 822 350 q 765 440 804 408 q 676 472 726 472 m 449 265 q 403 418 449 364 q 290 472 357 472 q 178 418 224 472 q 132 265 132 364 q 178 113 132 167 q 290 58 224 58 q 403 113 357 58 q 449 265 449 167 z "},"Ŕ":{"ha":804,"x_min":94,"x_max":753,"o":"m 94 0 m 744 58 q 753 35 753 46 q 742 10 753 19 q 718 0 732 0 q 689 15 701 0 l 368 431 l 164 431 l 164 38 q 129 0 164 0 q 94 38 94 0 l 94 903 q 129 938 94 938 l 511 938 q 614 918 569 938 q 688 865 658 899 q 734 786 718 832 q 750 688 750 740 q 734 588 750 635 q 688 506 718 540 q 612 451 657 471 q 507 431 567 431 l 456 431 l 744 58 m 681 685 q 634 815 681 764 q 511 865 588 865 l 164 865 l 164 503 l 507 503 q 634 554 588 503 q 681 685 681 606 m 458 1189 q 485 1203 468 1203 q 512 1192 500 1203 q 524 1165 524 1181 q 515 1144 524 1154 l 399 994 q 372 981 389 981 q 347 991 358 981 q 335 1017 335 1001 q 343 1039 335 1028 l 458 1189 z "},"ŕ":{"ha":492,"x_min":94,"x_max":456,"o":"m 94 0 m 393 404 q 356 457 376 442 q 293 472 336 472 q 241 459 263 472 q 205 425 219 446 q 181 378 190 404 q 164 325 171 351 l 164 42 q 129 0 164 0 q 94 40 97 0 l 94 497 q 129 535 94 535 q 164 497 164 535 l 164 451 q 217 520 185 496 q 304 544 250 544 q 419 494 374 544 q 445 457 435 478 q 456 417 456 436 q 447 391 456 400 q 425 382 438 382 q 393 404 403 382 m 344 782 q 371 796 354 796 q 398 785 386 796 q 410 758 410 774 q 401 738 410 747 l 285 588 q 258 574 275 574 q 233 584 244 574 q 221 610 221 594 q 229 632 221 621 l 344 782 z "},"Ŗ":{"ha":804,"x_min":94,"x_max":753,"o":"m 94 0 m 744 58 q 753 35 753 46 q 742 10 753 19 q 718 0 732 0 q 689 15 701 0 l 368 431 l 164 431 l 164 38 q 129 0 164 0 q 94 38 94 0 l 94 903 q 129 938 94 938 l 511 938 q 614 918 569 938 q 688 865 658 899 q 734 786 718 832 q 750 688 750 740 q 734 588 750 635 q 688 506 718 540 q 612 451 657 471 q 507 431 567 431 l 456 431 l 744 58 m 681 685 q 634 815 681 764 q 511 865 588 865 l 164 865 l 164 503 l 507 503 q 634 554 588 503 q 681 685 681 606 m 460 -197 q 450 -265 460 -232 q 424 -323 440 -297 q 387 -364 408 -349 q 343 -379 365 -379 q 331 -369 331 -379 q 343 -351 331 -364 q 352 -335 349 -346 q 356 -315 356 -324 q 351 -276 356 -292 q 343 -249 347 -261 q 335 -224 339 -236 q 331 -196 331 -212 q 349 -138 331 -157 q 394 -119 367 -119 q 441 -141 422 -119 q 460 -197 460 -162 z "},"ŗ":{"ha":492,"x_min":94,"x_max":456,"o":"m 94 0 m 393 404 q 356 457 376 442 q 293 472 336 472 q 241 459 263 472 q 205 425 219 446 q 181 378 190 404 q 164 325 171 351 l 164 42 q 129 0 164 0 q 94 40 97 0 l 94 497 q 129 535 94 535 q 164 497 164 535 l 164 451 q 217 520 185 496 q 304 544 250 544 q 419 494 374 544 q 445 457 435 478 q 456 417 456 436 q 447 391 456 400 q 425 382 438 382 q 393 404 403 382 m 224 -197 q 214 -265 224 -232 q 188 -323 204 -297 q 151 -364 172 -349 q 107 -379 129 -379 q 94 -369 94 -379 q 107 -351 94 -364 q 116 -335 113 -346 q 119 -315 119 -324 q 115 -276 119 -292 q 107 -249 111 -261 q 99 -224 103 -236 q 94 -196 94 -212 q 113 -138 94 -157 q 158 -119 131 -119 q 205 -141 186 -119 q 224 -197 224 -162 z "},"Ř":{"ha":804,"x_min":94,"x_max":753,"o":"m 94 0 m 744 58 q 753 35 753 46 q 742 10 753 19 q 718 0 732 0 q 689 15 701 0 l 368 431 l 164 431 l 164 38 q 129 0 164 0 q 94 38 94 0 l 94 903 q 129 938 94 938 l 511 938 q 614 918 569 938 q 688 865 658 899 q 734 786 718 832 q 750 688 750 740 q 734 588 750 635 q 688 506 718 540 q 612 451 657 471 q 507 431 567 431 l 456 431 l 744 58 m 681 685 q 634 815 681 764 q 511 865 588 865 l 164 865 l 164 503 l 507 503 q 634 554 588 503 q 681 685 681 606 m 246 1144 q 238 1167 238 1154 q 249 1192 238 1182 q 275 1203 261 1203 q 301 1189 292 1203 l 388 1074 l 474 1189 q 500 1203 483 1203 q 526 1192 514 1203 q 538 1167 538 1182 q 529 1144 538 1154 l 414 994 q 388 981 404 981 q 361 994 371 981 l 246 1144 z "},"ř":{"ha":492,"x_min":94,"x_max":456,"o":"m 94 0 m 393 404 q 356 457 376 442 q 293 472 336 472 q 241 459 263 472 q 205 425 219 446 q 181 378 190 404 q 164 325 171 351 l 164 42 q 129 0 164 0 q 94 40 97 0 l 94 497 q 129 535 94 535 q 164 497 164 535 l 164 451 q 217 520 185 496 q 304 544 250 544 q 419 494 374 544 q 445 457 435 478 q 456 417 456 436 q 447 391 456 400 q 425 382 438 382 q 393 404 403 382 m 132 738 q 124 760 124 747 q 135 785 124 775 q 161 796 147 796 q 188 782 178 796 l 274 667 l 360 782 q 386 796 369 796 q 412 785 400 796 q 424 760 424 775 q 415 738 424 747 l 300 588 q 274 574 290 574 q 247 588 257 574 l 132 738 z "},"Ś":{"ha":617,"x_min":64,"x_max":556,"o":"m 64 0 m 313 -14 q 126 69 210 -14 q 96 107 108 86 q 74 147 83 128 q 64 190 64 167 q 74 215 64 206 q 97 225 85 225 q 128 201 119 225 q 151 153 139 174 q 179 117 164 132 q 239 76 207 89 q 303 63 271 63 q 382 77 347 63 q 440 115 417 92 q 474 171 463 139 q 486 239 486 203 q 474 314 486 276 q 438 379 461 351 q 396 417 422 396 q 339 460 369 438 q 279 503 308 482 q 229 540 250 524 q 138 640 165 593 q 110 746 110 688 q 125 825 110 788 q 168 891 140 863 q 233 935 196 919 q 314 951 269 951 q 420 923 374 951 q 490 853 467 894 q 503 828 497 842 q 508 801 508 814 q 499 778 508 786 q 478 769 489 769 q 461 775 469 769 q 447 793 453 781 q 433 817 440 806 q 418 838 426 829 q 315 879 376 879 q 216 840 251 879 q 181 749 181 801 q 203 670 181 706 q 269 600 225 635 q 319 563 289 585 q 383 518 350 542 q 444 471 415 494 q 490 426 474 447 q 556 236 556 350 q 539 141 556 186 q 490 61 522 96 q 413 6 458 26 q 313 -14 368 -14 m 386 1189 q 413 1203 396 1203 q 440 1192 428 1203 q 451 1165 451 1181 q 443 1144 451 1154 l 326 994 q 300 981 317 981 q 274 991 286 981 q 263 1017 263 1001 q 271 1039 263 1028 l 386 1189 z "},"ś":{"ha":500,"x_min":64,"x_max":442,"o":"m 64 0 m 442 153 q 429 89 442 119 q 394 35 417 58 q 338 -1 371 13 q 264 -14 306 -14 q 190 -3 225 -14 q 128 31 156 7 q 78 92 93 60 q 64 154 64 124 q 97 189 64 189 q 136 154 131 189 q 175 84 144 110 q 264 58 206 58 q 347 83 322 58 q 372 150 372 108 q 357 197 372 179 q 314 225 342 214 q 244 248 285 236 q 176 272 204 260 q 94 403 94 308 q 139 505 94 465 q 269 544 183 544 q 355 526 321 544 q 404 490 389 508 q 419 467 415 478 q 424 446 424 457 q 413 421 424 431 q 389 411 403 411 q 353 431 367 411 q 319 463 339 453 q 258 472 299 472 q 164 403 164 472 q 174 358 164 375 q 214 329 183 340 q 284 308 246 318 q 347 286 322 297 q 442 153 442 243 m 328 782 q 354 796 338 796 q 381 785 369 796 q 393 758 393 774 q 385 738 393 747 l 268 588 q 242 574 258 574 q 216 584 228 574 q 204 610 204 594 q 213 632 204 621 l 328 782 z "},"Ş":{"ha":617,"x_min":64,"x_max":556,"o":"m 556 236 q 540 144 556 188 q 496 67 525 101 q 426 13 467 33 q 333 -12 385 -8 l 333 -72 q 435 -124 403 -82 q 468 -228 468 -165 q 456 -287 468 -260 q 424 -333 444 -314 q 375 -365 403 -353 q 315 -376 347 -376 q 251 -367 269 -376 q 232 -336 232 -358 q 241 -312 232 -324 q 269 -301 250 -301 q 290 -306 283 -301 q 318 -310 296 -310 q 373 -283 350 -310 q 396 -224 396 -257 q 371 -154 396 -176 q 300 -132 346 -132 q 264 -96 264 -132 l 264 -8 q 126 69 190 6 q 96 107 108 86 q 74 147 83 128 q 64 190 64 167 q 74 215 64 206 q 97 225 85 225 q 128 201 119 225 q 151 153 139 174 q 179 117 164 132 q 239 76 207 89 q 303 63 271 63 q 382 77 347 63 q 440 115 417 92 q 474 171 463 139 q 486 239 486 203 q 474 314 486 276 q 438 379 461 351 q 396 417 422 396 q 339 460 369 438 q 279 503 308 482 q 229 540 250 524 q 138 640 165 593 q 110 746 110 688 q 125 825 110 788 q 168 891 140 863 q 233 935 196 919 q 314 951 269 951 q 420 923 374 951 q 490 853 467 894 q 503 828 497 842 q 508 801 508 814 q 499 778 508 786 q 478 769 489 769 q 461 775 469 769 q 447 793 453 781 q 433 817 440 806 q 418 838 426 829 q 315 879 376 879 q 216 840 251 879 q 181 749 181 801 q 203 670 181 706 q 269 600 225 635 q 319 563 289 585 q 383 518 350 542 q 444 471 415 494 q 490 426 474 447 q 556 236 556 350 z "},"ş":{"ha":500,"x_min":64,"x_max":442,"o":"m 442 153 q 402 44 442 90 q 292 -12 363 -3 l 292 -72 q 394 -124 361 -82 q 426 -228 426 -165 q 415 -287 426 -260 q 382 -333 403 -314 q 333 -365 361 -353 q 274 -376 306 -376 q 209 -367 228 -376 q 190 -336 190 -358 q 199 -312 190 -324 q 228 -301 208 -301 q 248 -306 242 -301 q 276 -310 254 -310 q 331 -283 308 -310 q 354 -224 354 -257 q 329 -154 354 -176 q 258 -132 304 -132 q 222 -96 222 -132 l 222 -11 q 171 3 194 -7 q 128 31 147 13 q 78 92 93 60 q 64 154 64 124 q 97 189 64 189 q 136 154 131 189 q 175 84 144 110 q 264 58 206 58 q 347 83 322 58 q 372 150 372 108 q 357 197 372 179 q 314 225 342 214 q 244 248 285 236 q 176 272 204 260 q 94 403 94 308 q 139 505 94 465 q 269 544 183 544 q 355 526 321 544 q 404 490 389 508 q 419 467 415 478 q 424 446 424 457 q 413 421 424 431 q 389 411 403 411 q 353 431 367 411 q 319 463 339 453 q 258 472 299 472 q 164 403 164 472 q 174 358 164 375 q 214 329 183 340 q 284 308 246 318 q 347 286 322 297 q 442 153 442 243 z "},"Š":{"ha":617,"x_min":64,"x_max":556,"o":"m 64 0 m 313 -14 q 126 69 210 -14 q 96 107 108 86 q 74 147 83 128 q 64 190 64 167 q 74 215 64 206 q 97 225 85 225 q 128 201 119 225 q 151 153 139 174 q 179 117 164 132 q 239 76 207 89 q 303 63 271 63 q 382 77 347 63 q 440 115 417 92 q 474 171 463 139 q 486 239 486 203 q 474 314 486 276 q 438 379 461 351 q 396 417 422 396 q 339 460 369 438 q 279 503 308 482 q 229 540 250 524 q 138 640 165 593 q 110 746 110 688 q 125 825 110 788 q 168 891 140 863 q 233 935 196 919 q 314 951 269 951 q 420 923 374 951 q 490 853 467 894 q 503 828 497 842 q 508 801 508 814 q 499 778 508 786 q 478 769 489 769 q 461 775 469 769 q 447 793 453 781 q 433 817 440 806 q 418 838 426 829 q 315 879 376 879 q 216 840 251 879 q 181 749 181 801 q 203 670 181 706 q 269 600 225 635 q 319 563 289 585 q 383 518 350 542 q 444 471 415 494 q 490 426 474 447 q 556 236 556 350 q 539 141 556 186 q 490 61 522 96 q 413 6 458 26 q 313 -14 368 -14 m 172 1144 q 164 1167 164 1154 q 176 1192 164 1182 q 201 1203 188 1203 q 228 1189 218 1203 l 314 1074 l 400 1189 q 426 1203 410 1203 q 452 1192 440 1203 q 464 1167 464 1182 q 456 1144 464 1154 l 340 994 q 314 981 331 981 q 288 994 297 981 l 172 1144 z "},"š":{"ha":500,"x_min":64,"x_max":442,"o":"m 64 0 m 442 153 q 429 89 442 119 q 394 35 417 58 q 338 -1 371 13 q 264 -14 306 -14 q 190 -3 225 -14 q 128 31 156 7 q 78 92 93 60 q 64 154 64 124 q 97 189 64 189 q 136 154 131 189 q 175 84 144 110 q 264 58 206 58 q 347 83 322 58 q 372 150 372 108 q 357 197 372 179 q 314 225 342 214 q 244 248 285 236 q 176 272 204 260 q 94 403 94 308 q 139 505 94 465 q 269 544 183 544 q 355 526 321 544 q 404 490 389 508 q 419 467 415 478 q 424 446 424 457 q 413 421 424 431 q 389 411 403 411 q 353 431 367 411 q 319 463 339 453 q 258 472 299 472 q 164 403 164 472 q 174 358 164 375 q 214 329 183 340 q 284 308 246 318 q 347 286 322 297 q 442 153 442 243 m 115 738 q 107 760 107 747 q 119 785 107 775 q 144 796 131 796 q 171 782 161 796 l 257 667 l 343 782 q 369 796 353 796 q 395 785 383 796 q 407 760 407 775 q 399 738 407 747 l 283 588 q 257 574 274 574 q 231 588 240 574 l 115 738 z "},"Ţ":{"ha":753,"x_min":33,"x_max":719,"o":"m 33 0 m 719 903 q 688 865 719 865 l 413 865 l 413 39 q 376 0 413 0 q 343 39 343 0 l 343 865 l 67 865 q 33 903 33 865 q 67 938 33 938 l 688 938 q 719 903 719 938 m 446 -197 q 436 -265 446 -232 q 410 -323 426 -297 q 373 -364 394 -349 q 329 -379 351 -379 q 317 -369 317 -379 q 329 -351 317 -364 q 338 -335 335 -346 q 342 -315 342 -324 q 338 -276 342 -292 q 329 -249 333 -261 q 321 -224 325 -236 q 317 -196 317 -212 q 335 -138 317 -157 q 381 -119 353 -119 q 427 -141 408 -119 q 446 -197 446 -162 z "},"ţ":{"ha":431,"x_min":28,"x_max":403,"o":"m 28 0 m 403 494 q 368 460 403 460 l 246 460 l 246 39 q 210 0 246 0 q 176 39 176 0 l 176 460 l 63 460 q 28 494 28 460 q 63 531 28 531 l 176 531 l 176 685 q 210 719 176 719 q 246 685 246 719 l 246 531 l 368 531 q 403 494 403 531 m 276 -197 q 267 -265 276 -232 q 241 -323 257 -297 q 203 -364 225 -349 q 160 -379 182 -379 q 147 -369 147 -379 q 160 -351 147 -364 q 169 -335 165 -346 q 172 -315 172 -324 q 168 -276 172 -292 q 160 -249 164 -261 q 151 -224 156 -236 q 147 -196 147 -212 q 165 -138 147 -157 q 211 -119 183 -119 q 258 -141 239 -119 q 276 -197 276 -162 z "},"Ť":{"ha":753,"x_min":33,"x_max":719,"o":"m 33 0 m 719 903 q 688 865 719 865 l 413 865 l 413 39 q 376 0 413 0 q 343 39 343 0 l 343 865 l 67 865 q 33 903 33 865 q 67 938 33 938 l 688 938 q 719 903 719 938 m 235 1144 q 226 1167 226 1154 q 238 1192 226 1182 q 264 1203 250 1203 q 290 1189 281 1203 l 376 1074 l 463 1189 q 489 1203 472 1203 q 515 1192 503 1203 q 526 1167 526 1182 q 518 1144 526 1154 l 403 994 q 376 981 393 981 q 350 994 360 981 l 235 1144 z "},"ť":{"ha":481,"x_min":28,"x_max":499,"o":"m 28 0 m 403 494 q 368 460 403 460 l 246 460 l 246 39 q 210 0 246 0 q 176 39 176 0 l 176 460 l 63 460 q 28 494 28 460 q 63 531 28 531 l 176 531 l 176 685 q 210 719 176 719 q 246 685 246 719 l 246 531 l 368 531 q 403 494 403 531 m 433 957 q 460 971 443 971 q 487 960 475 971 q 499 933 499 949 q 490 913 499 922 l 374 763 q 347 749 364 749 q 322 759 333 749 q 310 785 310 769 q 318 807 310 796 l 433 957 z "},"Ŧ":{"ha":753,"x_min":33,"x_max":719,"o":"m 343 531 l 343 865 l 67 865 q 33 903 33 865 q 67 938 33 938 l 688 938 q 719 903 719 938 q 688 865 719 865 l 413 865 l 413 531 l 533 531 q 568 494 568 531 q 533 460 568 460 l 413 460 l 413 39 q 376 0 413 0 q 343 39 343 0 l 343 460 l 218 460 q 183 496 183 460 q 218 531 183 531 l 343 531 z "},"ŧ":{"ha":431,"x_min":28,"x_max":403,"o":"m 176 294 l 176 460 l 63 460 q 28 494 28 460 q 63 531 28 531 l 176 531 l 176 685 q 210 719 176 719 q 246 685 246 719 l 246 531 l 368 531 q 403 494 403 531 q 368 460 403 460 l 246 460 l 246 294 l 363 294 q 397 258 397 294 q 363 224 397 224 l 246 224 l 246 39 q 210 0 246 0 q 176 39 176 0 l 176 224 l 67 224 q 32 260 32 224 q 67 294 32 294 l 176 294 z "},"Ũ":{"ha":808,"x_min":83,"x_max":725,"o":"m 83 0 m 404 58 q 508 77 461 58 q 587 131 554 96 q 638 215 619 167 q 656 325 656 264 l 656 899 q 692 938 656 938 q 725 899 725 938 l 725 325 q 702 186 725 249 q 637 79 679 124 q 535 10 594 35 q 404 -14 476 -14 q 273 10 332 -14 q 172 79 214 35 q 106 186 129 124 q 83 325 83 249 l 83 899 q 117 938 83 938 q 153 899 153 938 l 153 325 q 171 215 153 264 q 222 131 189 167 q 301 77 254 96 q 404 58 347 58 m 529 1146 q 540 1169 529 1161 q 563 1178 551 1178 q 583 1171 574 1178 q 593 1147 593 1164 q 562 1052 593 1085 q 488 1019 531 1019 q 428 1040 451 1019 q 383 1083 404 1060 q 353 1115 368 1101 q 321 1128 339 1128 q 287 1110 297 1128 q 276 1063 276 1093 q 266 1039 276 1047 q 244 1031 256 1031 q 223 1038 232 1031 q 214 1061 214 1044 q 245 1156 214 1124 q 321 1189 276 1189 q 381 1169 357 1189 q 424 1125 404 1149 q 454 1094 439 1107 q 486 1081 469 1081 q 519 1098 510 1081 q 529 1146 529 1115 z "},"ũ":{"ha":599,"x_min":83,"x_max":504,"o":"m 83 0 m 83 496 q 119 531 83 531 q 153 496 153 531 l 153 214 q 185 99 153 139 q 289 58 217 58 q 396 103 357 58 q 435 214 435 149 l 435 496 q 471 531 435 531 q 504 496 504 531 l 504 35 q 471 0 504 0 q 435 35 435 0 l 435 68 q 370 5 408 24 q 281 -14 332 -14 q 132 44 181 -14 q 83 214 83 103 l 83 496 m 425 739 q 436 763 425 754 q 458 771 447 771 q 479 764 469 771 q 489 740 489 757 q 458 645 489 678 q 383 613 426 613 q 324 633 347 613 q 279 676 300 653 q 249 708 264 694 q 217 721 235 721 q 183 703 193 721 q 172 656 172 686 q 162 632 172 640 q 140 624 151 624 q 119 631 128 624 q 110 654 110 638 q 141 749 110 717 q 217 782 172 782 q 276 762 253 782 q 319 718 300 742 q 350 687 335 700 q 382 674 365 674 q 415 691 406 674 q 425 739 425 708 z "},"Ū":{"ha":808,"x_min":83,"x_max":725,"o":"m 83 0 m 404 58 q 508 77 461 58 q 587 131 554 96 q 638 215 619 167 q 656 325 656 264 l 656 899 q 692 938 656 938 q 725 899 725 938 l 725 325 q 702 186 725 249 q 637 79 679 124 q 535 10 594 35 q 404 -14 476 -14 q 273 10 332 -14 q 172 79 214 35 q 106 186 129 124 q 83 325 83 249 l 83 899 q 117 938 83 938 q 153 899 153 938 l 153 325 q 171 215 153 264 q 222 131 189 167 q 301 77 254 96 q 404 58 347 58 m 547 1126 q 582 1090 582 1126 q 547 1056 582 1056 l 260 1056 q 225 1092 225 1056 q 260 1126 225 1126 l 547 1126 z "},"ū":{"ha":599,"x_min":83,"x_max":504,"o":"m 83 0 m 83 496 q 119 531 83 531 q 153 496 153 531 l 153 214 q 185 99 153 139 q 289 58 217 58 q 396 103 357 58 q 435 214 435 149 l 435 496 q 471 531 435 531 q 504 496 504 531 l 504 35 q 471 0 504 0 q 435 35 435 0 l 435 68 q 370 5 408 24 q 281 -14 332 -14 q 132 44 181 -14 q 83 214 83 103 l 83 496 m 443 719 q 478 683 478 719 q 443 649 478 649 l 156 649 q 121 685 121 649 q 156 719 121 719 l 443 719 z "},"Ŭ":{"ha":808,"x_min":83,"x_max":725,"o":"m 83 0 m 404 58 q 508 77 461 58 q 587 131 554 96 q 638 215 619 167 q 656 325 656 264 l 656 899 q 692 938 656 938 q 725 899 725 938 l 725 325 q 702 186 725 249 q 637 79 679 124 q 535 10 594 35 q 404 -14 476 -14 q 273 10 332 -14 q 172 79 214 35 q 106 186 129 124 q 83 325 83 249 l 83 899 q 117 938 83 938 q 153 899 153 938 l 153 325 q 171 215 153 264 q 222 131 189 167 q 301 77 254 96 q 404 58 347 58 m 231 1168 q 239 1194 231 1185 q 260 1203 247 1203 q 292 1175 285 1203 q 303 1132 297 1153 q 322 1096 310 1111 q 353 1071 333 1081 q 404 1061 372 1061 q 455 1071 435 1061 q 487 1096 475 1081 q 505 1132 499 1111 q 517 1175 511 1153 q 549 1203 524 1203 q 569 1194 561 1203 q 578 1168 578 1185 q 563 1108 578 1146 q 526 1049 549 1071 q 472 1013 503 1025 q 404 1000 440 1000 q 337 1013 368 1000 q 282 1049 306 1025 q 245 1108 260 1071 q 231 1168 231 1146 z "},"ŭ":{"ha":599,"x_min":83,"x_max":504,"o":"m 83 0 m 83 496 q 119 531 83 531 q 153 496 153 531 l 153 214 q 185 99 153 139 q 289 58 217 58 q 396 103 357 58 q 435 214 435 149 l 435 496 q 471 531 435 531 q 504 496 504 531 l 504 35 q 471 0 504 0 q 435 35 435 0 l 435 68 q 370 5 408 24 q 281 -14 332 -14 q 132 44 181 -14 q 83 214 83 103 l 83 496 m 125 761 q 133 787 125 778 q 154 796 142 796 q 186 768 179 796 q 198 725 192 746 q 216 689 204 704 q 247 664 228 674 q 299 654 267 654 q 349 664 329 654 q 381 689 369 674 q 399 725 393 704 q 411 768 406 746 q 443 796 418 796 q 464 787 456 796 q 472 761 472 778 q 458 701 472 739 q 421 642 443 664 q 366 606 397 618 q 299 593 335 593 q 231 606 263 593 q 176 642 200 618 q 140 701 154 664 q 125 761 125 739 z "},"Ů":{"ha":808,"x_min":83,"x_max":725,"o":"m 83 0 m 404 58 q 508 77 461 58 q 587 131 554 96 q 638 215 619 167 q 656 325 656 264 l 656 899 q 692 938 656 938 q 725 899 725 938 l 725 325 q 702 186 725 249 q 637 79 679 124 q 535 10 594 35 q 404 -14 476 -14 q 273 10 332 -14 q 172 79 214 35 q 106 186 129 124 q 83 325 83 249 l 83 899 q 117 938 83 938 q 153 899 153 938 l 153 325 q 171 215 153 264 q 222 131 189 167 q 301 77 254 96 q 404 58 347 58 m 286 1085 q 321 1168 286 1133 q 404 1203 356 1203 q 488 1168 453 1203 q 522 1085 522 1133 q 488 1001 522 1036 q 404 967 453 967 q 321 1001 356 967 q 286 1085 286 1036 m 336 1085 q 356 1037 336 1057 q 404 1017 376 1017 q 451 1037 432 1017 q 471 1085 471 1057 q 451 1132 471 1113 q 404 1151 432 1151 q 356 1132 376 1151 q 336 1085 336 1113 z "},"ů":{"ha":599,"x_min":83,"x_max":504,"o":"m 83 0 m 83 496 q 119 531 83 531 q 153 496 153 531 l 153 214 q 185 99 153 139 q 289 58 217 58 q 396 103 357 58 q 435 214 435 149 l 435 496 q 471 531 435 531 q 504 496 504 531 l 504 35 q 471 0 504 0 q 435 35 435 0 l 435 68 q 370 5 408 24 q 281 -14 332 -14 q 132 44 181 -14 q 83 214 83 103 l 83 496 m 181 678 q 215 761 181 726 q 299 796 250 796 q 382 761 347 796 q 417 678 417 726 q 382 594 417 629 q 299 560 347 560 q 215 594 250 560 q 181 678 181 629 m 231 678 q 251 630 231 650 q 299 610 271 610 q 346 630 326 610 q 365 678 365 650 q 346 725 365 706 q 299 744 326 744 q 251 725 271 744 q 231 678 231 706 z "},"Ű":{"ha":808,"x_min":83,"x_max":725,"o":"m 83 0 m 404 58 q 508 77 461 58 q 587 131 554 96 q 638 215 619 167 q 656 325 656 264 l 656 899 q 692 938 656 938 q 725 899 725 938 l 725 325 q 702 186 725 249 q 637 79 679 124 q 535 10 594 35 q 404 -14 476 -14 q 273 10 332 -14 q 172 79 214 35 q 106 186 129 124 q 83 325 83 249 l 83 899 q 117 938 83 938 q 153 899 153 938 l 153 325 q 171 215 153 264 q 222 131 189 167 q 301 77 254 96 q 404 58 347 58 m 367 1189 q 393 1203 376 1203 q 420 1192 408 1203 q 432 1165 432 1181 q 424 1144 432 1154 l 307 994 q 281 981 297 981 q 255 991 267 981 q 243 1017 243 1001 q 251 1039 243 1028 l 367 1189 m 583 1189 q 610 1203 593 1203 q 637 1192 625 1203 q 649 1165 649 1181 q 640 1144 649 1154 l 524 994 q 497 981 514 981 q 472 991 483 981 q 460 1017 460 1001 q 468 1039 460 1028 l 583 1189 z "},"ű":{"ha":599,"x_min":83,"x_max":543,"o":"m 83 0 m 83 496 q 119 531 83 531 q 153 496 153 531 l 153 214 q 185 99 153 139 q 289 58 217 58 q 396 103 357 58 q 435 214 435 149 l 435 496 q 471 531 435 531 q 504 496 504 531 l 504 35 q 471 0 504 0 q 435 35 435 0 l 435 68 q 370 5 408 24 q 281 -14 332 -14 q 132 44 181 -14 q 83 214 83 103 l 83 496 m 261 782 q 288 796 271 796 q 315 785 303 796 q 326 758 326 774 q 318 738 326 747 l 201 588 q 175 574 192 574 q 149 584 161 574 q 138 610 138 594 q 146 632 138 621 l 261 782 m 478 782 q 504 796 488 796 q 531 785 519 796 q 543 758 543 774 q 535 738 543 747 l 418 588 q 392 574 408 574 q 366 584 378 574 q 354 610 354 594 q 363 632 354 621 l 478 782 z "},"Ų":{"ha":808,"x_min":83,"x_max":725,"o":"m 404 58 q 508 77 461 58 q 587 131 554 96 q 638 215 619 167 q 656 325 656 264 l 656 899 q 692 938 656 938 q 725 899 725 938 l 725 325 q 665 119 725 201 q 507 0 606 36 q 435 -34 471 -14 q 372 -82 400 -54 q 327 -145 344 -110 q 310 -225 310 -181 q 347 -308 310 -281 q 436 -336 385 -336 q 499 -326 469 -336 q 515 -321 506 -324 q 532 -318 525 -318 q 558 -327 550 -318 q 565 -350 565 -336 q 551 -376 565 -365 q 515 -394 536 -387 q 471 -403 494 -400 q 431 -406 447 -406 q 363 -395 397 -406 q 302 -362 329 -385 q 258 -303 275 -339 q 242 -217 242 -267 q 274 -99 242 -150 q 356 -11 307 -49 q 243 24 293 -3 q 158 95 193 51 q 103 197 122 139 q 83 325 83 256 l 83 899 q 117 938 83 938 q 153 899 153 938 l 153 325 q 171 215 153 264 q 222 131 189 167 q 301 77 254 96 q 404 58 347 58 z "},"ų":{"ha":599,"x_min":83,"x_max":540,"o":"m 217 -217 q 237 -134 217 -171 q 289 -69 257 -97 q 359 -22 321 -42 q 435 13 397 -1 l 435 82 q 370 19 408 38 q 281 0 332 0 q 132 51 181 0 q 83 214 83 103 l 83 496 q 119 531 83 531 q 153 496 153 531 l 153 214 q 185 106 153 139 q 289 72 217 72 q 396 117 357 72 q 435 228 435 163 l 435 496 q 471 531 435 531 q 504 496 504 531 l 504 10 q 499 -8 504 1 q 483 -22 494 -18 q 412 -53 447 -36 q 349 -93 376 -69 q 303 -149 321 -117 q 285 -225 285 -181 q 322 -308 285 -281 q 411 -336 360 -336 q 474 -326 444 -336 q 490 -321 481 -324 q 507 -318 500 -318 q 533 -327 525 -318 q 540 -350 540 -336 q 526 -376 540 -365 q 490 -394 511 -387 q 446 -403 469 -400 q 406 -406 422 -406 q 338 -395 372 -406 q 277 -362 304 -385 q 233 -303 250 -339 q 217 -217 217 -267 z "},"Ŵ":{"ha":1447,"x_min":32,"x_max":1415,"o":"m 32 0 m 1347 911 q 1376 938 1357 938 q 1405 927 1394 938 q 1415 906 1415 917 q 1411 886 1415 896 l 1094 31 q 1076 8 1088 15 q 1053 0 1065 0 q 1028 8 1039 0 q 1011 31 1017 15 l 724 807 l 436 31 q 418 8 429 15 q 394 0 407 0 q 369 8 381 0 q 353 31 358 15 l 36 886 q 32 906 32 896 q 42 927 32 917 q 71 938 53 938 q 100 911 90 938 l 394 125 l 689 911 q 702 931 694 925 q 725 938 710 938 q 746 931 739 938 q 758 911 753 924 l 1053 125 l 1347 911 m 865 1039 q 874 1017 874 1028 q 862 991 874 1001 q 836 981 850 981 q 810 994 819 981 l 724 1110 l 638 994 q 611 981 628 981 q 585 991 597 981 q 574 1017 574 1001 q 582 1039 574 1028 l 697 1189 q 724 1203 707 1203 q 750 1189 740 1203 l 865 1039 z "},"ŵ":{"ha":972,"x_min":32,"x_max":940,"o":"m 32 0 m 276 0 q 253 7 265 0 q 235 31 242 14 l 36 478 q 32 497 32 488 q 43 522 32 513 q 67 531 54 531 q 97 510 86 531 l 276 97 l 456 510 q 486 531 465 531 q 517 510 506 531 l 696 97 l 875 510 q 906 531 885 531 q 929 522 918 531 q 940 497 940 513 q 936 478 940 488 l 738 31 q 719 7 731 14 q 696 0 707 0 q 673 7 685 0 q 654 31 661 14 l 486 408 l 318 31 q 299 7 311 14 q 276 0 288 0 m 628 632 q 636 610 636 621 q 624 584 636 594 q 599 574 613 574 q 572 588 582 574 l 486 703 l 400 588 q 374 574 390 574 q 348 584 360 574 q 336 610 336 594 q 344 632 336 621 l 460 782 q 486 796 469 796 q 513 782 503 796 l 628 632 z "},"Ŷ":{"ha":742,"x_min":32,"x_max":710,"o":"m 32 0 m 371 0 q 336 38 336 0 l 336 454 l 40 881 q 32 904 32 893 q 42 928 32 919 q 67 938 53 938 q 96 921 83 938 l 371 532 l 646 921 q 675 938 658 938 q 699 928 689 938 q 710 904 710 919 q 701 881 710 893 l 406 454 l 406 38 q 371 0 406 0 m 513 1039 q 521 1017 521 1028 q 509 991 521 1001 q 483 981 497 981 q 457 994 467 981 l 371 1110 l 285 994 q 258 981 275 981 q 233 991 244 981 q 221 1017 221 1001 q 229 1039 221 1028 l 344 1189 q 371 1203 354 1203 q 397 1189 388 1203 l 513 1039 z "},"ŷ":{"ha":543,"x_min":32,"x_max":511,"o":"m 32 0 m 106 -387 q 78 -407 96 -407 q 55 -397 65 -407 q 44 -372 44 -387 q 49 -353 44 -364 l 239 61 l 36 479 q 32 497 32 488 q 43 522 32 513 q 67 531 54 531 q 97 511 88 531 l 279 139 l 450 514 q 476 531 458 531 q 500 522 489 531 q 511 499 511 513 q 508 488 511 496 l 106 -387 m 421 632 q 429 610 429 621 q 417 584 429 594 q 392 574 406 574 q 365 588 375 574 l 279 703 l 193 588 q 167 574 183 574 q 141 584 153 574 q 129 610 129 594 q 138 632 129 621 l 253 782 q 279 796 263 796 q 306 782 296 796 l 421 632 z "},"Ÿ":{"ha":742,"x_min":32,"x_max":710,"o":"m 32 0 m 371 0 q 336 38 336 0 l 336 454 l 40 881 q 32 904 32 893 q 42 928 32 919 q 67 938 53 938 q 96 921 83 938 l 371 532 l 646 921 q 675 938 658 938 q 699 928 689 938 q 710 904 710 919 q 701 881 710 893 l 406 454 l 406 38 q 371 0 406 0 m 429 1097 q 447 1144 429 1125 q 488 1163 464 1163 q 529 1144 511 1163 q 547 1097 547 1125 q 529 1051 547 1069 q 488 1032 511 1032 q 447 1051 464 1032 q 429 1097 429 1069 m 193 1097 q 210 1144 193 1125 q 251 1163 228 1163 q 293 1144 275 1163 q 311 1097 311 1125 q 293 1051 311 1069 q 251 1032 275 1032 q 210 1051 228 1032 q 193 1097 193 1069 z "},"Ź":{"ha":726,"x_min":49,"x_max":678,"o":"m 49 0 m 150 72 l 644 72 q 678 36 678 72 q 644 0 678 0 l 106 0 q 72 11 83 0 q 61 40 61 22 q 75 81 61 57 l 574 865 l 83 865 q 49 901 49 865 q 83 938 49 938 l 619 938 q 653 924 643 938 q 664 892 664 910 q 654 857 664 871 l 150 72 m 443 1189 q 469 1203 453 1203 q 497 1192 485 1203 q 508 1165 508 1181 q 500 1144 508 1154 l 383 994 q 357 981 374 981 q 331 991 343 981 q 319 1017 319 1001 q 328 1039 319 1028 l 443 1189 z "},"ź":{"ha":590,"x_min":54,"x_max":536,"o":"m 54 0 m 163 72 l 503 72 q 536 36 536 72 q 503 0 536 0 l 111 0 q 78 13 90 0 q 65 43 65 25 q 81 81 65 64 l 425 458 l 89 458 q 54 494 54 458 q 89 531 54 531 l 478 531 q 513 517 501 531 q 525 485 525 503 q 513 450 525 464 l 163 72 m 374 782 q 400 796 383 796 q 427 785 415 796 q 439 758 439 774 q 431 738 439 747 l 314 588 q 288 574 304 574 q 262 584 274 574 q 250 610 250 594 q 258 632 250 621 l 374 782 z "},"Ż":{"ha":726,"x_min":49,"x_max":678,"o":"m 49 0 m 150 72 l 644 72 q 678 36 678 72 q 644 0 678 0 l 106 0 q 72 11 83 0 q 61 40 61 22 q 75 81 61 57 l 574 865 l 83 865 q 49 901 49 865 q 83 938 49 938 l 619 938 q 653 924 643 938 q 664 892 664 910 q 654 857 664 871 l 150 72 m 313 1097 q 330 1144 313 1125 q 371 1163 347 1163 q 413 1144 394 1163 q 431 1097 431 1125 q 413 1051 431 1069 q 371 1032 394 1032 q 330 1051 347 1032 q 313 1097 313 1069 z "},"ż":{"ha":590,"x_min":54,"x_max":536,"o":"m 54 0 m 163 72 l 503 72 q 536 36 536 72 q 503 0 536 0 l 111 0 q 78 13 90 0 q 65 43 65 25 q 81 81 65 64 l 425 458 l 89 458 q 54 494 54 458 q 89 531 54 531 l 478 531 q 513 517 501 531 q 525 485 525 503 q 513 450 525 464 l 163 72 m 244 690 q 262 737 244 718 q 303 756 279 756 q 344 737 326 756 q 363 690 363 718 q 344 644 363 663 q 303 625 326 625 q 262 644 279 625 q 244 690 244 663 z "},"Ž":{"ha":726,"x_min":49,"x_max":678,"o":"m 49 0 m 150 72 l 644 72 q 678 36 678 72 q 644 0 678 0 l 106 0 q 72 11 83 0 q 61 40 61 22 q 75 81 61 57 l 574 865 l 83 865 q 49 901 49 865 q 83 938 49 938 l 619 938 q 653 924 643 938 q 664 892 664 910 q 654 857 664 871 l 150 72 m 226 1144 q 218 1167 218 1154 q 230 1192 218 1182 q 256 1203 242 1203 q 282 1189 272 1203 l 368 1074 l 454 1189 q 481 1203 464 1203 q 506 1192 494 1203 q 518 1167 518 1182 q 510 1144 518 1154 l 394 994 q 368 981 385 981 q 342 994 351 981 l 226 1144 z "},"ž":{"ha":590,"x_min":54,"x_max":536,"o":"m 54 0 m 163 72 l 503 72 q 536 36 536 72 q 503 0 536 0 l 111 0 q 78 13 90 0 q 65 43 65 25 q 81 81 65 64 l 425 458 l 89 458 q 54 494 54 458 q 89 531 54 531 l 478 531 q 513 517 501 531 q 525 485 525 503 q 513 450 525 464 l 163 72 m 158 738 q 150 760 150 747 q 162 785 150 775 q 188 796 174 796 q 214 782 204 796 l 300 667 l 386 782 q 413 796 396 796 q 438 785 426 796 q 450 760 450 775 q 442 738 450 747 l 326 588 q 300 574 317 574 q 274 588 283 574 l 158 738 z "},"ƒ":{"ha":679,"x_min":17,"x_max":661,"o":"m 304 531 l 304 731 q 351 893 304 835 q 488 951 397 951 q 610 903 561 951 q 647 843 632 881 q 661 783 661 806 q 653 758 661 767 q 632 749 644 749 q 600 776 607 749 q 588 817 594 799 q 570 850 582 836 q 538 872 558 864 q 488 879 518 879 q 374 731 374 879 l 374 531 l 489 531 q 524 494 524 531 q 489 460 524 460 l 374 460 l 374 -200 q 327 -362 374 -304 q 190 -421 281 -421 q 68 -372 117 -421 q 31 -312 46 -350 q 17 -253 17 -275 q 25 -227 17 -236 q 46 -218 33 -218 q 78 -246 71 -218 q 90 -287 83 -268 q 108 -319 96 -306 q 139 -341 119 -333 q 190 -349 158 -349 q 304 -200 304 -349 l 304 460 l 218 460 q 183 496 183 460 q 218 531 183 531 l 304 531 z "},"Ș":{"ha":617,"x_min":64,"x_max":556,"o":"m 64 0 m 313 -14 q 126 69 210 -14 q 96 107 108 86 q 74 147 83 128 q 64 190 64 167 q 74 215 64 206 q 97 225 85 225 q 128 201 119 225 q 151 153 139 174 q 179 117 164 132 q 239 76 207 89 q 303 63 271 63 q 382 77 347 63 q 440 115 417 92 q 474 171 463 139 q 486 239 486 203 q 474 314 486 276 q 438 379 461 351 q 396 417 422 396 q 339 460 369 438 q 279 503 308 482 q 229 540 250 524 q 138 640 165 593 q 110 746 110 688 q 125 825 110 788 q 168 891 140 863 q 233 935 196 919 q 314 951 269 951 q 420 923 374 951 q 490 853 467 894 q 503 828 497 842 q 508 801 508 814 q 499 778 508 786 q 478 769 489 769 q 461 775 469 769 q 447 793 453 781 q 433 817 440 806 q 418 838 426 829 q 315 879 376 879 q 216 840 251 879 q 181 749 181 801 q 203 670 181 706 q 269 600 225 635 q 319 563 289 585 q 383 518 350 542 q 444 471 415 494 q 490 426 474 447 q 556 236 556 350 q 539 141 556 186 q 490 61 522 96 q 413 6 458 26 q 313 -14 368 -14 m 383 -197 q 374 -265 383 -232 q 348 -323 364 -297 q 310 -364 332 -349 q 267 -379 289 -379 q 254 -369 254 -379 q 267 -351 254 -364 q 276 -335 272 -346 q 279 -315 279 -324 q 275 -276 279 -292 q 267 -249 271 -261 q 258 -224 263 -236 q 254 -196 254 -212 q 272 -138 254 -157 q 318 -119 290 -119 q 365 -141 346 -119 q 383 -197 383 -162 z "},"ș":{"ha":500,"x_min":64,"x_max":442,"o":"m 64 0 m 442 153 q 429 89 442 119 q 394 35 417 58 q 338 -1 371 13 q 264 -14 306 -14 q 190 -3 225 -14 q 128 31 156 7 q 78 92 93 60 q 64 154 64 124 q 97 189 64 189 q 136 154 131 189 q 175 84 144 110 q 264 58 206 58 q 347 83 322 58 q 372 150 372 108 q 357 197 372 179 q 314 225 342 214 q 244 248 285 236 q 176 272 204 260 q 94 403 94 308 q 139 505 94 465 q 269 544 183 544 q 355 526 321 544 q 404 490 389 508 q 419 467 415 478 q 424 446 424 457 q 413 421 424 431 q 389 411 403 411 q 353 431 367 411 q 319 463 339 453 q 258 472 299 472 q 164 403 164 472 q 174 358 164 375 q 214 329 183 340 q 284 308 246 318 q 347 286 322 297 q 442 153 442 243 m 332 -197 q 322 -265 332 -232 q 297 -323 313 -297 q 259 -364 281 -349 q 215 -379 238 -379 q 203 -369 203 -379 q 215 -351 203 -364 q 224 -335 221 -346 q 228 -315 228 -324 q 224 -276 228 -292 q 215 -249 219 -261 q 207 -224 211 -236 q 203 -196 203 -212 q 221 -138 203 -157 q 267 -119 239 -119 q 313 -141 294 -119 q 332 -197 332 -162 z "},"Ț":{"ha":753,"x_min":33,"x_max":719,"o":"m 33 0 m 719 903 q 688 865 719 865 l 413 865 l 413 39 q 376 0 413 0 q 343 39 343 0 l 343 865 l 67 865 q 33 903 33 865 q 67 938 33 938 l 688 938 q 719 903 719 938 m 446 -197 q 436 -265 446 -232 q 410 -323 426 -297 q 373 -364 394 -349 q 329 -379 351 -379 q 317 -369 317 -379 q 329 -351 317 -364 q 338 -335 335 -346 q 342 -315 342 -324 q 338 -276 342 -292 q 329 -249 333 -261 q 321 -224 325 -236 q 317 -196 317 -212 q 335 -138 317 -157 q 381 -119 353 -119 q 427 -141 408 -119 q 446 -197 446 -162 z "},"ț":{"ha":431,"x_min":28,"x_max":403,"o":"m 28 0 m 403 494 q 368 460 403 460 l 246 460 l 246 39 q 210 0 246 0 q 176 39 176 0 l 176 460 l 63 460 q 28 494 28 460 q 63 531 28 531 l 176 531 l 176 685 q 210 719 176 719 q 246 685 246 719 l 246 531 l 368 531 q 403 494 403 531 m 276 -197 q 267 -265 276 -232 q 241 -323 257 -297 q 203 -364 225 -349 q 160 -379 182 -379 q 147 -369 147 -379 q 160 -351 147 -364 q 169 -335 165 -346 q 172 -315 172 -324 q 168 -276 172 -292 q 160 -249 164 -261 q 151 -224 156 -236 q 147 -196 147 -212 q 165 -138 147 -157 q 211 -119 183 -119 q 258 -141 239 -119 q 276 -197 276 -162 z "},"ˆ":{"ha":489,"x_min":94,"x_max":394,"o":"m 386 632 q 394 610 394 621 q 383 584 394 594 q 357 574 371 574 q 331 588 340 574 l 244 703 l 158 588 q 132 574 149 574 q 106 584 118 574 q 94 610 94 594 q 103 632 94 621 l 218 782 q 244 796 228 796 q 271 782 261 796 l 386 632 z "},"ˇ":{"ha":489,"x_min":94,"x_max":394,"o":"m 103 738 q 94 760 94 747 q 106 785 94 775 q 132 796 118 796 q 158 782 149 796 l 244 667 l 331 782 q 357 796 340 796 q 383 785 371 796 q 394 760 394 775 q 386 738 394 747 l 271 588 q 244 574 261 574 q 218 588 228 574 l 103 738 z "},"˘":{"ha":536,"x_min":94,"x_max":442,"o":"m 94 761 q 103 787 94 778 q 124 796 111 796 q 156 768 149 796 q 167 725 161 746 q 185 689 174 704 q 217 664 197 674 q 268 654 236 654 q 319 664 299 654 q 351 689 339 674 q 369 725 363 704 q 381 768 375 746 q 413 796 388 796 q 433 787 425 796 q 442 761 442 778 q 427 701 442 739 q 390 642 413 664 q 335 606 367 618 q 268 593 304 593 q 201 606 232 593 q 146 642 169 618 q 109 701 124 664 q 94 761 94 739 z "},"˙":{"ha":307,"x_min":94,"x_max":213,"o":"m 94 690 q 112 737 94 718 q 153 756 129 756 q 194 737 176 756 q 213 690 213 718 q 194 644 213 663 q 153 625 176 625 q 112 644 129 625 q 94 690 94 663 z "},"˚":{"ha":393,"x_min":78,"x_max":314,"o":"m 78 678 q 113 761 78 726 q 196 796 147 796 q 279 761 244 796 q 314 678 314 726 q 279 594 314 629 q 196 560 244 560 q 113 594 147 560 q 78 678 78 629 m 128 678 q 148 630 128 650 q 196 610 168 610 q 243 630 224 610 q 263 678 263 650 q 243 725 263 706 q 196 744 224 744 q 148 725 168 744 q 128 678 128 706 z "},"˛":{"ha":386,"x_min":31,"x_max":354,"o":"m 200 26 q 219 38 208 32 q 242 51 231 44 q 265 61 254 57 q 285 65 276 65 q 309 56 300 65 q 318 33 318 47 q 313 16 318 25 q 297 1 308 7 q 226 -36 261 -15 q 163 -84 190 -57 q 117 -146 135 -111 q 99 -225 99 -181 q 136 -308 99 -281 q 225 -336 174 -336 q 288 -326 258 -336 q 304 -321 294 -324 q 321 -318 314 -318 q 347 -327 339 -318 q 354 -350 354 -336 q 340 -376 354 -365 q 304 -394 325 -387 q 260 -403 283 -400 q 219 -406 236 -406 q 152 -395 186 -406 q 91 -362 118 -385 q 47 -303 64 -339 q 31 -217 31 -267 q 44 -140 31 -175 q 82 -74 58 -104 q 136 -18 106 -43 q 200 26 167 7 z "},"˜":{"ha":568,"x_min":94,"x_max":474,"o":"m 410 739 q 421 763 410 754 q 443 771 432 771 q 464 764 454 771 q 474 740 474 757 q 442 645 474 678 q 368 613 411 613 q 308 633 332 613 q 264 676 285 653 q 234 708 249 694 q 201 721 219 721 q 167 703 178 721 q 157 656 157 686 q 147 632 157 640 q 125 624 136 624 q 103 631 113 624 q 94 654 94 638 q 126 749 94 717 q 201 782 157 782 q 261 762 238 782 q 304 718 285 742 q 335 687 319 700 q 367 674 350 674 q 400 691 390 674 q 410 739 410 708 z "},"˝":{"ha":594,"x_min":94,"x_max":500,"o":"m 218 782 q 244 796 228 796 q 272 785 260 796 q 283 758 283 774 q 275 738 283 747 l 158 588 q 132 574 149 574 q 106 584 118 574 q 94 610 94 594 q 103 632 94 621 l 218 782 m 435 782 q 461 796 444 796 q 488 785 476 796 q 500 758 500 774 q 492 738 500 747 l 375 588 q 349 574 365 574 q 323 584 335 574 q 311 610 311 594 q 319 632 311 621 l 435 782 z "},"Δ":{"ha":789,"x_min":32,"x_max":757,"o":"m 71 0 q 41 10 50 0 q 32 32 32 21 q 36 51 32 40 l 353 907 q 371 930 360 922 q 394 938 382 938 q 419 930 408 938 q 436 907 431 922 l 753 51 q 757 32 757 40 q 749 10 757 21 q 718 0 740 0 l 71 0 m 117 72 l 671 72 l 394 813 l 117 72 z "},"Ω":{"ha":961,"x_min":69,"x_max":892,"o":"m 481 879 q 341 861 404 879 q 233 806 278 843 q 163 711 188 768 q 138 575 138 654 q 150 470 138 522 q 186 374 163 418 q 233 303 204 338 q 292 235 263 268 q 349 169 322 201 q 390 103 375 136 q 405 62 401 76 q 408 36 408 47 q 372 0 408 4 l 114 0 q 89 12 97 0 q 81 38 81 24 q 88 62 81 51 q 111 72 96 72 l 332 72 q 301 129 325 101 q 247 189 278 157 q 182 258 215 221 q 125 343 149 294 q 84 454 99 396 q 69 574 69 513 q 101 740 69 669 q 190 858 133 811 q 320 928 246 906 q 481 951 394 951 q 640 928 565 951 q 772 858 715 906 q 860 740 828 811 q 892 574 892 669 q 877 454 892 513 q 836 343 863 396 q 779 258 813 294 q 715 189 746 221 q 659 129 683 157 q 629 72 635 101 l 850 72 q 873 62 865 72 q 881 38 881 51 q 872 12 881 24 q 847 0 864 0 l 589 0 q 553 36 553 4 q 556 62 553 47 q 571 103 560 76 q 612 169 585 136 q 669 235 639 201 q 727 303 699 268 q 775 374 756 338 q 811 470 799 418 q 824 575 824 522 q 799 711 824 654 q 728 806 774 768 q 620 861 683 843 q 481 879 557 879 z "},"μ":{"ha":610,"x_min":94,"x_max":515,"o":"m 164 -369 q 131 -407 164 -407 q 94 -369 94 -407 l 94 496 q 131 531 94 531 q 164 496 164 531 l 164 214 q 196 99 164 139 q 300 58 228 58 q 407 103 368 58 q 446 214 446 149 l 446 496 q 482 531 446 531 q 515 496 515 531 l 515 35 q 482 0 515 0 q 446 35 446 0 l 446 68 q 381 5 419 24 q 292 -14 343 -14 q 164 24 213 -14 l 164 -369 z "},"π":{"ha":689,"x_min":46,"x_max":665,"o":"m 592 496 q 560 458 592 458 l 465 458 l 465 171 q 478 94 465 124 q 538 64 492 64 q 572 77 556 64 q 600 117 589 90 q 613 134 604 128 q 631 140 622 140 q 665 107 665 140 q 657 75 665 92 q 639 44 649 58 q 592 6 619 19 q 536 -7 565 -7 q 430 36 464 -7 q 396 150 396 79 l 396 458 l 208 458 l 208 217 q 192 108 208 156 q 140 18 175 60 q 123 3 131 7 q 108 0 115 0 q 85 9 94 0 q 76 32 76 18 q 77 44 76 39 q 83 56 78 49 q 126 130 114 92 q 139 214 139 168 l 139 458 l 79 458 q 46 496 46 458 q 79 531 46 531 l 560 531 q 592 496 592 531 z "},"Ẁ":{"ha":1447,"x_min":32,"x_max":1415,"o":"m 32 0 m 1347 911 q 1376 938 1357 938 q 1405 927 1394 938 q 1415 906 1415 917 q 1411 886 1415 896 l 1094 31 q 1076 8 1088 15 q 1053 0 1065 0 q 1028 8 1039 0 q 1011 31 1017 15 l 724 807 l 436 31 q 418 8 429 15 q 394 0 407 0 q 369 8 381 0 q 353 31 358 15 l 36 886 q 32 906 32 896 q 42 927 32 917 q 71 938 53 938 q 100 911 90 938 l 394 125 l 689 911 q 702 931 694 925 q 725 938 710 938 q 746 931 739 938 q 758 911 753 924 l 1053 125 l 1347 911 m 768 1039 q 776 1017 776 1028 q 765 991 776 1001 q 739 981 753 981 q 713 994 722 981 l 596 1144 q 588 1165 588 1154 q 599 1192 588 1181 q 626 1203 611 1203 q 653 1189 643 1203 l 768 1039 z "},"ẁ":{"ha":972,"x_min":32,"x_max":940,"o":"m 32 0 m 276 0 q 253 7 265 0 q 235 31 242 14 l 36 478 q 32 497 32 488 q 43 522 32 513 q 67 531 54 531 q 97 510 86 531 l 276 97 l 456 510 q 486 531 465 531 q 517 510 506 531 l 696 97 l 875 510 q 906 531 885 531 q 929 522 918 531 q 940 497 940 513 q 936 478 940 488 l 738 31 q 719 7 731 14 q 696 0 707 0 q 673 7 685 0 q 654 31 661 14 l 486 408 l 318 31 q 299 7 311 14 q 276 0 288 0 m 531 632 q 539 610 539 621 q 527 584 539 594 q 501 574 515 574 q 475 588 485 574 l 358 738 q 350 758 350 747 q 362 785 350 774 q 389 796 374 796 q 415 782 406 796 l 531 632 z "},"Ẃ":{"ha":1447,"x_min":32,"x_max":1415,"o":"m 32 0 m 1347 911 q 1376 938 1357 938 q 1405 927 1394 938 q 1415 906 1415 917 q 1411 886 1415 896 l 1094 31 q 1076 8 1088 15 q 1053 0 1065 0 q 1028 8 1039 0 q 1011 31 1017 15 l 724 807 l 436 31 q 418 8 429 15 q 394 0 407 0 q 369 8 381 0 q 353 31 358 15 l 36 886 q 32 906 32 896 q 42 927 32 917 q 71 938 53 938 q 100 911 90 938 l 394 125 l 689 911 q 702 931 694 925 q 725 938 710 938 q 746 931 739 938 q 758 911 753 924 l 1053 125 l 1347 911 m 794 1189 q 821 1203 804 1203 q 848 1192 836 1203 q 860 1165 860 1181 q 851 1144 860 1154 l 735 994 q 708 981 725 981 q 683 991 694 981 q 671 1017 671 1001 q 679 1039 671 1028 l 794 1189 z "},"ẃ":{"ha":972,"x_min":32,"x_max":940,"o":"m 32 0 m 276 0 q 253 7 265 0 q 235 31 242 14 l 36 478 q 32 497 32 488 q 43 522 32 513 q 67 531 54 531 q 97 510 86 531 l 276 97 l 456 510 q 486 531 465 531 q 517 510 506 531 l 696 97 l 875 510 q 906 531 885 531 q 929 522 918 531 q 940 497 940 513 q 936 478 940 488 l 738 31 q 719 7 731 14 q 696 0 707 0 q 673 7 685 0 q 654 31 661 14 l 486 408 l 318 31 q 299 7 311 14 q 276 0 288 0 m 557 782 q 583 796 567 796 q 610 785 599 796 q 622 758 622 774 q 614 738 622 747 l 497 588 q 471 574 488 574 q 445 584 457 574 q 433 610 433 594 q 442 632 433 621 l 557 782 z "},"Ẅ":{"ha":1447,"x_min":32,"x_max":1415,"o":"m 32 0 m 1347 911 q 1376 938 1357 938 q 1405 927 1394 938 q 1415 906 1415 917 q 1411 886 1415 896 l 1094 31 q 1076 8 1088 15 q 1053 0 1065 0 q 1028 8 1039 0 q 1011 31 1017 15 l 724 807 l 436 31 q 418 8 429 15 q 394 0 407 0 q 369 8 381 0 q 353 31 358 15 l 36 886 q 32 906 32 896 q 42 927 32 917 q 71 938 53 938 q 100 911 90 938 l 394 125 l 689 911 q 702 931 694 925 q 725 938 710 938 q 746 931 739 938 q 758 911 753 924 l 1053 125 l 1347 911 m 782 1097 q 799 1144 782 1125 q 840 1163 817 1163 q 882 1144 864 1163 q 900 1097 900 1125 q 882 1051 900 1069 q 840 1032 864 1032 q 799 1051 817 1032 q 782 1097 782 1069 m 546 1097 q 563 1144 546 1125 q 604 1163 581 1163 q 646 1144 628 1163 q 664 1097 664 1125 q 646 1051 664 1069 q 604 1032 628 1032 q 563 1051 581 1032 q 546 1097 546 1069 z "},"ẅ":{"ha":972,"x_min":32,"x_max":940,"o":"m 32 0 m 276 0 q 253 7 265 0 q 235 31 242 14 l 36 478 q 32 497 32 488 q 43 522 32 513 q 67 531 54 531 q 97 510 86 531 l 276 97 l 456 510 q 486 531 465 531 q 517 510 506 531 l 696 97 l 875 510 q 906 531 885 531 q 929 522 918 531 q 940 497 940 513 q 936 478 940 488 l 738 31 q 719 7 731 14 q 696 0 707 0 q 673 7 685 0 q 654 31 661 14 l 486 408 l 318 31 q 299 7 311 14 q 276 0 288 0 m 544 690 q 562 737 544 718 q 603 756 579 756 q 644 737 626 756 q 663 690 663 718 q 644 644 663 663 q 603 625 626 625 q 562 644 579 625 q 544 690 544 663 m 308 690 q 326 737 308 718 q 367 756 343 756 q 408 737 390 756 q 426 690 426 718 q 408 644 426 663 q 367 625 390 625 q 326 644 343 625 q 308 690 308 663 z "},"Ỳ":{"ha":742,"x_min":32,"x_max":710,"o":"m 32 0 m 371 0 q 336 38 336 0 l 336 454 l 40 881 q 32 904 32 893 q 42 928 32 919 q 67 938 53 938 q 96 921 83 938 l 371 532 l 646 921 q 675 938 658 938 q 699 928 689 938 q 710 904 710 919 q 701 881 710 893 l 406 454 l 406 38 q 371 0 406 0 m 415 1039 q 424 1017 424 1028 q 412 991 424 1001 q 386 981 400 981 q 360 994 369 981 l 243 1144 q 235 1165 235 1154 q 247 1192 235 1181 q 274 1203 258 1203 q 300 1189 290 1203 l 415 1039 z "},"ỳ":{"ha":543,"x_min":32,"x_max":511,"o":"m 32 0 m 106 -387 q 78 -407 96 -407 q 55 -397 65 -407 q 44 -372 44 -387 q 49 -353 44 -364 l 239 61 l 36 479 q 32 497 32 488 q 43 522 32 513 q 67 531 54 531 q 97 511 88 531 l 279 139 l 450 514 q 476 531 458 531 q 500 522 489 531 q 511 499 511 513 q 508 488 511 496 l 106 -387 m 324 632 q 332 610 332 621 q 320 584 332 594 q 294 574 308 574 q 268 588 278 574 l 151 738 q 143 758 143 747 q 155 785 143 774 q 182 796 167 796 q 208 782 199 796 l 324 632 z "},"–":{"ha":685,"x_min":32,"x_max":653,"o":"m 618 503 q 653 467 653 503 q 618 432 653 432 l 67 432 q 32 468 32 432 q 67 503 32 503 l 618 503 z "},"—":{"ha":963,"x_min":32,"x_max":931,"o":"m 896 503 q 931 467 931 503 q 896 432 931 432 l 67 432 q 32 468 32 432 q 67 503 32 503 l 896 503 z "},"‘":{"ha":268,"x_min":69,"x_max":199,"o":"m 69 800 q 79 867 69 835 q 105 926 89 900 q 142 967 121 951 q 186 982 163 982 q 199 972 199 982 q 186 954 199 967 q 177 938 181 949 q 174 918 174 926 q 178 879 174 894 q 186 851 182 864 q 194 827 190 839 q 199 799 199 815 q 181 741 199 760 q 135 722 163 722 q 88 744 107 722 q 69 800 69 765 z "},"’":{"ha":268,"x_min":69,"x_max":199,"o":"m 199 904 q 189 837 199 869 q 163 778 179 804 q 126 738 147 753 q 82 722 104 722 q 69 732 69 722 q 82 750 69 738 q 91 767 88 756 q 94 786 94 778 q 90 825 94 810 q 82 853 86 840 q 74 877 78 865 q 69 906 69 889 q 88 963 69 944 q 133 982 106 982 q 180 960 161 982 q 199 904 199 939 z "},"‚":{"ha":268,"x_min":69,"x_max":199,"o":"m 199 85 q 189 17 199 50 q 163 -41 179 -15 q 126 -82 147 -67 q 82 -97 104 -97 q 69 -87 69 -97 q 82 -69 69 -82 q 91 -53 88 -64 q 94 -33 94 -42 q 90 6 94 -10 q 82 33 86 21 q 74 58 78 46 q 69 86 69 69 q 88 144 69 125 q 133 163 106 163 q 180 141 161 163 q 199 85 199 119 z "},"“":{"ha":467,"x_min":69,"x_max":397,"o":"m 69 722 m 69 800 q 79 867 69 835 q 105 926 89 900 q 142 967 121 951 q 186 982 163 982 q 199 972 199 982 q 186 954 199 967 q 177 938 181 949 q 174 918 174 926 q 178 879 174 894 q 186 851 182 864 q 194 827 190 839 q 199 799 199 815 q 181 741 199 760 q 135 722 163 722 q 88 744 107 722 q 69 800 69 765 m 268 800 q 278 867 268 835 q 303 926 288 900 q 340 967 319 951 q 385 982 361 982 q 397 972 397 982 q 385 954 397 967 q 376 938 379 949 q 372 918 372 926 q 376 879 372 894 q 385 851 381 864 q 393 827 389 839 q 397 799 397 815 q 379 741 397 760 q 333 722 361 722 q 287 744 306 722 q 268 800 268 765 z "},"”":{"ha":467,"x_min":69,"x_max":397,"o":"m 69 722 m 199 904 q 189 837 199 869 q 163 778 179 804 q 126 738 147 753 q 82 722 104 722 q 69 732 69 722 q 82 750 69 738 q 91 767 88 756 q 94 786 94 778 q 90 825 94 810 q 82 853 86 840 q 74 877 78 865 q 69 906 69 889 q 88 963 69 944 q 133 982 106 982 q 180 960 161 982 q 199 904 199 939 m 397 904 q 388 837 397 869 q 362 778 378 804 q 324 738 346 753 q 281 722 303 722 q 268 732 268 722 q 281 750 268 738 q 290 767 286 756 q 293 786 293 778 q 289 825 293 810 q 281 853 285 840 q 272 877 276 865 q 268 906 268 889 q 286 963 268 944 q 332 982 304 982 q 378 960 360 982 q 397 904 397 939 z "},"„":{"ha":467,"x_min":69,"x_max":397,"o":"m 69 0 m 199 85 q 189 17 199 50 q 163 -41 179 -15 q 126 -82 147 -67 q 82 -97 104 -97 q 69 -87 69 -97 q 82 -69 69 -82 q 91 -53 88 -64 q 94 -33 94 -42 q 90 6 94 -10 q 82 33 86 21 q 74 58 78 46 q 69 86 69 69 q 88 144 69 125 q 133 163 106 163 q 180 141 161 163 q 199 85 199 119 m 397 85 q 388 17 397 50 q 362 -41 378 -15 q 324 -82 346 -67 q 281 -97 303 -97 q 268 -87 268 -97 q 281 -69 268 -82 q 290 -53 286 -64 q 293 -33 293 -42 q 289 6 293 -10 q 281 33 285 21 q 272 58 276 46 q 268 86 268 69 q 286 144 268 125 q 332 163 304 163 q 378 141 360 163 q 397 85 397 119 z "},"†":{"ha":713,"x_min":94,"x_max":618,"o":"m 321 713 l 321 903 q 357 938 321 938 q 392 903 392 938 l 392 713 l 583 713 q 618 676 618 713 q 583 642 618 642 l 392 642 l 392 35 q 356 0 392 0 q 321 35 321 0 l 321 642 l 129 642 q 94 678 94 642 q 129 713 94 713 l 321 713 z "},"‡":{"ha":713,"x_min":94,"x_max":618,"o":"m 129 225 q 94 260 94 225 q 129 296 94 296 l 321 296 l 321 642 l 129 642 q 94 678 94 642 q 129 713 94 713 l 321 713 l 321 903 q 357 938 321 938 q 392 903 392 938 l 392 713 l 583 713 q 618 676 618 713 q 583 642 618 642 l 392 642 l 392 296 l 583 296 q 618 261 618 296 q 583 225 618 225 l 392 225 l 392 35 q 356 0 392 0 q 321 35 321 0 l 321 225 l 129 225 z "},"•":{"ha":407,"x_min":72,"x_max":335,"o":"m 335 469 q 297 364 335 401 q 203 326 260 326 q 110 364 147 326 q 72 469 72 401 q 110 576 72 539 q 203 614 147 614 q 297 576 260 614 q 335 469 335 539 z "},"…":{"ha":943,"x_min":86,"x_max":857,"o":"m 86 0 m 86 67 q 105 118 86 97 q 151 139 124 139 q 199 118 179 139 q 218 67 218 97 q 199 15 218 36 q 151 -6 179 -6 q 105 15 124 -6 q 86 67 86 36 m 406 67 q 424 118 406 97 q 471 139 443 139 q 518 118 499 139 q 538 67 538 97 q 518 15 538 36 q 471 -6 499 -6 q 424 15 443 -6 q 406 67 406 36 m 725 67 q 744 118 725 97 q 790 139 763 139 q 838 118 818 139 q 857 67 857 97 q 838 15 857 36 q 790 -6 818 -6 q 744 15 763 -6 q 725 67 725 36 z "},"‰":{"ha":1453,"x_min":69,"x_max":1383,"o":"m 69 0 m 451 696 q 438 594 451 643 q 399 508 424 546 q 338 448 374 471 q 261 425 303 425 q 183 448 218 425 q 122 508 147 471 q 83 594 97 546 q 69 696 69 643 q 83 796 69 747 q 122 882 97 844 q 183 942 147 919 q 261 964 218 964 q 338 942 303 964 q 399 882 374 919 q 438 796 424 844 q 451 696 451 747 m 261 481 q 317 498 292 481 q 360 545 343 515 q 388 614 378 575 q 397 696 397 653 q 388 776 397 738 q 360 844 378 815 q 317 891 343 874 q 261 908 292 908 q 203 891 229 908 q 160 844 178 874 q 133 776 142 815 q 124 696 124 738 q 133 614 124 653 q 160 545 142 575 q 203 498 178 515 q 261 481 229 481 m 282 17 q 258 0 271 0 q 237 9 246 0 q 228 28 228 18 q 233 46 228 36 l 746 921 q 769 938 756 938 q 790 929 782 938 q 799 911 799 921 q 798 903 799 907 q 793 892 797 899 l 282 17 m 969 249 q 956 147 969 196 q 917 61 942 99 q 856 1 892 24 q 779 -22 821 -22 q 701 1 736 -22 q 640 61 665 24 q 601 147 615 99 q 588 249 588 196 q 601 349 588 300 q 640 435 615 397 q 701 494 665 472 q 779 517 736 517 q 856 494 821 517 q 917 435 892 472 q 956 349 942 397 q 969 249 969 300 m 779 33 q 835 51 810 33 q 878 98 861 68 q 906 167 896 128 q 915 249 915 206 q 906 329 915 290 q 878 397 896 368 q 835 444 861 426 q 779 461 810 461 q 722 444 747 461 q 678 397 696 426 q 651 329 660 368 q 642 249 642 290 q 651 167 642 206 q 678 98 660 128 q 722 51 696 68 q 779 33 747 33 m 1383 249 q 1369 147 1383 196 q 1331 61 1356 99 q 1270 1 1306 24 q 1193 -22 1235 -22 q 1115 1 1150 -22 q 1054 61 1079 24 q 1015 147 1029 99 q 1001 249 1001 196 q 1015 349 1001 300 q 1054 435 1029 397 q 1115 494 1079 472 q 1193 517 1150 517 q 1270 494 1235 517 q 1331 435 1306 472 q 1369 349 1356 397 q 1383 249 1383 300 m 1193 33 q 1249 51 1224 33 q 1292 98 1275 68 q 1319 167 1310 128 q 1329 249 1329 206 q 1319 329 1329 290 q 1292 397 1310 368 q 1249 444 1275 426 q 1193 461 1224 461 q 1135 444 1161 461 q 1092 397 1110 426 q 1065 329 1074 368 q 1056 249 1056 290 q 1065 167 1056 206 q 1092 98 1074 128 q 1135 51 1110 68 q 1193 33 1161 33 z "},"‹":{"ha":296,"x_min":32,"x_max":264,"o":"m 257 56 q 264 33 264 42 q 253 9 264 18 q 229 0 243 0 q 199 19 210 0 l 39 279 q 32 299 32 290 q 39 318 32 307 l 199 578 q 229 596 211 596 q 253 587 243 596 q 264 563 264 578 q 257 542 264 553 l 108 299 l 257 56 z "},"›":{"ha":296,"x_min":32,"x_max":264,"o":"m 188 299 l 39 542 q 32 563 32 553 q 42 587 32 578 q 67 596 53 596 q 97 578 85 596 l 257 318 q 264 299 264 307 q 257 279 264 290 l 97 19 q 67 0 86 0 q 42 9 53 0 q 32 33 32 18 q 39 56 32 42 l 188 299 z "},"⁄":{"ha":340,"x_min":-117,"x_max":454,"o":"m -62 17 q -86 0 -74 0 q -108 9 -99 0 q -117 28 -117 18 q -111 46 -117 36 l 401 921 q 425 938 411 938 q 446 929 438 938 q 454 911 454 921 q 453 903 454 907 q 449 892 453 899 l -62 17 z "},"⁰":{"ha":497,"x_min":56,"x_max":438,"o":"m 56 425 m 438 696 q 424 594 438 643 q 385 508 410 546 q 324 448 360 471 q 247 425 289 425 q 169 448 204 425 q 108 508 133 471 q 69 594 83 546 q 56 696 56 643 q 69 796 56 747 q 108 882 83 844 q 169 942 133 919 q 247 964 204 964 q 324 942 289 964 q 385 882 360 919 q 424 796 410 844 q 438 696 438 747 m 247 481 q 303 498 278 481 q 347 545 329 515 q 374 614 364 575 q 383 696 383 653 q 374 776 383 738 q 347 844 364 815 q 303 891 329 874 q 247 908 278 908 q 190 891 215 908 q 146 844 164 874 q 119 776 128 815 q 110 696 110 738 q 119 614 110 653 q 146 545 128 575 q 190 498 164 515 q 247 481 215 481 z "}}}
